<?xml version="1.0" encoding="utf-8"?>
<!-- Generator: Adobe Illustrator 16.0.4, SVG Export Plug-In . SVG Version: 6.00 Build 0)  -->
<!DOCTYPE svg PUBLIC "-//W3C//DTD SVG 1.1//EN" "http://www.w3.org/Graphics/SVG/1.1/DTD/svg11.dtd">
<svg version="1.1" id="Layer_1" xmlns="http://www.w3.org/2000/svg" xmlns:xlink="http://www.w3.org/1999/xlink" x="0px" y="0px"
	 width="180px" height="36px" viewBox="0 0 180 36" enable-background="new 0 0 180 36" xml:space="preserve">
<g>
	<g>
		<polygon fill="#CEA00F" points="16.625,22.414 13.362,32.721 39.27,32.721 39.27,12.71 13.362,12.71 		"/>
	</g>
</g>
<g>
	<polygon fill="#9B7712" points="39.409,32.74 23.146,23.299 30.124,11.281 39.393,18.646 	"/>
</g>
<g>
	<g>
		<polygon fill="#CEA00F" points="163.593,22.414 166.639,32.721 140.729,32.721 140.729,12.71 166.639,12.71 		"/>
	</g>
</g>
<g>
	<polygon fill="#9B7712" points="140.591,32.74 156.854,23.299 149.876,11.281 140.604,18.646 	"/>
</g>
<g>
	<g>
		<rect x="23.105" y="3.26" fill="#DBAF00" width="133.59" height="20.014"/>
	</g>
</g>
<rect x="52.977" y="6.947" fill="none" width="81.669" height="13.895"/>
<g enable-background="new    ">
	<path fill="#565656" d="M62.928,8.88l4.354,9.338h-1.008l-1.469-3.072h-4.022l-1.455,3.072h-1.041l4.412-9.338H62.928z
		 M62.81,10.864l-1.6,3.38h3.192L62.81,10.864z"/>
	<path fill="#565656" d="M75.477,8.646v9.572h-0.876V17.03c-0.373,0.453-0.79,0.794-1.254,1.021c-0.463,0.229-0.97,0.343-1.52,0.343
		c-0.978,0-1.812-0.354-2.504-1.063c-0.691-0.709-1.038-1.571-1.038-2.587c0-0.994,0.349-1.845,1.047-2.551
		c0.698-0.707,1.538-1.061,2.52-1.061c0.567,0,1.08,0.121,1.54,0.361c0.459,0.242,0.862,0.604,1.209,1.086V8.646H75.477z
		 M71.925,11.991c-0.494,0-0.951,0.121-1.369,0.364s-0.751,0.584-0.999,1.023c-0.247,0.44-0.371,0.905-0.371,1.396
		c0,0.486,0.125,0.951,0.374,1.395c0.25,0.444,0.584,0.789,1.005,1.037c0.42,0.247,0.872,0.371,1.354,0.371
		c0.486,0,0.947-0.123,1.382-0.368c0.436-0.245,0.771-0.577,1.005-0.995c0.235-0.419,0.352-0.89,0.352-1.414
		c0-0.799-0.263-1.467-0.79-2.004C73.343,12.259,72.695,11.991,71.925,11.991z"/>
	<path fill="#565656" d="M84.383,8.646v9.572h-0.876V17.03c-0.373,0.453-0.79,0.794-1.254,1.021c-0.463,0.229-0.97,0.343-1.52,0.343
		c-0.978,0-1.812-0.354-2.504-1.063c-0.691-0.709-1.038-1.571-1.038-2.587c0-0.994,0.349-1.845,1.047-2.551
		c0.698-0.707,1.538-1.061,2.52-1.061c0.567,0,1.08,0.121,1.54,0.361c0.459,0.242,0.862,0.604,1.209,1.086V8.646H84.383z
		 M80.831,11.991c-0.494,0-0.951,0.121-1.369,0.364s-0.751,0.584-0.999,1.023c-0.247,0.44-0.371,0.905-0.371,1.396
		c0,0.486,0.125,0.951,0.374,1.395c0.25,0.444,0.584,0.789,1.005,1.037c0.42,0.247,0.872,0.371,1.354,0.371
		c0.486,0,0.947-0.123,1.382-0.368c0.436-0.245,0.771-0.577,1.005-0.995c0.235-0.419,0.352-0.89,0.352-1.414
		c0-0.799-0.263-1.467-0.79-2.004C82.249,12.259,81.601,11.991,80.831,11.991z"/>
	<path fill="#565656" d="M92.812,9.794V8.88h5.113v0.914h-2.08v8.424h-0.951V9.794H92.812z"/>
	<path fill="#565656" d="M105.336,11.312v6.906h-0.875V17.03c-0.373,0.453-0.791,0.794-1.254,1.021
		c-0.463,0.229-0.971,0.343-1.521,0.343c-0.978,0-1.812-0.354-2.504-1.063c-0.689-0.709-1.037-1.571-1.037-2.587
		c0-0.994,0.352-1.845,1.047-2.551c0.699-0.707,1.539-1.061,2.521-1.061c0.566,0,1.08,0.121,1.54,0.361
		c0.459,0.242,0.861,0.604,1.209,1.086v-1.27h0.875L105.336,11.312L105.336,11.312z M101.785,11.991
		c-0.494,0-0.951,0.121-1.369,0.364c-0.419,0.243-0.752,0.584-1,1.023c-0.246,0.44-0.37,0.905-0.37,1.396
		c0,0.486,0.124,0.951,0.374,1.395s0.584,0.789,1.005,1.037c0.421,0.247,0.872,0.371,1.354,0.371c0.484,0,0.945-0.123,1.381-0.368
		s0.771-0.577,1.006-0.995c0.234-0.419,0.352-0.89,0.352-1.414c0-0.799-0.264-1.467-0.789-2.004
		C103.202,12.259,102.555,11.991,101.785,11.991z"/>
	<path fill="#565656" d="M110.809,12.067l-0.572,0.59c-0.475-0.461-0.938-0.691-1.393-0.691c-0.289,0-0.537,0.095-0.742,0.285
		s-0.309,0.412-0.309,0.666c0,0.225,0.085,0.438,0.254,0.642c0.17,0.207,0.526,0.45,1.069,0.729c0.661,0.344,1.11,0.674,1.349,0.99
		c0.232,0.322,0.35,0.684,0.35,1.086c0,0.567-0.196,1.047-0.598,1.441c-0.398,0.393-0.896,0.59-1.494,0.59
		c-0.396,0-0.779-0.087-1.141-0.26c-0.363-0.174-0.662-0.413-0.9-0.718l0.562-0.635c0.452,0.512,0.937,0.769,1.442,0.769
		c0.355,0,0.658-0.115,0.91-0.344c0.25-0.229,0.375-0.497,0.375-0.806c0-0.254-0.082-0.48-0.248-0.679
		c-0.166-0.195-0.539-0.44-1.119-0.736c-0.625-0.322-1.049-0.64-1.271-0.953c-0.228-0.312-0.337-0.67-0.337-1.072
		c0-0.524,0.179-0.961,0.537-1.308c0.355-0.347,0.811-0.521,1.355-0.521C109.523,11.134,110.164,11.444,110.809,12.067z"/>
	<path fill="#565656" d="M112.376,8.646h0.89v5.453l3.201-2.787h1.305l-3.795,3.295l4.021,3.611h-1.252l-3.479-3.109v3.109h-0.89
		V8.646L112.376,8.646z"/>
</g>
</svg>
