<?xml version="1.0" encoding="utf-8"?>
<!-- Generator: Adobe Illustrator 16.0.4, SVG Export Plug-In . SVG Version: 6.00 Build 0)  -->
<!DOCTYPE svg PUBLIC "-//W3C//DTD SVG 1.1//EN" "http://www.w3.org/Graphics/SVG/1.1/DTD/svg11.dtd">
<svg version="1.1" id="Layer_1" xmlns="http://www.w3.org/2000/svg" xmlns:xlink="http://www.w3.org/1999/xlink" x="0px" y="0px"
	 width="489.6px" height="727.2px" viewBox="0 0 489.6 727.2" enable-background="new 0 0 489.6 727.2" xml:space="preserve">
<g id="personalMotivation">
</g>
<g>
	<rect x="-5.262" y="-15.408" fill="#04A84E" width="571.417" height="767.381"/>
	<path fill="#FCFBFA" d="M281.864,660.176l30.168-16.143c0.689,0.477,1.429,0.906,2.214,1.27c8.118,3.887,17.877,0.406,21.743-7.732
		c3.867-8.152,0.402-17.939-7.719-21.814c-1.602-0.77-3.258-1.244-4.931-1.457l-12.354-34.918c3.615-3.27,5.119-8.533,3.391-13.426
		l-0.165-0.467c-2.294-6.486-9.396-9.873-15.854-7.572l-6.647,2.371c-7.026-6.355-17.217-8.734-26.753-5.34l-9.938,3.543
		l2.842,8.033L256.515,567c-8.387,2.992-12.788,12.266-9.812,20.678l1.325,3.754c2.979,8.418,12.229,12.83,20.617,9.846l1.344-0.482
		l2.843,8.041l9.938-3.543c9.045-3.217,15.271-10.844,17.145-19.615l11.309,31.957c-1.938,1.521-3.562,3.488-4.695,5.863
		c-1.521,3.211-1.896,6.672-1.312,9.932l-37.425,20.023"/>
	<path fill="#FCFBFA" d="M266.147,594.233c-4.521,1.609-9.492-0.771-11.101-5.299l-1.335-3.762c-1.597-4.529,0.771-9.52,5.29-11.131
		l1.351-0.48l7.146,20.188L266.147,594.233z"/>
	<polygon fill="#00BF5A" points="67.339,175.701 58.554,70.776 145.281,11.465 240.8,57.078 249.587,162 162.857,221.312 	"/>
	<polyline fill="#00BF5A" points="198.229,670.682 189.592,565.452 276.468,505.833 371.985,551.444 380.628,656.674 
		293.821,716.141 	"/>
	<polyline fill="#00BF5A" points="623.252,25.873 631.451,132.037 544.13,192.589 448.61,146.976 440.415,40.814 527.806,-19.892 	
		"/>
	<polyline fill="#00BF5A" points="-105.216,525.813 -113.12,419.036 -25.511,357.863 70.01,403.475 77.915,510.254 -9.623,571.272 	
		"/>
	<polyline fill="#00BF5A" points="-125.577,187.48 -133.481,80.703 -45.872,19.53 49.649,65.145 57.554,171.923 -29.985,232.939 	
		"/>
	<polyline fill="#00BF5A" points="339.183,-9.454 331.278,-116.229 418.885,-177.401 514.405,-131.79 522.312,-25.009 
		434.774,36.005 	"/>
	<polyline fill="#00BF5A" points="151.035,4.065 143.131,-102.711 230.738,-163.884 326.261,-118.272 334.166,-11.491 
		246.628,49.524 	"/>
	<polyline fill="#00BF5A" points="-36.723,13.604 -44.628,-93.175 42.98,-154.347 138.502,-108.735 146.406,-1.954 58.87,59.062 	
		"/>
	<polyline fill="#00BF5A" points="304.86,832.459 296.955,725.682 384.563,664.51 480.085,710.124 487.989,816.905 400.452,877.917 
			"/>
	<polyline fill="#00BF5A" points="112.333,845.975 104.427,739.202 192.035,678.03 287.558,723.637 295.462,830.42 207.925,891.438 
			"/>
	<polyline fill="#00BF5A" points="-83.094,863.182 -90.999,756.409 -3.391,695.235 92.13,740.844 100.033,847.627 12.498,908.641 	
		"/>
	<polyline fill="#00BF5A" points="646.025,363.986 654.957,468.596 568.378,527.604 472.854,481.991 463.923,377.375 
		550.578,318.214 	"/>
	<polygon fill="#00BF5A" points="363.506,323.728 355.456,217.257 442.923,156.394 538.443,202.005 546.489,308.48 459.028,369.34 	
		"/>
	<polygon fill="#00BF5A" points="173.229,335.496 164.443,230.572 251.173,171.259 346.688,216.873 355.474,321.791 
		268.744,381.106 	"/>
	<polygon fill="#00BF5A" points="257.617,162.935 248.835,58.013 335.562,-1.299 431.081,44.311 439.869,149.236 353.14,208.544 	
		"/>
	<g id="_x36__2_">
		<path fill="#04A84E" d="M164.447,132.308c-0.127-0.059-0.261-0.115-0.392-0.178l17.415-36.697l27.712-4.783l-16.36-19.135
			l0.672-1.417l-3.067-1.464l-29.483,62.127c-12.014-4.99-25.09-6.705-28.119-0.324c-3.324,7.008,8.537,17.305,21.39,23.441
			c12.845,6.137,28.293,8.875,31.619,1.871C189.154,148.742,177.293,138.443,164.447,132.308z M155.675,150.798
			c-13.416-6.404-21.503-15.252-19.774-18.895c1.574-3.314,11.649-2.994,23.582,1.936l-3.607,7.602l3.066,1.465l3.652-7.695
			c0.131,0.064,0.261,0.115,0.393,0.178c13.402,6.4,21.494,15.252,19.771,18.891C181.029,157.919,169.078,157.199,155.675,150.798z"
			/>
		<path fill="#04A84E" d="M107.863,118.515c-8.694-4.148-19.1-0.439-23.237,8.275c-4.143,8.73-0.451,19.162,8.243,23.314
			c8.703,4.154,19.103,0.453,23.246-8.273C120.254,133.111,116.562,122.671,107.863,118.515z"/>
	</g>
	<g id="_x32_1_2_">
		<path fill="#04A84E" d="M603.795,412.655c4.96,2.369,10.917,0.246,13.276-4.725c2.357-4.98,0.246-10.947-4.724-13.318
			c-4.948-2.363-10.908-0.254-13.271,4.729C596.72,404.307,598.84,410.292,603.795,412.655z"/>
		<path fill="#04A84E" d="M619.431,428.247c-0.499-1.846-1.677-3.396-3.33-4.354c-1.646-0.959-3.57-1.213-5.421-0.719
			c0,0-11.3,3.037-14.084,3.779c-0.109-1.588-0.438-5.705-0.688-9.021c1.516-2.551,1.979-5.512,0.979-8.26
			c-0.243-0.689-0.588-1.332-0.981-1.92l0.046-0.02l-0.188-0.16c-0.817-1.15-1.908-2.082-3.167-2.781l-13.659-11.988l0.104,0.096
			l-1.358-1.041c0.151,0.104-2.699-1.312-2.699-1.312l-21.312-5.25c-1.896-0.463-3.896-0.152-5.492,0.844
			c-1.513,0.947-2.542,2.418-2.912,4.146c-0.771,3.648,1.675,7.373,5.459,8.309c0,0,18.948,4.666,19.604,4.822
			c0.206,0.174,2.043,1.709,4.174,3.494l-6.954,2.539l6.523,19.561l8.136-2.979l0.803,10.311c0.298,3.939,3.739,6.881,7.658,6.59
			c0.019-0.02,2.462-0.188,2.462-0.188l21.259-5.717c1.854-0.488,3.396-1.68,4.353-3.332c0.097-0.178,0.186-0.348,0.27-0.52
			C619.716,431.631,619.873,429.909,619.431,428.247z"/>
		<path fill="#04A84E" d="M576.39,449.782l-6.988-19.045l1.104-0.406l-2.187-6.543l-0.646-1.945l-2.037-6.121l-0.688-2.061
			l-0.976-2.881l-3.045,1.113c-1.104,0.41-2.078,0.969-3.001,1.576l-62.13,10.705c-4.658,0.799-7.899,4.689-7.229,8.65
			c0.684,3.979,5.026,6.561,9.686,5.77l55.084-9.496c2.042,5.326,6.719,17.58,7.439,19.445
			c-2.365,1.057-24.962,11.211-24.962,11.211c-2.568,1.184-4.104,2.574-5.028,4.531c-0.489,1.023-0.842,2.684-0.562,3.871
			c0,0,0.907,8.717,11.525,4.938l28.479-12.609c5.604-2.521,7.279-5.389,6.171-10.596L576.39,449.782z"/>
	</g>
	<g>
		<path fill="#04A84E" d="M398.426,123.335l-90.733-43.326l11.771-24.792c1.419-2.995,0.041-6.632-3.078-8.121
			c-3.105-1.487-6.796-0.268-8.22,2.727l-26.699,56.262c-1.424,3-0.046,6.637,3.062,8.123c3.123,1.488,6.808,0.268,8.229-2.73
			l1.291-2.713l85.088,40.629l-1.292,2.713c-1.425,3.002-0.045,6.637,3.074,8.125c3.114,1.488,6.801,0.268,8.221-2.729l12.36-26.049
			C402.922,128.458,401.54,124.824,398.426,123.335z M382.28,142.763c-1.684-2.137-3.562-2.832-6.549-2.516
			c-5.17,0.541-10.564-2.039-13.402-6.404c-1.864-2.865-3.814-3.799-7.205-3.439c-5.175,0.541-10.566-2.033-13.41-6.402
			c-1.859-2.865-3.818-3.801-7.207-3.443c-5.174,0.543-10.564-2.031-13.408-6.4c-1.854-2.865-3.812-3.797-7.209-3.443
			c-5.168,0.543-10.562-2.033-13.404-6.398c-0.905-1.396-1.851-2.32-2.967-2.871l1.029-2.176c1.534,0.746,2.844,1.984,4.018,3.793
			c2.33,3.58,6.748,5.686,10.979,5.244c4.358-0.457,7.241,0.916,9.63,4.596c2.335,3.582,6.749,5.688,10.985,5.248
			c4.356-0.457,7.231,0.916,9.63,4.6c2.328,3.574,6.745,5.684,10.982,5.244c4.354-0.459,7.232,0.918,9.627,4.598
			c2.328,3.578,6.744,5.684,10.979,5.246c3.419-0.359,5.922,0.441,8.008,2.582l-1.115,2.342L382.28,142.763z"/>
		<path fill="#04A84E" d="M315.808,67.225l-5.803,12.226l12.363,5.902c5.117-1.699,7.719-7.174,5.8-12.23
			C326.256,68.067,320.924,65.521,315.808,67.225z"/>
	</g>
	
		<text transform="matrix(0.9006 0.4301 -0.4288 0.9034 516.6631 17.5776)" fill="#353535" font-family="'CenturyGothic-Bold'" font-size="27.4404">12</text>
	
		<text transform="matrix(0.9006 0.4301 -0.4288 0.9034 -60.1465 65.9048)" fill="#DBAF00" font-family="'CenturyGothic-Bold'" font-size="27.4404">12</text>
	
		<text transform="matrix(0.9006 0.4301 -0.4288 0.9034 529.0029 365.4106)" fill="#353535" font-family="'CenturyGothic-Bold'" font-size="27.4404">19</text>
	<polyline fill="#00BF5A" points="562.521,540.272 571.452,644.883 484.873,703.889 389.349,658.28 380.419,553.665 
		467.073,494.504 	"/>
	<g id="_x32_1_1_">
		<path fill="#04A84E" d="M520.287,588.944c4.962,2.371,10.92,0.246,13.278-4.725c2.36-4.982,0.247-10.951-4.724-13.32
			c-4.945-2.363-10.912-0.254-13.271,4.729C513.214,580.596,515.333,586.577,520.287,588.944z"/>
		<path fill="#04A84E" d="M535.926,604.536c-0.5-1.846-1.678-3.396-3.328-4.352c-1.648-0.963-3.578-1.215-5.423-0.725
			c0,0-11.301,3.041-14.083,3.783c-0.118-1.592-0.44-5.705-0.688-9.021c1.513-2.551,1.979-5.514,0.979-8.264
			c-0.245-0.688-0.588-1.33-0.979-1.92l0.037-0.018l-0.188-0.156c-0.819-1.154-1.909-2.084-3.167-2.783l-13.659-11.988l0.104,0.096
			l-1.357-1.041c0.149,0.104-2.701-1.312-2.701-1.312l-21.312-5.252c-1.898-0.463-3.896-0.152-5.493,0.844
			c-1.514,0.947-2.542,2.42-2.912,4.146c-0.777,3.65,1.67,7.373,5.457,8.311c0,0,18.951,4.664,19.604,4.822
			c0.202,0.174,2.045,1.705,4.176,3.494l-6.957,2.539l6.521,19.561l8.14-2.979l0.801,10.307c0.301,3.939,3.741,6.885,7.662,6.59
			c0.016-0.02,2.463-0.188,2.463-0.188l21.26-5.715c1.852-0.49,3.39-1.682,4.345-3.332c0.103-0.172,0.188-0.346,0.271-0.52
			C536.21,607.92,536.368,606.198,535.926,604.536z"/>
		<path fill="#04A84E" d="M492.886,626.073l-6.998-19.047l1.109-0.408l-2.188-6.541l-0.644-1.947l-2.036-6.119l-0.688-2.061
			l-0.974-2.889l-3.047,1.121c-1.104,0.408-2.077,0.963-3.001,1.576l-62.131,10.703c-4.655,0.801-7.902,4.686-7.229,8.652
			c0.688,3.979,5.032,6.561,9.688,5.77l55.083-9.496c2.042,5.324,6.721,17.584,7.438,19.445c-2.359,1.059-24.96,11.209-24.96,11.209
			c-2.563,1.188-4.102,2.576-5.025,4.533c-0.489,1.023-0.843,2.686-0.562,3.871c0,0,0.91,8.719,11.53,4.938l28.479-12.615
			c5.604-2.518,7.278-5.385,6.172-10.59L492.886,626.073z"/>
	</g>
	
		<text transform="matrix(0.9006 0.4301 -0.4288 0.9034 461.499 535.6997)" fill="#353535" font-family="'CenturyGothic-Bold'" font-size="27.4404">19</text>
	
		<text transform="matrix(0.9006 0.4301 -0.4288 0.9034 136.9844 47.8579)" fill="#DBAF00" font-family="'CenturyGothic-Bold'" font-size="27.4404">9</text>
	
		<text transform="matrix(0.9006 0.4301 -0.4288 0.9034 240.7524 207.8149)" fill="#04A84E" font-family="'CenturyGothic-Bold'" font-size="24.0104">8</text>
	
		<text transform="matrix(0.9006 0.4301 -0.4288 0.9034 431.3857 189.2817)" fill="#DBAF00" font-family="'CenturyGothic-Bold'" font-size="24.0104">10</text>
	<polygon fill="#00BF5A" points="280.921,497.788 272.873,391.313 360.336,330.453 455.855,376.065 463.907,482.538 376.44,543.399 
			"/>
	
		<text transform="matrix(0.9006 0.4301 -0.4288 0.9034 350.501 359.7183)" fill="#04A84E" font-family="'CenturyGothic-Bold'" font-size="24.0104">6</text>
	<polygon fill="#00BF5A" points="-19.03,350.691 -27.081,244.218 60.385,183.355 155.904,228.968 163.955,335.439 76.489,396.299 	
		"/>
	<polygon fill="#00BF5A" points="88.6,511.747 80.55,405.272 168.016,344.408 263.537,390.022 271.583,496.495 184.121,557.356 	"/>
	
		<text transform="matrix(0.9006 0.4301 -0.4288 0.9034 325.2002 29.8872)" fill="#DBAF00" font-family="'CenturyGothic-Bold'" font-size="24.0104">24</text>
	
		<text transform="matrix(0.9006 0.4301 -0.4288 0.9034 53.4321 217.8608)" fill="#04A84E" font-family="'CenturyGothic-Bold'" font-size="24.0104">7</text>
	
		<text transform="matrix(0.9006 0.4301 -0.4288 0.9034 158.4058 375.3647)" fill="#04A84E" font-family="'CenturyGothic-Bold'" font-size="24.0104">3</text>
	
		<text transform="matrix(0.9006 0.4301 -0.4288 0.9034 -28.3096 390.1001)" fill="#353535" font-family="'CenturyGothic-Bold'" font-size="24.0104">1</text>
	
		<text transform="matrix(0.9006 0.4301 -0.4288 0.9034 266.0957 532.9497)" fill="#04A84E" font-family="'CenturyGothic-Bold'" font-size="24.0104">1</text>
	<polyline fill="#00BF5A" points="2.781,687.096 -5.123,580.319 82.486,519.149 178.007,564.758 185.912,671.542 98.373,732.553 	
		"/>
	
		<text transform="matrix(0.9006 0.4301 -0.4288 0.9034 77.4971 553.5786)" fill="#04A84E" font-family="'CenturyGothic-Bold'" font-size="24.0104">12</text>
	<g>
		<path fill="#04A84E" d="M408.513,424.661c2.42-0.74,4.892-0.012,6.184,1.684l0.479-0.166c2.232-2.045,5.424-3.961,9.23-5.311
			c3.812-1.355,7.485-1.895,10.513-1.725c0,0,0.73-0.258,1.638-0.574c0.91-0.326,1.192-1.877,0.627-3.477l-3.309-9.354
			c-0.562-1.588-1.745-2.613-2.645-2.299l-1.631,0.572c-2.229,2.059-5.438,3.98-9.27,5.355c-3.823,1.355-7.521,1.889-10.55,1.713
			l-0.34,0.109c0.267,2.258-1.244,4.574-3.729,5.592l-25.015,8.824c-0.716-0.398-1.607-1.562-2.021-4.771
			c-0.743-5.742-6.146-11.391-16.062-4.535c-9.917,6.855-6.156,10.572-22.473,4.982l-0.009,0.012
			c-5.599-2.303-11.771-2.686-17.593-0.604c-13.812,4.92-20.482,21.729-14.896,37.527c5.604,15.812,21.338,24.645,35.149,19.729
			c0.25-0.1,0.49-0.191,0.737-0.287v0.002c0,0,0.093-0.031,0.254-0.105c1.14-0.465,2.229-1.01,3.255-1.635
			c4.037-2.283,10.401-6.805,12.69-13.613c3.451-10.275,12.321-5.504,17.25-6.145c4.93-0.646,7.264-2.123,8.53-4.518
			c0,0-5.991,1.02-8.142-5.055c-1.729-4.873,2.408-9.807,5.24-12.104L408.513,424.661z"/>
	</g>
	<g>
		<path fill="#04A84E" d="M320.992,283.305c-6.41-6.132-13.275-11.355-20.81-15.757c-7.328-4.274-14.896-7.546-22.656-9.812
			c-6.276-5.932-13.118-11.083-20.454-15.366c-7.535-4.399-15.28-7.708-23.275-9.978l-2.157-0.567l-35.629,60.997l2.795,1.339
			c7.438,3.599,14.574,7.385,21.672,11.535c6.303,3.672,12,7.302,17.462,11.081l-0.235,0.395c0,0,0.626,1.537,3.567,3.258
			c2.948,1.725,4.611,1.521,4.611,1.521l0.235-0.4c5.982,2.906,11.74,5.983,18.039,9.649c7.095,4.149,13.657,8.359,20.451,13.077
			l2.157,1.556l35.647-61.042L320.992,283.305z"/>
	</g>
	<g>
		<path fill="#00BF5A" d="M286.621,341.654c-13.779-9.562-28.151-17.958-43.247-25.257c10.838-18.57,21.689-37.138,32.535-55.705
			c16.164,4.585,31.144,13.676,43.245,25.259C308.312,304.522,297.466,323.091,286.621,341.654z"/>
	</g>
	<g>
		<path fill="#00BF5A" d="M243.375,316.395c-13.78-9.564-28.15-17.958-43.247-25.259c10.842-18.571,21.694-37.138,32.532-55.705
			c16.171,4.587,31.144,13.676,43.247,25.261C265.064,279.263,254.217,297.829,243.375,316.395z"/>
	</g>
	<g>
		<g>
			<path fill="#04A84E" d="M243.375,316.395c-11.289-12.247-24.423-19.915-40.636-23.729c10.812-18.51,21.621-37.023,32.438-55.528
				c17.588,1.485,30.568,9.308,40.631,23.732C264.997,279.378,254.188,297.889,243.375,316.395z"/>
		</g>
	</g>
	<g>
		<g>
			<path fill="#04A84E" d="M243.049,316.205c16.212,3.814,29.345,11.485,40.634,23.733c10.811-18.512,21.627-37.021,32.435-55.527
				c-9.933-14.59-23.123-22.055-40.636-23.733C264.669,279.188,253.858,297.698,243.049,316.205z"/>
		</g>
	</g>
	<g>
		<g>
			<g>
				<path fill="#00BF5A" d="M308.26,286.557c-0.054-0.031-0.097-0.065-0.138-0.111c-8.901-9.156-18.789-14.934-31.136-18.18
					c-0.379-0.102-0.583-0.508-0.465-0.911c0.124-0.4,0.534-0.646,0.917-0.546c12.581,3.312,22.664,9.199,31.732,18.535
					c0.272,0.282,0.258,0.755-0.031,1.062C308.896,286.659,308.535,286.715,308.26,286.557z"/>
			</g>
			<g>
				<path fill="#00BF5A" d="M305.939,290.529c-0.052-0.029-0.095-0.069-0.138-0.111c-8.899-9.159-18.792-14.938-31.136-18.179
					c-0.373-0.103-0.581-0.508-0.459-0.911c0.124-0.402,0.531-0.647,0.91-0.547c12.579,3.311,22.668,9.201,31.733,18.537
					c0.278,0.28,0.265,0.752-0.025,1.059C306.575,290.636,306.212,290.688,305.939,290.529z"/>
			</g>
			<g>
				<path fill="#00BF5A" d="M303.614,294.503c-0.049-0.032-0.092-0.063-0.137-0.107c-8.897-9.162-18.791-14.936-31.132-18.184
					c-0.376-0.103-0.584-0.507-0.463-0.907c0.123-0.403,0.534-0.648,0.913-0.55c12.582,3.312,22.662,9.202,31.73,18.535
					c0.271,0.284,0.26,0.758-0.028,1.067C304.251,294.608,303.894,294.666,303.614,294.503z"/>
			</g>
			<g>
				<path fill="#00BF5A" d="M269.863,280.116c-0.278-0.154-0.407-0.499-0.3-0.839c0.123-0.4,0.532-0.648,0.911-0.552
					c12.582,3.309,22.662,9.201,31.729,18.538c0.276,0.286,0.264,0.762-0.026,1.067c-0.292,0.305-0.748,0.324-1.02,0.042
					c-8.893-9.157-18.792-14.938-31.13-18.181C269.971,280.171,269.914,280.149,269.863,280.116z"/>
			</g>
			<g>
				<path fill="#00BF5A" d="M267.543,284.094c-0.262-0.154-0.398-0.483-0.306-0.82c0.107-0.403,0.51-0.664,0.892-0.579
					c4.515,1.002,8.905,2.521,13.038,4.501c0.356,0.168,0.484,0.611,0.299,0.991c-0.191,0.384-0.624,0.556-0.974,0.383
					c-4.047-1.944-8.339-3.419-12.755-4.404C267.662,284.15,267.603,284.126,267.543,284.094z"/>
			</g>
			<g>
				<path fill="#00BF5A" d="M265.218,288.068c-0.271-0.163-0.4-0.51-0.296-0.848c0.118-0.404,0.533-0.649,0.904-0.545
					c12.583,3.311,22.674,9.2,31.734,18.533c0.282,0.284,0.264,0.759-0.028,1.063c-0.29,0.307-0.742,0.326-1.015,0.044
					c-8.898-9.152-18.787-14.932-31.131-18.183C265.329,288.121,265.271,288.097,265.218,288.068z"/>
			</g>
			<g>
				<path fill="#00BF5A" d="M294.33,310.398c-0.048-0.028-0.095-0.064-0.14-0.109c-8.893-9.153-18.783-14.932-31.126-18.177
					c-0.381-0.102-0.589-0.516-0.468-0.912c0.126-0.402,0.535-0.648,0.91-0.545c12.583,3.312,22.672,9.201,31.736,18.535
					c0.271,0.28,0.26,0.759-0.037,1.062C294.966,310.505,294.604,310.561,294.33,310.398z"/>
			</g>
			<g>
				<path fill="#00BF5A" d="M292.012,314.372c-0.051-0.028-0.097-0.064-0.143-0.109c-8.896-9.153-18.787-14.93-31.132-18.179
					c-0.379-0.102-0.588-0.51-0.463-0.911c0.118-0.402,0.535-0.644,0.91-0.551c12.583,3.316,22.67,9.207,31.734,18.536
					c0.277,0.278,0.263,0.753-0.031,1.06C292.648,314.477,292.283,314.534,292.012,314.372z"/>
			</g>
			<g>
				<path fill="#00BF5A" d="M258.257,299.989c-0.264-0.151-0.396-0.482-0.305-0.814c0.107-0.405,0.51-0.667,0.896-0.583
					c4.153,0.923,8.21,2.281,12.056,4.041c0.357,0.158,0.488,0.597,0.312,0.982c-0.181,0.385-0.613,0.563-0.968,0.401
					c-3.765-1.721-7.731-3.053-11.798-3.952C258.376,300.045,258.315,300.022,258.257,299.989z"/>
			</g>
			<g>
				<path fill="#00BF5A" d="M287.37,322.327c-0.05-0.032-0.098-0.065-0.146-0.108c-8.894-9.159-18.786-14.936-31.13-18.185
					c-0.379-0.098-0.589-0.508-0.464-0.912c0.124-0.4,0.534-0.646,0.917-0.546c12.579,3.312,22.662,9.201,31.732,18.535
					c0.276,0.286,0.257,0.755-0.031,1.063C288.003,322.427,287.64,322.48,287.37,322.327z"/>
			</g>
			<g>
				<path fill="#00BF5A" d="M253.614,307.935c-0.271-0.15-0.402-0.496-0.302-0.833c0.124-0.407,0.535-0.65,0.92-0.556
					c6.861,1.797,12.901,4.272,18.991,7.799c0.34,0.21,0.438,0.652,0.229,1.015c-0.216,0.364-0.659,0.509-0.994,0.312
					c-5.992-3.463-11.927-5.897-18.672-7.661C253.719,307.99,253.667,307.968,253.614,307.935z"/>
			</g>
		</g>
	</g>
	<g>
		<g>
			<g>
				<path fill="#00BF5A" d="M268.019,263.039c-0.053-0.031-0.1-0.067-0.146-0.121c-8.767-9.359-18.647-15.131-31.109-18.168
					c-0.38-0.094-0.596-0.496-0.479-0.903c0.118-0.404,0.527-0.659,0.906-0.566c12.718,3.104,22.808,9,31.758,18.548
					c0.271,0.289,0.248,0.768-0.049,1.067C268.646,263.144,268.287,263.191,268.019,263.039z"/>
			</g>
			<g>
				<path fill="#00BF5A" d="M234.262,248.648c-0.268-0.155-0.402-0.494-0.303-0.83c0.117-0.406,0.521-0.658,0.902-0.564
					c12.715,3.101,22.809,8.996,31.758,18.549c0.266,0.286,0.242,0.762-0.05,1.061c-0.295,0.303-0.752,0.315-1.02,0.03
					c-8.767-9.357-18.653-15.137-31.111-18.174C234.373,248.705,234.321,248.683,234.262,248.648z"/>
			</g>
			<g>
				<path fill="#00BF5A" d="M263.378,270.988c-0.049-0.035-0.101-0.077-0.144-0.126c-8.765-9.356-18.648-15.134-31.112-18.17
					c-0.382-0.09-0.597-0.496-0.478-0.903c0.114-0.404,0.521-0.655,0.904-0.564c12.716,3.103,22.806,8.999,31.76,18.552
					c0.265,0.285,0.244,0.76-0.048,1.057C264.004,271.094,263.644,271.141,263.378,270.988z"/>
			</g>
			<g>
				<path fill="#00BF5A" d="M261.056,274.961c-0.051-0.031-0.104-0.074-0.143-0.123c-8.763-9.352-18.649-15.133-31.111-18.172
					c-0.383-0.092-0.598-0.498-0.479-0.901c0.117-0.404,0.524-0.659,0.904-0.568c12.72,3.106,22.808,8.997,31.757,18.551
					c0.268,0.286,0.242,0.764-0.051,1.065C261.681,275.063,261.323,275.117,261.056,274.961z"/>
			</g>
			<g>
				<path fill="#00BF5A" d="M227.299,260.571c-0.268-0.151-0.4-0.492-0.304-0.828c0.116-0.408,0.524-0.658,0.902-0.566
					c5.329,1.3,10.102,2.993,15.015,5.328c0.354,0.171,0.482,0.614,0.292,0.994c-0.181,0.381-0.623,0.554-0.969,0.385
					c-4.83-2.294-9.524-3.961-14.765-5.24C227.409,260.63,227.353,260.603,227.299,260.571z"/>
			</g>
			<g>
				<path fill="#00BF5A" d="M256.413,282.909c-0.056-0.035-0.109-0.076-0.15-0.12c-8.767-9.364-18.647-15.134-31.107-18.173
					c-0.375-0.096-0.597-0.499-0.479-0.905c0.117-0.406,0.525-0.661,0.901-0.568c12.72,3.104,22.812,9,31.762,18.55
					c0.266,0.286,0.242,0.762-0.049,1.065C257.037,283.015,256.682,283.064,256.413,282.909z"/>
			</g>
			<g>
				<path fill="#00BF5A" d="M222.658,268.521c-0.271-0.155-0.4-0.492-0.305-0.83c0.12-0.41,0.52-0.662,0.903-0.564
					c12.718,3.099,22.809,8.997,31.757,18.547c0.267,0.286,0.248,0.759-0.049,1.063c-0.293,0.303-0.751,0.314-1.02,0.028
					c-8.766-9.364-18.649-15.135-31.112-18.178C222.767,268.576,222.709,268.554,222.658,268.521z"/>
			</g>
			<g>
				<path fill="#00BF5A" d="M251.767,290.855c-0.052-0.029-0.102-0.073-0.145-0.118c-8.768-9.358-18.651-15.131-31.107-18.171
					c-0.378-0.096-0.595-0.496-0.481-0.907c0.114-0.406,0.527-0.657,0.903-0.562c12.716,3.103,22.809,8.998,31.758,18.544
					c0.265,0.291,0.247,0.759-0.046,1.063C252.395,290.965,252.038,291.01,251.767,290.855z"/>
			</g>
			<g>
				<path fill="#00BF5A" d="M218.009,276.469c-0.262-0.155-0.394-0.495-0.299-0.832c0.121-0.402,0.526-0.653,0.905-0.565
					c11.144,2.764,20.284,7.63,28.744,15.337c0.287,0.267,0.298,0.736,0.022,1.056c-0.275,0.326-0.734,0.372-1.021,0.105
					c-8.294-7.555-17.242-12.331-28.177-15.033C218.124,276.521,218.066,276.498,218.009,276.469z"/>
			</g>
			<g>
				<path fill="#00BF5A" d="M246.935,299.138c-0.057-0.035-0.102-0.077-0.147-0.126c-8.769-9.356-18.653-15.133-31.114-18.17
					c-0.372-0.093-0.589-0.494-0.477-0.906c0.117-0.402,0.523-0.652,0.903-0.562c12.718,3.104,22.815,8.999,31.758,18.549
					c0.266,0.287,0.252,0.765-0.049,1.067C247.563,299.246,247.202,299.292,246.935,299.138z"/>
			</g>
			<g>
				<path fill="#00BF5A" d="M213.175,284.748c-0.267-0.153-0.397-0.493-0.305-0.83c0.118-0.404,0.53-0.653,0.909-0.565
					c9.508,2.343,17.532,6.208,25.233,12.149c0.307,0.237,0.352,0.706,0.101,1.049c-0.249,0.337-0.708,0.423-1.015,0.181
					c-7.555-5.828-15.417-9.615-24.744-11.916C213.287,284.804,213.23,284.779,213.175,284.748z"/>
			</g>
		</g>
	</g>
	<g>
		<path fill="#04A84E" d="M130.001,311.354c-1.687,3.217-3.879,6.117-6.503,8.633c-16.217,19.23-71.594,23.738-73.948,23.931
			c-0.733,0.054-1.449-0.092-2.078-0.422c-0.631-0.331-1.178-0.822-1.54-1.474c-0.313-0.56-8.147-14.093-14.695-30.483
			c-0.776-1.971,0.182-4.163,2.118-4.953c1.958-0.764,4.159,0.173,4.958,2.115c4.884,12.206,10.624,23.011,13.045,27.421
			c16.756-1.591,55.181-7.844,66.57-21.345c2.298-2.235,3.984-4.479,5.292-6.971c4.548-8.671,4.019-19.141-1.385-27.314
			c-6.883-10.48-21.181-14.813-32.773-9.977c-2.087,0.876-4.713-0.5-5.202-2.728c-2.631-12.305-14.321-21.579-26.829-21.3
			c-9.829,0.197-18.74,5.709-23.283,14.372c-1.298,2.475-2.172,5.159-2.64,7.948c-0.667,2.491-0.852,5.171-0.817,8.071
			l19.691,10.329l14.917-11.995c1.278-1.026,3.1-1.139,4.444-0.241c1.384,0.887,2.046,2.563,1.625,4.148l-6.063,23.66l11.979-7.183
			c1.133-0.684,2.548-0.724,3.728-0.105l12.222,6.411c1.86,0.976,2.583,3.275,1.602,5.143c-0.975,1.859-3.282,2.58-5.141,1.604
			l-10.33-5.418l-18.061,10.849c-1.152,0.692-2.561,0.726-3.72,0.117c-0.184-0.096-0.357-0.204-0.507-0.316
			c-1.243-0.931-1.79-2.494-1.418-3.995l5.507-21.559l-7.935,6.391c-1.19,0.961-2.819,1.107-4.163,0.402L9.322,274.48
			c-1.847-0.969-2.581-3.28-1.604-5.142c0.976-1.859,3.296-2.573,5.143-1.604l9.894,5.189c0.177-2.043,0.462-3.966,0.936-5.723
			c0.489-3.225,1.648-6.671,3.328-9.873c5.837-11.127,17.263-18.198,29.864-18.457c14.611-0.323,28.564,9.508,33.31,23.21
			c13.948-3.901,29.957,1.988,38.015,14.202C135.151,286.784,135.842,300.219,130.001,311.354z"/>
	</g>
	<g>
		<path fill="#04A84E" d="M2.146,426.02c12.022,5.263,17.521,19.329,12.26,31.349c-3.189,7.288-9.776,12.476-17.624,13.888
			l-12.039,2.17l9.361,7.879c14.178,11.931,20.697,30.474,15.157,43.129c-3.345,7.641-8.716,9.351-31.705-0.712
			c-2.312-1.011-4.691-2.082-7.135-3.184c-2.619-1.176-5.314-2.388-8.069-3.594c-2.759-1.208-5.475-2.365-8.115-3.49
			c-2.468-1.049-4.874-2.072-7.184-3.084c-22.987-10.062-25.373-15.167-22.028-22.809c5.539-12.651,23.577-20.439,41.964-18.124
			l12.138,1.534l-6.579-10.319c-4.286-6.722-4.943-15.085-1.754-22.371C-23.937,426.261-9.876,420.758,2.146,426.02 M4.448,420.76
			c-14.948-6.544-32.364,0.27-38.908,15.22c-4.106,9.38-2.951,19.729,2.167,27.763c-21.213-2.683-41.438,6.661-47.941,21.518
			c-6.479,14.802,6.3,22.193,24.985,30.371c4.786,2.096,9.96,4.242,15.297,6.577c5.333,2.335,10.423,4.682,15.204,6.774
			c18.688,8.181,32.79,12.554,39.268-2.247c6.503-14.856-0.354-36.055-16.718-49.826c9.369-1.687,17.752-7.857,21.859-17.24
			C26.208,444.725,19.394,427.302,4.448,420.76L4.448,420.76z"/>
	</g>
	<g id="ic_x5F_games_x5F_room">
		<g id="Shape_82">
			<g>
				<path fill="#04A84E" d="M175.069,455.473c2.945-0.929,6.083-1.17,9.161-0.654l19.789-22.64c1.976-2.259,4.985-3,7.601-2.108
					l0.886-1.881c0.705-1.492,0.1-3.281-1.347-3.976l-21.266-10.166c-1.448-0.691-3.208-0.036-3.912,1.457l-7.539,15.966
					c0.259,2.061,0.439,4.205,0.518,6.462C179.178,444.057,177.87,449.947,175.069,455.473z M194.133,421.206l0.408,9.774
					l-7.783,5.853l-0.41-9.772L194.133,421.206z M207.104,434.983l-18.469,21.127c0.548,0.235,1.09,0.491,1.627,0.782
					c2.501,1.355,4.69,3.26,6.394,5.553l15.57,8.445c0.812,0.048,1.619,0.153,2.417,0.303l14.289-16.344
					c1.083-1.237,0.997-3.14-0.197-4.222l-17.499-15.926C210.048,433.619,208.187,433.745,207.104,434.983z M209.221,441.311
					c3.575,0.068,3.324,4.771,2.33,5.905c0.994-1.135,5.542-1.927,6.011,1.692c0.589,4.521-13.654,7.051-13.654,7.051
					S204.748,441.233,209.221,441.311z M174.095,438.208c-0.598-17.016-6.559-34.003-31.351-32.601
					c-24.788,1.403-29.542,18.996-28.944,36.006c0.218,6.289,2.265,11.777,5.606,16.473l50.254-2.842
					C172.658,450.195,174.318,444.499,174.095,438.208z M137.105,437.267c-2.95,3.842-8.345,4.572-12.047,1.629
					c-3.701-2.942-4.316-8.445-1.361-12.289c2.949-3.845,8.347-4.572,12.048-1.632C139.45,427.919,140.056,433.422,137.105,437.267z
					 M165.62,460.283l-41.827,2.366c2.66,2.395,5.537,4.421,9.084,6.166c0.752,0.457,5.478,2.397,5.592,5.599
					c0.246,6.995-0.493,15.745-0.374,19.132c0.12,3.39,0.841,5.981,7.93,5.581c2.597-0.148,4.308-0.587,5.437-1.253
					c-1.126-3.292-0.61-7.097,1.57-10.662c-0.447-4.005-1.05-9.091-1.205-13.552c-0.106-3.049,3.62-5.222,4.748-6.096
					C159.801,465.206,163.095,463.017,165.62,460.283z M217.892,477.811c-2.252-1.218-4.681-1.78-7.081-1.748l-17.646-9.572
					c-1.301-2.035-3.106-3.771-5.355-4.992c-7.227-3.919-16.309-1.045-20.283,6.429c-1.628,3.057-2.147,6.408-1.696,9.569
					c-2.701,3.934-6.759,9.839-8.155,11.87c-2.161,3.142-2.398,6.557,0.039,8.974c2.433,2.422,5.828,2.021,8.777-0.209
					c1.808-1.367,7.008-5.308,10.78-8.161c0.098,0.022,0.196,0.043,0.294,0.065l22.414,12.154c0.057,0.062,0.119,0.118,0.181,0.177
					c-0.275,4.751-0.654,11.318-0.786,13.593c-0.214,3.718,1.328,6.796,4.672,7.511c3.345,0.712,6.03-1.371,7.435-4.927
					c0.899-2.287,3.524-8.931,5.278-13.372c2.883-1.368,5.388-3.665,7.022-6.739C227.754,490.961,225.119,481.731,217.892,477.811z
					 M180.05,470.669l1.765-3.31c0.521-0.981,1.711-1.359,2.661-0.847l0.917,0.499c0.949,0.515,1.295,1.729,0.774,2.712l-1.764,3.31
					c-0.259,0.491-2.337,1.755-3.425,1.167C179.89,473.609,179.793,471.16,180.05,470.669z M176.035,475.686l-3.204-1.74
					c-0.95-0.514-1.293-1.729-0.773-2.707l0.505-0.948c0.522-0.979,1.713-1.357,2.663-0.844l3.205,1.737
					c0.473,0.261,1.671,2.357,1.074,3.481C178.906,475.791,176.509,475.943,176.035,475.686z M180.86,479.696l-1.763,3.312
					c-0.522,0.981-1.714,1.357-2.662,0.846l-0.918-0.502c-0.949-0.514-1.297-1.726-0.772-2.704l1.76-3.313
					c0.265-0.491,2.339-1.757,3.427-1.169C181.021,476.753,181.123,479.203,180.86,479.696z M188.855,479.128l-0.504,0.945
					c-0.521,0.979-1.717,1.36-2.666,0.845l-3.204-1.739c-0.475-0.258-1.672-2.354-1.074-3.481c0.597-1.124,2.996-1.278,3.47-1.02
					l3.204,1.738C189.031,476.932,189.377,478.148,188.855,479.128z M207.332,489.759c-0.649,1.218-2.131,1.688-3.311,1.05
					c-1.179-0.642-1.609-2.148-0.962-3.363c0.649-1.222,2.132-1.691,3.312-1.051C207.548,487.036,207.98,488.542,207.332,489.759z
					 M209.853,498.574c-0.651,1.22-2.132,1.689-3.312,1.049c-1.177-0.639-1.609-2.146-0.958-3.365
					c0.648-1.219,2.128-1.688,3.308-1.048C210.07,495.851,210.5,497.355,209.853,498.574z M216.004,487.01
					c-0.646,1.221-2.13,1.686-3.308,1.049c-1.182-0.637-1.611-2.143-0.964-3.363c0.651-1.221,2.131-1.688,3.31-1.049
					C216.222,484.287,216.654,485.792,216.004,487.01z M218.523,495.829c-0.648,1.217-2.13,1.688-3.31,1.048
					c-1.179-0.642-1.609-2.146-0.961-3.364c0.647-1.219,2.128-1.688,3.311-1.048C218.742,493.102,219.172,494.61,218.523,495.829z"
					/>
			</g>
		</g>
	</g>
	<g id="calendar_1_">
		<path fill="#04A84E" d="M141.41,618.318l-12.236-6.446l2.976-5.647c0.82-1.56,0.224-3.49-1.337-4.311
			c-1.56-0.824-3.489-0.223-4.312,1.337l-2.974,5.645l-16.94-8.924l2.974-5.646c0.823-1.561,0.223-3.492-1.334-4.312
			c-1.558-0.821-3.49-0.225-4.312,1.339l-2.975,5.645l-16.941-8.926l2.974-5.646c0.823-1.562,0.224-3.493-1.335-4.312
			c-1.559-0.822-3.489-0.227-4.31,1.334l-2.976,5.647l-12.234-6.445c-4.16-2.191-9.305-0.599-11.496,3.562l-35.206,66.821
			c-2.192,4.161-0.596,9.309,3.563,11.5l75.292,39.665c4.158,2.191,9.305,0.597,11.497-3.565l35.204-66.821
			C147.162,625.652,145.566,620.508,141.41,618.318z M104.12,693.659c-0.548,1.037-1.835,1.437-2.873,0.891l-75.292-39.668
			c-1.04-0.548-1.44-1.833-0.892-2.873l35.204-66.822c0.547-1.036,1.834-1.437,2.874-0.888l12.233,6.443l-2.974,5.647
			c-0.822,1.559-0.222,3.489,1.337,4.31c1.557,0.82,3.487,0.227,4.309-1.334l2.974-5.647l16.942,8.928l-2.974,5.644
			c-0.823,1.561-0.222,3.49,1.335,4.312c1.558,0.819,3.49,0.225,4.311-1.337l2.974-5.646l16.942,8.924l-2.975,5.646
			c-0.823,1.562-0.226,3.489,1.336,4.312c1.56,0.821,3.488,0.225,4.31-1.335l2.975-5.649l12.235,6.448
			c1.038,0.547,1.438,1.834,0.89,2.872L104.12,693.659z"/>
		
			<rect x="61.995" y="612.93" transform="matrix(-0.8847 -0.4661 0.4661 -0.8847 -159.0497 1196.099)" fill="#04A84E" width="12.768" height="9.574"/>
		
			<rect x="54.56" y="627.046" transform="matrix(-0.8848 -0.466 0.466 -0.8848 -179.5794 1219.267)" fill="#04A84E" width="12.764" height="9.576"/>
		
			<rect x="47.122" y="641.164" transform="matrix(-0.8847 -0.4661 0.4661 -0.8847 -200.2245 1242.3882)" fill="#04A84E" width="12.766" height="9.574"/>
		
			<rect x="66.885" y="651.575" transform="matrix(-0.8848 -0.466 0.466 -0.8848 -167.7761 1271.2452)" fill="#04A84E" width="12.766" height="9.577"/>
		
			<rect x="74.323" y="637.461" transform="matrix(-0.8847 -0.4662 0.4662 -0.8847 -147.3234 1248.051)" fill="#04A84E" width="12.767" height="9.574"/>
		
			<rect x="81.759" y="623.344" transform="matrix(-0.8847 -0.4662 0.4662 -0.8847 -126.7261 1224.9109)" fill="#04A84E" width="12.767" height="9.572"/>
		
			<rect x="86.652" y="661.99" transform="matrix(-0.8848 -0.466 0.466 -0.8848 -135.377 1300.0828)" fill="#04A84E" width="12.764" height="9.574"/>
		
			<rect x="94.088" y="647.873" transform="matrix(-0.8848 -0.4661 0.4661 -0.8848 -114.8127 1276.9298)" fill="#04A84E" width="12.765" height="9.575"/>
		
			<rect x="101.526" y="633.755" transform="matrix(-0.8847 -0.4661 0.4661 -0.8847 -94.2265 1253.7842)" fill="#04A84E" width="12.765" height="9.576"/>
	</g>
	<g id="miu">
		<g id="house_home_outline_stroke">
			<g>
				<path id="path-1" fill="#04A84E" d="M310.512,561.834l-69.061,12.506l-3.491,6.717l69.061-12.507l29.451,63.704l3.489-6.716
					L310.512,561.834L310.512,561.834z M218.989,639.448l22.302,11.591l2.329-4.481l-17.824-9.263L253.494,584l-6.364,1.302
					L218.989,639.448L218.989,639.448z M297.477,674.546l-17.815-9.258l-2.328,4.48l22.292,11.586l28.227-54.312l-2.613-5.912
					L297.477,674.546z M269.15,608.587l-23.272,44.779l26.867,13.962l23.271-44.778L269.15,608.587z M271.302,615.391
					l-18.617,35.823l17.91,9.308l18.617-35.822L271.302,615.391z M334.675,602.885l2.489,6.157l12.462-23.98l-13.434-6.981
					l-6.981,13.433l2.451,6.227l6.681-12.855l4.479,2.327L334.675,602.885z"/>
			</g>
			<g>
				<path id="path-1_1_" fill="#04A84E" d="M310.512,561.834l-69.061,12.506l-3.491,6.717l69.061-12.507l29.451,63.704l3.489-6.716
					L310.512,561.834L310.512,561.834z M218.989,639.448l22.302,11.591l2.329-4.481l-17.824-9.263L253.494,584l-6.364,1.302
					L218.989,639.448L218.989,639.448z M297.477,674.546l-17.815-9.258l-2.328,4.48l22.292,11.586l28.227-54.312l-2.613-5.912
					L297.477,674.546z M269.15,608.587l-23.272,44.779l26.867,13.962l23.271-44.778L269.15,608.587z M271.302,615.391
					l-18.617,35.823l17.91,9.308l18.617-35.822L271.302,615.391z M334.675,602.885l2.489,6.157l12.462-23.98l-13.434-6.981
					l-6.981,13.433l2.451,6.227l6.681-12.855l4.479,2.327L334.675,602.885z"/>
			</g>
		</g>
	</g>
</g>
</svg>
