<?xml version="1.0" encoding="utf-8"?>
<!-- Generator: Adobe Illustrator 16.0.4, SVG Export Plug-In . SVG Version: 6.00 Build 0)  -->
<!DOCTYPE svg PUBLIC "-//W3C//DTD SVG 1.1//EN" "http://www.w3.org/Graphics/SVG/1.1/DTD/svg11.dtd">
<svg version="1.1" id="Layer_1" xmlns="http://www.w3.org/2000/svg" xmlns:xlink="http://www.w3.org/1999/xlink" x="0px" y="0px"
	 width="489.6px" height="727.2px" viewBox="0 0 489.6 727.2" enable-background="new 0 0 489.6 727.2" xml:space="preserve">
<rect x="-5.262" y="-15.408" fill="#494949" width="571.417" height="767.381"/>
<g id="personalMotivation">
</g>
<g>
	<path fill="#444444" d="M183.184,960.179l48.135-4.167c0.628,1.002,1.35,1.972,2.167,2.879c8.373,9.562,22.976,10.474,32.521,2.062
		c9.555-8.43,10.502-23.06,2.119-32.605c-1.65-1.891-3.535-3.427-5.588-4.635l3.393-52.191c6.51-2.232,11.391-8.227,11.867-15.537
		l0.047-0.699c0.633-9.694-6.703-18.041-16.365-18.647l-9.945-0.622c-5.584-12.157-17.486-20.913-31.75-21.813l-14.868-0.93
		l-0.781,12.006l-2.012-0.13c-12.548-0.782-23.419,8.805-24.237,21.379l-0.37,5.608c-0.817,12.582,8.734,23.454,21.281,24.248
		l2.014,0.122l-0.785,12.018l14.869,0.931c13.529,0.856,25.852-5.578,33.164-15.92l-3.102,47.767
		c-3.36,0.897-6.563,2.548-9.354,4.999c-3.761,3.32-6.174,7.604-7.228,12.159l-59.713,5.167"/>
	<path fill="#444444" d="M199.474,865.85c-6.763-0.427-11.891-6.283-11.459-13.053l0.361-5.624
		c0.447-6.767,6.297-11.926,13.058-11.503l2.02,0.128l-1.958,30.176L199.474,865.85z"/>
	<polygon fill="#444444" points="174.856,210.756 221.83,69.692 367.386,40.966 465.978,153.307 419.009,294.369 273.448,323.093 	
		"/>
	<polyline fill="#444444" points="68.793,927.284 116.129,785.906 262.048,756.862 360.642,869.2 313.313,1010.582 
		167.567,1039.464 	"/>
	<polyline fill="#444444" points="979.146,326.881 930.724,469.228 783.706,499.234 685.114,386.893 733.54,244.551 
		880.733,214.384 	"/>
	<polyline fill="#444444" points="-244.433,570.445 -195.286,427.467 -47.55,396.815 51.045,509.156 1.899,652.136 
		-145.659,682.626 	"/>
	<polyline fill="#444444" points="-82.629,120.014 -33.481,-22.963 114.255,-53.616 212.849,58.728 163.703,201.708 16.146,232.195 
			"/>
	<polyline fill="#444444" points="630.122,122.991 679.267,-19.985 826.999,-50.636 925.595,61.702 876.45,204.687 728.894,235.172 
			"/>
	<polyline fill="#444444" points="378.415,35.861 427.56,-107.115 575.294,-137.768 673.892,-25.427 624.743,117.556 
		477.188,148.042 	"/>
	<polyline fill="#444444" points="129.426,-56.217 178.573,-199.197 326.308,-229.849 424.903,-117.508 375.755,25.474 
		228.201,55.963 	"/>
	<polyline fill="#444444" points="117.181,1196.569 166.326,1053.591 314.062,1022.94 412.655,1135.283 363.509,1278.265 
		215.954,1308.748 	"/>
	<polyline fill="#444444" points="-140.209,1106.998 -91.068,964.025 56.667,933.374 155.268,1045.709 106.117,1188.694 
		-41.438,1219.185 	"/>
	<polyline fill="#444444" points="-403.417,1020.606 -354.273,877.632 -206.538,846.979 -107.941,959.316 -157.092,1102.3 
		-304.644,1132.787 	"/>
	<polyline fill="#444444" points="820.593,778.371 773.987,919.106 628.79,947.521 530.192,835.178 576.802,694.435 
		722.183,665.863 	"/>
	<polygon fill="#444444" points="476.325,568.941 525.112,426.281 672.491,395.952 771.087,508.291 722.292,650.957 
		574.923,681.284 	"/>
	<polygon fill="#444444" points="222.829,478.356 269.8,337.292 415.36,308.564 513.946,420.905 466.978,561.959 321.417,590.689 	
		"/>
	<polygon fill="#444444" points="428.354,301.347 475.329,160.288 620.886,131.561 719.479,243.896 672.511,384.962 
		526.954,413.684 	"/>
	<polyline fill="#444444" points="614.142,960.704 567.532,1101.442 422.339,1129.855 323.737,1017.516 370.351,876.773 
		515.728,848.203 	"/>
	<polygon fill="#444444" points="272.304,748.898 321.097,606.233 468.47,575.906 567.062,688.247 518.276,830.912 370.897,861.237 
			"/>
	<polygon fill="#444444" points="-35.148,391.114 13.639,248.449 161.017,218.119 259.608,330.459 210.823,473.121 63.447,503.447 	
		"/>
	<polygon fill="#444444" points="14.936,660.018 63.724,517.352 211.103,487.021 309.698,599.364 260.905,742.027 113.532,772.355 	
		"/>
	<polyline fill="#444444" points="-193.999,839.849 -144.853,696.873 2.882,666.224 101.48,778.561 52.33,921.546 -95.226,952.028 	
		"/>
</g>
</svg>
