<?xml version="1.0" encoding="utf-8"?>
<!-- Generator: Adobe Illustrator 16.0.4, SVG Export Plug-In . SVG Version: 6.00 Build 0)  -->
<!DOCTYPE svg PUBLIC "-//W3C//DTD SVG 1.1//EN" "http://www.w3.org/Graphics/SVG/1.1/DTD/svg11.dtd">
<svg version="1.1" id="Layer_1" xmlns="http://www.w3.org/2000/svg" xmlns:xlink="http://www.w3.org/1999/xlink" x="0px" y="0px"
	 width="489.6px" height="727.2px" viewBox="0 0 489.6 727.2" enable-background="new 0 0 489.6 727.2" xml:space="preserve">
<rect x="-5.262" y="-15.408" fill="#494949" width="571.417" height="767.381"/>
<g id="personalMotivation">
</g>
<g>
	<path fill="#444444" d="M183.184,960.178l48.135-4.166c0.628,1.002,1.35,1.973,2.167,2.879c8.373,9.562,22.976,10.475,32.521,2.062
		c9.555-8.43,10.502-23.061,2.119-32.605c-1.65-1.891-3.535-3.428-5.588-4.635l3.393-52.191c6.51-2.232,11.392-8.227,11.867-15.537
		l0.047-0.699c0.633-9.693-6.703-18.041-16.365-18.646l-9.944-0.621c-5.584-12.158-17.486-20.914-31.75-21.814l-14.868-0.93
		l-0.781,12.006l-2.012-0.129c-12.548-0.783-23.419,8.805-24.237,21.379l-0.37,5.607c-0.817,12.582,8.734,23.453,21.281,24.248
		l2.014,0.121l-0.785,12.02l14.869,0.93c13.529,0.857,25.852-5.578,33.164-15.92l-3.102,47.768c-3.36,0.896-6.563,2.549-9.354,5
		c-3.761,3.318-6.174,7.604-7.228,12.158l-59.713,5.166"/>
	<path fill="#444444" d="M199.474,865.85c-6.763-0.428-11.891-6.283-11.459-13.053l0.361-5.625
		c0.447-6.766,6.297-11.926,13.058-11.502l2.02,0.127l-1.958,30.176L199.474,865.85z"/>
	<polygon fill="#444444" points="174.856,210.756 221.83,69.692 367.386,40.966 465.979,153.307 419.009,294.369 273.448,323.093 	
		"/>
	<polyline fill="#444444" points="68.793,927.284 116.129,785.907 262.048,756.862 360.642,869.2 313.313,1010.583 
		167.567,1039.463 	"/>
	<polyline fill="#444444" points="979.146,326.881 930.724,469.227 783.706,499.235 685.114,386.893 733.54,244.551 
		880.732,214.384 	"/>
	<polyline fill="#444444" points="-244.433,570.446 -195.286,427.467 -47.55,396.815 51.045,509.157 1.899,652.135 
		-145.659,682.625 	"/>
	<polyline fill="#444444" points="-82.629,120.014 -33.481,-22.963 114.255,-53.616 212.849,58.728 163.703,201.708 16.146,232.195 
			"/>
	<polyline fill="#444444" points="630.122,122.991 679.267,-19.985 826.999,-50.636 925.595,61.702 876.45,204.687 728.894,235.172 
			"/>
	<polyline fill="#444444" points="378.415,35.861 427.56,-107.115 575.294,-137.768 673.892,-25.427 624.743,117.556 
		477.188,148.042 	"/>
	<polyline fill="#444444" points="129.426,-56.217 178.573,-199.197 326.308,-229.849 424.903,-117.508 375.755,25.474 
		228.201,55.963 	"/>
	<polyline fill="#444444" points="117.181,1196.569 166.326,1053.59 314.062,1022.94 412.655,1135.284 363.509,1278.264 
		215.954,1308.749 	"/>
	<polyline fill="#444444" points="-140.209,1106.999 -91.068,964.026 56.667,933.374 155.268,1045.709 106.117,1188.694 
		-41.438,1219.186 	"/>
	<polyline fill="#444444" points="-403.417,1020.606 -354.273,877.631 -206.538,846.979 -107.941,959.317 -157.092,1102.299 
		-304.644,1132.788 	"/>
	<polyline fill="#444444" points="820.593,778.372 773.987,919.106 628.79,947.522 530.192,835.178 576.802,694.434 
		722.183,665.864 	"/>
	<polygon fill="#444444" points="476.325,568.942 525.112,426.282 672.491,395.952 771.087,508.292 722.292,650.958 
		574.923,681.284 	"/>
	<polygon fill="#444444" points="222.829,478.356 269.8,337.292 415.36,308.564 513.946,420.905 466.979,561.959 321.417,590.69 	
		"/>
	<polygon fill="#444444" points="428.354,301.347 475.329,160.288 620.886,131.561 719.479,243.896 672.511,384.961 
		526.954,413.684 	"/>
	<polyline fill="#444444" points="614.142,960.704 567.532,1101.442 422.339,1129.856 323.737,1017.516 370.351,876.774 
		515.729,848.204 	"/>
	<polygon fill="#444444" points="272.304,748.899 321.097,606.233 468.47,575.907 567.062,688.247 518.276,830.913 370.897,861.237 
			"/>
	<polygon fill="#444444" points="-35.148,391.114 13.639,248.449 161.017,218.119 259.608,330.459 210.823,473.122 63.447,503.448 	
		"/>
	<polygon fill="#444444" points="14.936,660.018 63.724,517.352 211.103,487.022 309.698,599.364 260.905,742.028 113.532,772.356 	
		"/>
	<polyline fill="#444444" points="-193.999,839.848 -144.853,696.874 2.882,666.223 101.48,778.561 52.33,921.545 -95.226,952.028 	
		"/>
</g>
</svg>
