<?xml version="1.0" encoding="utf-8"?>
<!-- Generator: Adobe Illustrator 16.0.4, SVG Export Plug-In . SVG Version: 6.00 Build 0)  -->
<!DOCTYPE svg PUBLIC "-//W3C//DTD SVG 1.1//EN" "http://www.w3.org/Graphics/SVG/1.1/DTD/svg11.dtd">
<svg version="1.1" xmlns="http://www.w3.org/2000/svg" xmlns:xlink="http://www.w3.org/1999/xlink" x="0px" y="0px" width="864px"
	 height="1296px" viewBox="0 0 864 1296" enable-background="new 0 0 864 1296" xml:space="preserve">
<g id="Layer_1">
	<path fill="#FCFBFA" d="M2108.047,1848.272c7.864-7.366,20.26-6.955,27.625,0.908c7.355,7.857,6.947,20.241-0.919,27.608
		c-7.867,7.362-20.243,6.955-27.598-0.9C2099.791,1868.021,2100.189,1855.637,2108.047,1848.272z"/>
	<path fill="#4F4E4E" stroke="#3F3F3F" stroke-miterlimit="10" d="M2096.416,1849.809c7.002-6.556,18.031-6.191,24.588,0.809
		c6.557,6.992,6.19,18.023-0.812,24.579c-6.988,6.548-18.021,6.193-24.568-0.81
		C2089.059,1867.386,2089.424,1856.367,2096.416,1849.809z"/>
	<rect x="-109.5" y="-143.5" fill="#3A3A3A" stroke="#FFFFFF" stroke-miterlimit="10" width="1143" height="1535"/>
	<path fill="#FCFBFA" d="M-12.292,1433.765l70.175-8.195c0.974,1.438,2.065,2.817,3.293,4.122
		c12.702,13.566,34.083,14.271,47.649,1.561c13.572-12.709,14.27-34.09,1.565-47.654c-2.498-2.672-5.334-4.841-8.38-6.505
		l2.5-76.286c9.422-3.548,16.272-12.493,16.616-23.183l0.035-1.021c0.463-14.166-10.646-26.02-24.807-26.482l-14.572-0.475
		c-8.747-17.475-26.547-29.741-47.448-30.426l-21.774-0.705l-0.579,17.551l-2.943-0.105c-18.383-0.592-33.822,13.87-34.428,32.248
		l-0.27,8.201c-0.6,18.386,13.871,33.828,32.249,34.435l2.946,0.09l-0.579,17.557l21.782,0.711
		c19.812,0.656,37.527-9.271,47.719-24.681l-2.285,69.811c-4.868,1.449-9.479,4.004-13.436,7.705
		c-5.349,5.005-8.685,11.35-10.012,18.044l-87.048,10.164"/>
	<path fill="#FCFBFA" d="M7.085,1295.451c-9.895-0.318-17.68-8.639-17.356-18.529l0.263-8.216
		c0.332-9.895,8.645-17.68,18.545-17.355l2.947,0.097l-1.441,44.1L7.085,1295.451z"/>
	<polygon fill="#3F3F3F" stroke="#3F3F3F" stroke-miterlimit="10" points="-62.255,342.634 -0.228,134.806 211.203,86.508 
		360.624,246.044 298.603,453.871 87.164,502.168 	"/>
	<polyline fill="#3F3F3F" stroke="#3F3F3F" stroke-miterlimit="10" points="-180.225,1386.627 -117.682,1178.315 94.266,1129.543 
		243.687,1289.076 181.155,1497.388 -30.547,1545.92 	"/>
	<polyline fill="#3F3F3F" stroke="#3F3F3F" stroke-miterlimit="10" points="-196.511,1378.991 -134.494,1171.157 -283.911,1011.622 
		-495.348,1059.921 	"/>
	<polyline fill="#3F3F3F" stroke="#3F3F3F" stroke-miterlimit="10" points="1119.551,476.869 1055.466,686.63 841.957,736.859 
		692.539,577.323 756.627,367.565 970.385,317.091 	"/>
	<polyline fill="#3F3F3F" stroke="#3F3F3F" stroke-miterlimit="10" points="-10.097,117.609 -74.183,327.37 -287.691,377.6 
		-437.109,218.063 -373.022,8.305 -159.264,-42.169 	"/>
	<polyline fill="#3F3F3F" stroke="#3F3F3F" stroke-miterlimit="10" points="-649.899,881.501 -584.783,670.783 -370.255,619.584 
		-220.832,779.122 -285.946,989.847 -500.221,1040.797 	"/>
	<polyline fill="#3F3F3F" stroke="#3F3F3F" stroke-miterlimit="10" points="191.183,1501.527 260.873,1292.276 476.464,1245.762 
		622.378,1408.516 552.689,1617.772 337.357,1664.045 	"/>
	<polygon fill="#3F3F3F" stroke="#3F3F3F" stroke-miterlimit="10" points="400.34,847.691 464.943,637.449 678.965,586.734 
		828.388,746.269 763.775,956.515 549.764,1007.229 	"/>
	<polygon fill="#3F3F3F" stroke="#3F3F3F" stroke-miterlimit="10" points="782.34,961.691 846.943,751.449 1060.965,700.734 
		1210.388,860.269 1145.775,1070.515 931.764,1121.229 	"/>
	<polygon fill="#3F3F3F" stroke="#3F3F3F" stroke-miterlimit="10" points="489.34,1235.691 553.943,1025.449 767.965,974.734 
		917.388,1134.269 852.775,1344.515 638.764,1395.229 	"/>
	<polygon fill="#3F3F3F" stroke="#3F3F3F" stroke-miterlimit="10" points="22.983,729.194 85.008,521.367 296.445,473.069 
		445.86,632.604 383.837,840.424 172.4,888.723 	"/>
	<polygon fill="#3F3F3F" stroke="#3F3F3F" stroke-miterlimit="10" points="315.596,462.477 377.625,254.656 589.058,206.359 
		738.479,365.887 676.458,573.722 465.021,622.012 	"/>
	<polygon fill="#3F3F3F" stroke="#3F3F3F" stroke-miterlimit="10" points="-143.255,-45.366 -81.228,-253.194 130.203,-301.492 
		279.624,-141.956 217.603,65.871 6.164,114.168 	"/>
	<polyline fill="#3F3F3F" stroke="#3F3F3F" stroke-miterlimit="10" points="1027.326,86.913 968.144,298.11 755.862,353.298 
		602.77,197.285 661.955,-13.909 874.479,-69.347 	"/>
	<polyline fill="#3F3F3F" stroke="#3F3F3F" stroke-miterlimit="10" points="649.923,-23.608 591.614,184.468 382.47,238.84 
		231.639,85.132 289.95,-122.941 499.334,-177.56 	"/>
	<polygon fill="#3F3F3F" stroke="#3F3F3F" stroke-miterlimit="10" points="108.377,1117.641 172.989,907.397 387.001,856.685 
		536.425,1016.221 471.819,1226.464 257.8,1277.178 	"/>
	<polygon fill="#3F3F3F" stroke="#3F3F3F" stroke-miterlimit="10" points="-357.866,610.34 -293.263,400.098 -79.243,349.384 
		70.179,508.919 5.575,719.163 -208.445,769.877 	"/>
	<polygon fill="#3F3F3F" stroke="#3F3F3F" stroke-miterlimit="10" points="-271.539,998.293 -206.934,788.048 7.087,737.333 
		156.51,896.871 91.898,1107.114 -122.113,1157.827 	"/>
	<g>
		<g>
			<g>
				<polygon fill="#DD8114" points="1802.149,289.243 1789.934,327.815 1886.896,327.815 1886.896,252.925 1789.934,252.925 				"/>
			</g>
		</g>
		<g>
			<polygon fill="#9E5C0E" points="1887.416,327.89 1826.551,292.553 1852.664,247.574 1887.355,275.138 			"/>
		</g>
		<g>
			<g>
				<polygon fill="#DD8114" points="2352.161,289.243 2363.558,327.815 2266.595,327.815 2266.595,252.925 2363.558,252.925 				"/>
			</g>
		</g>
		<g>
			<polygon fill="#9E5C0E" points="2266.079,327.89 2326.943,292.553 2300.825,247.574 2266.129,275.138 			"/>
		</g>
		<g>
			<g>
				<rect x="1826.397" y="217.559" fill="#F29111" width="499.955" height="74.896"/>
			</g>
		</g>
		<rect x="1752.321" y="234.471" fill="none" width="648.764" height="47.386"/>
		<text transform="matrix(1 0 0 1 1874.9932 265.8613)" fill="#FCFCFC" font-family="'CenturyGothic-Bold'" font-size="42.6474">Personal Motivation</text>
	</g>
	<g>
		<path fill="#F29111" d="M1801.67-81.18c4.697,0,8.707,1.668,12.02,4.985c3.318,3.341,4.994,7.371,4.994,12.083
			c0,4.614-1.676,8.572-4.994,11.909c-3.312,3.331-7.322,5.003-12.02,5.003c-4.582,0-8.548-1.672-11.865-5.003
			c-3.318-3.337-4.986-7.295-4.986-11.909c0-4.713,1.668-8.743,4.986-12.083C1793.122-79.512,1797.088-81.18,1801.67-81.18z
			 M1791.449-15.26h20.604v160.117h-20.604V-15.26z"/>
		<path fill="#F29111" d="M1839.012-15.26h20.596v28.69c8.248-10.984,17.386-19.206,27.392-24.661
			c10.011-5.417,20.88-8.142,32.652-8.142c11.975,0,22.583,3.032,31.882,9.098c9.26,6.115,16.111,14.291,20.509,24.595
			c4.429,10.295,6.632,26.346,6.632,48.126v82.41h-20.609V68.475c0-18.455-0.773-30.754-2.286-36.949
			c-2.388-10.597-6.972-18.558-13.739-23.921c-6.775-5.33-15.603-8.006-26.484-8.006c-12.479,0-23.63,4.117-33.479,12.364
			c-9.884,8.239-16.385,18.446-19.524,30.607c-1.951,7.944-2.944,22.479-2.944,43.564v58.723h-20.596V-15.26z"/>
		<path fill="#F4F3F2" d="M2087.451,2.25l-13.23,13.695c-11.027-10.694-21.791-16.051-32.316-16.051
			c-6.691,0-12.42,2.196-17.19,6.629c-4.77,4.397-7.163,9.557-7.163,15.439c0,5.205,1.977,10.152,5.891,14.857
			c3.937,4.823,12.213,10.46,24.785,16.934c15.334,7.944,25.764,15.598,31.26,22.961c5.419,7.447,8.124,15.841,8.124,25.173
			c0,13.134-4.618,24.27-13.854,33.393c-9.243,9.127-20.791,13.691-34.637,13.691c-9.236,0-18.062-2.01-26.459-6.041
			c-8.395-4.023-15.371-9.568-20.851-16.632l12.944-14.72c10.525,11.884,21.688,17.819,33.484,17.819
			c8.26,0,15.294-2.654,21.08-7.949c5.811-5.301,8.707-11.527,8.707-18.697c0-5.886-1.92-11.125-5.729-15.743
			c-3.841-4.504-12.508-10.195-25.971-17.07c-14.461-7.452-24.289-14.81-29.482-22.073c-5.226-7.266-7.836-15.533-7.836-24.864
			c0-12.178,4.162-22.272,12.459-30.333c8.311-8.02,18.795-12.043,31.479-12.043C2057.679-19.373,2072.516-12.179,2087.451,2.25z"/>
		<path fill="#F4F3F2" d="M2108.394-15.26H2129v29.436c8.108-11.189,17.489-19.582,28.067-25.175
			c10.597-5.587,22.402-8.373,35.448-8.373c22.717,0,42.181,8.178,58.35,24.568c16.171,16.381,24.258,36.107,24.258,59.156
			c0,23.549-8.006,43.543-24.042,59.961c-16.016,16.444-35.342,24.661-57.984,24.661c-12.764,0-24.471-2.655-35.147-7.957
			c-10.669-5.303-20.337-13.183-28.949-23.689v86.084h-20.606V-15.26z M2190.809,0.482c-17.815,0-32.828,6.227-45.018,18.667
			c-12.179,12.441-18.284,27.926-18.284,46.455c0,12.148,2.727,23.084,8.154,32.778c5.441,9.701,13.228,17.383,23.36,23.082
			c10.13,5.673,20.823,8.523,32.067,8.523c11.053,0,21.465-2.866,31.196-8.597c9.764-5.732,17.511-13.741,23.28-24.032
			c5.787-10.28,8.659-21.065,8.659-32.346c0-11.368-2.863-22.151-8.579-32.343c-5.731-10.192-13.454-18.092-23.145-23.729
			C2212.817,3.303,2202.237,0.482,2190.809,0.482z"/>
		<path fill="#F4F3F2" d="M2304.964-81.18c4.689,0,8.685,1.668,11.997,4.985c3.321,3.341,4.984,7.371,4.984,12.083
			c0,4.614-1.663,8.572-4.984,11.909c-3.312,3.331-7.308,5.003-11.997,5.003c-4.6,0-8.556-1.672-11.884-5.003
			c-3.314-3.337-4.979-7.295-4.979-11.909c0-4.713,1.665-8.743,4.979-12.083C2296.408-79.512,2300.364-81.18,2304.964-81.18z
			 M2294.72-15.26h20.601v160.117h-20.601V-15.26z"/>
		<path fill="#F4F3F2" d="M2294.849-17.333h21.031V6.072c6.275-9.214,12.895-16.126,19.857-20.679
			c6.969-4.559,14.22-6.843,21.782-6.843c5.699,0,11.774,1.822,18.249,5.455l-10.731,17.363c-4.323-1.858-7.955-2.8-10.894-2.8
			c-6.876,0-13.493,2.812-19.865,8.451c-6.377,5.657-11.235,14.413-14.572,26.276c-2.561,9.137-3.826,27.571-3.826,55.334v54.158
			h-21.031V-17.333z"/>
		<path fill="#F4F3F2" d="M2511.051,89.66l17.356,9.124c-5.696,11.189-12.268,20.217-19.732,27.082
			c-7.458,6.876-15.864,12.082-25.188,15.679c-9.323,3.578-19.889,5.36-31.661,5.36c-26.129,0-46.558-8.552-61.286-25.684
			c-14.724-17.106-22.086-36.469-22.086-58.045c0-20.312,6.226-38.402,18.701-54.293c15.814-20.219,36.974-30.332,63.474-30.332
			c27.321,0,49.098,10.355,65.409,31.055c11.588,14.626,17.469,32.875,17.68,54.747h-144.074
			c0.371,18.601,6.321,33.844,17.815,45.743c11.499,11.886,25.681,17.828,42.585,17.828c8.162,0,16.093-1.407,23.809-4.258
			c7.7-2.816,14.253-6.594,19.654-11.276C2498.926,107.699,2504.763,100.12,2511.051,89.66z M2511.051,46.554
			c-2.746-11.002-6.754-19.767-12.005-26.352c-5.265-6.567-12.205-11.87-20.849-15.898c-8.651-4.007-17.741-6.022-27.266-6.022
			c-15.712,0-29.218,5.05-40.526,15.148c-8.244,7.364-14.486,18.404-18.713,33.124H2511.051z"/>
	</g>
</g>
<g id="personalMotivation">
</g>
<g id="inspire">
</g>
</svg>
