<?xml version="1.0" encoding="utf-8"?>
<!-- Generator: Adobe Illustrator 16.0.4, SVG Export Plug-In . SVG Version: 6.00 Build 0)  -->
<!DOCTYPE svg PUBLIC "-//W3C//DTD SVG 1.1//EN" "http://www.w3.org/Graphics/SVG/1.1/DTD/svg11.dtd">
<svg version="1.1" id="Layer_1" xmlns="http://www.w3.org/2000/svg" xmlns:xlink="http://www.w3.org/1999/xlink" x="0px" y="0px"
	 width="489.6px" height="727.2px" viewBox="0 0 489.6 727.2" enable-background="new 0 0 489.6 727.2" xml:space="preserve">
<rect x="-5.262" y="-15.408" fill="#DBAF00" width="571.414" height="767.381"/>
<g id="personalMotivation">
</g>
<path fill="#FCFBFA" d="M281.864,660.176l30.168-16.143c0.689,0.477,1.429,0.906,2.214,1.273c8.118,3.883,17.877,0.406,21.743-7.736
	c3.867-8.152,0.402-17.939-7.719-21.814c-1.599-0.77-3.258-1.244-4.928-1.457l-12.354-34.918c3.617-3.271,5.121-8.533,3.39-13.426
	l-0.165-0.467c-2.294-6.486-9.396-9.873-15.855-7.572l-6.648,2.371c-7.027-6.352-17.217-8.734-26.753-5.34l-9.938,3.543l2.842,8.033
	L256.515,567c-8.387,2.992-12.788,12.266-9.812,20.678l1.325,3.754c2.979,8.418,12.229,12.83,20.617,9.846l1.344-0.482l2.843,8.041
	l9.938-3.543c9.045-3.217,15.271-10.844,17.145-19.615l11.309,31.957c-1.938,1.521-3.562,3.488-4.695,5.863
	c-1.521,3.211-1.899,6.672-1.314,9.932l-37.425,20.023"/>
<path fill="#FCFBFA" d="M266.147,594.233c-4.519,1.609-9.492-0.771-11.098-5.299l-1.335-3.762c-1.597-4.529,0.771-9.52,5.29-11.131
	l1.348-0.48l7.146,20.188L266.147,594.233z"/>
<polygon fill="#C99709" points="67.339,174.701 58.554,69.776 145.281,10.465 240.8,56.078 249.587,161 162.857,220.312 "/>
<polyline fill="#C99709" points="198.229,670.682 189.592,565.452 276.468,505.833 371.985,551.444 380.628,656.674 
	293.821,716.141 "/>
<polyline fill="#C99709" points="623.252,25.873 631.451,132.037 544.13,192.589 448.61,146.976 440.415,40.814 527.806,-19.892 "/>
<polyline fill="#C99709" points="-105.216,525.813 -113.12,419.036 -25.511,357.863 70.01,403.475 77.915,510.254 -9.623,571.272 
	"/>
<polyline fill="#C99709" points="-125.577,187.48 -133.481,80.703 -45.872,19.53 49.649,65.145 57.554,171.923 -29.985,232.939 "/>
<polyline fill="#C99709" points="339.183,-9.454 331.278,-116.229 418.885,-177.401 514.405,-131.79 522.312,-25.009 
	434.774,36.005 "/>
<polyline fill="#C99709" points="151.035,4.065 143.131,-102.711 230.738,-163.884 326.261,-118.272 334.166,-11.491 
	246.628,49.524 "/>
<polyline fill="#C99709" points="-36.723,13.604 -44.628,-93.175 42.98,-154.347 138.502,-108.735 146.406,-1.954 58.87,59.062 "/>
<polyline fill="#C99709" points="304.86,832.459 296.955,725.682 384.563,664.51 480.085,710.124 487.989,816.905 400.452,877.917 
	"/>
<polyline fill="#C99709" points="112.333,845.975 104.427,739.202 192.035,678.03 287.558,723.637 295.462,830.42 207.925,891.438 
	"/>
<polyline fill="#C99709" points="-83.094,863.182 -90.999,756.409 -3.391,695.235 92.13,740.844 100.033,847.627 12.498,908.641 "/>
<polyline fill="#C99709" points="646.025,363.986 654.957,468.596 568.378,527.604 472.854,481.991 463.923,377.375 
	550.578,318.214 "/>
<polygon fill="#C99709" points="363.506,323.728 355.456,217.257 442.923,156.394 538.443,202.005 546.489,308.48 459.028,369.34 
	"/>
<polygon fill="#C99709" points="173.229,335.496 164.443,230.572 251.173,171.259 346.688,216.873 355.474,321.791 268.744,381.106 
	"/>
<polygon fill="#C99709" points="257.617,162.935 248.835,58.013 335.562,-1.299 431.081,44.311 439.869,149.236 353.14,208.544 "/>
<g id="_x39__2_">
	<path fill="#DBAF00" d="M301.332,625.106c0.096-0.201,4.812-10.143,4.905-10.344c-0.198-0.094-37.271-17.799-37.469-17.893
		c-0.098,0.201-4.812,10.141-4.908,10.344C264.058,607.305,301.131,625.008,301.332,625.106z"/>
	<path fill="#DBAF00" d="M236.499,598.245c0.096-0.197,7.981-16.824,8.082-17.023c-0.186-0.086-3.205-1.525-3.389-1.613
		c-0.095,0.197-7.985,16.82-8.081,17.023C233.299,596.717,236.318,598.159,236.499,598.245z"/>
	<path fill="#DBAF00" d="M333.606,623.731c-0.102,0.199-7.987,16.822-8.088,17.023c0.188,0.086,3.195,1.525,3.391,1.617
		c0.236-0.5,7.984-16.85,8.072-17.027C336.799,625.256,333.786,623.823,333.606,623.731z"/>
	<path fill="#DBAF00" d="M230.031,588.625c0.065-0.248,1.736-7.098,1.787-7.271c-0.152-0.074-2.58-1.234-2.808-1.342
		c-0.062,0.264-1.735,7.104-1.78,7.275C227.382,587.36,229.812,588.522,230.031,588.625z"/>
	<path fill="#DBAF00" d="M236.975,583.817c-0.183-0.092-3.087-1.477-3.318-1.592c-0.062,0.266-1.736,7.105-1.772,7.283
		c0.142,0.066,1.772,0.85,1.948,0.932C233.924,590.249,236.88,584.018,236.975,583.817z"/>
	<path fill="#DBAF00" d="M220.744,584.19c0.064-0.26,1.732-7.105,1.781-7.275c-0.149-0.068-1.728-0.822-1.904-0.908
		c-0.1,0.201-3.055,6.428-3.146,6.623C217.664,582.715,220.523,584.083,220.744,584.19z"/>
	<path fill="#DBAF00" d="M225.391,586.409c0.064-0.25,1.73-7.102,1.782-7.275c-0.155-0.072-2.583-1.229-2.808-1.338
		c-0.065,0.258-1.73,7.105-1.775,7.275C222.742,585.141,225.173,586.303,225.391,586.409z"/>
	<path fill="#DBAF00" d="M336.382,631.284c-0.096,0.203-3.053,6.434-3.146,6.623c0.188,0.09,3.052,1.459,3.276,1.561
		c0.056-0.252,1.733-7.1,1.776-7.27C338.14,632.125,336.563,631.37,336.382,631.284z"/>
	<path fill="#DBAF00" d="M344.782,635.292c-0.072,0.268-1.741,7.098-1.786,7.279c0.149,0.068,2.582,1.229,2.804,1.334
		c0.064-0.254,1.734-7.1,1.778-7.279C347.429,636.557,345.002,635.399,344.782,635.292z"/>
	<path fill="#DBAF00" d="M349.42,637.504c-0.067,0.273-1.729,7.105-1.774,7.279c0.145,0.062,1.774,0.852,1.951,0.934
		c0.096-0.189,3.049-6.42,3.146-6.625C352.556,639.006,349.649,637.62,349.42,637.504z"/>
	<path fill="#DBAF00" d="M340.128,633.071c-0.066,0.27-1.729,7.104-1.775,7.277c0.146,0.068,2.58,1.23,2.806,1.342
		c0.062-0.258,1.731-7.105,1.776-7.277C342.783,634.338,340.356,633.18,340.128,633.071z"/>
	<path fill="#DBAF00" d="M251.294,629.036c0.096-0.203,26.341-55.508,26.438-55.715c-0.194-0.098-11.097-5.297-11.287-5.393
		c-0.053,0.105-26.354,55.52-26.441,55.713C240.198,623.739,251.088,628.94,251.294,629.036z"/>
	<path fill="#DBAF00" d="M242.252,614.225c0.096-0.197,18.229-38.404,18.321-38.604c-0.197-0.094-8.871-4.232-9.064-4.328
		c-0.093,0.199-18.228,38.404-18.322,38.604C233.381,609.993,242.065,614.135,242.252,614.225z"/>
	<path fill="#DBAF00" d="M318.813,592.94c-0.099,0.205-26.344,55.512-26.438,55.717c0.192,0.092,11.09,5.293,11.289,5.391
		c0.093-0.189,26.379-55.588,26.438-55.717C329.909,598.237,319.009,593.034,318.813,592.94z"/>
	<path fill="#DBAF00" d="M327.851,607.747c-0.096,0.199-18.229,38.404-18.32,38.604c0.191,0.096,8.867,4.232,9.068,4.33
		c0.092-0.191,18.229-38.4,18.319-38.604C336.726,611.983,328.045,607.838,327.851,607.747z"/>
</g>
<g id="_x36__2_">
	<path fill="#DBAF00" d="M164.447,137.308c-0.127-0.059-0.261-0.115-0.392-0.178l17.415-36.697l27.712-4.783l-16.36-19.135
		l0.672-1.417l-3.067-1.464l-29.483,62.127c-12.014-4.99-25.09-6.705-28.119-0.324c-3.324,7.008,8.537,17.305,21.39,23.441
		c12.845,6.137,28.293,8.875,31.619,1.871C189.154,153.742,177.293,143.443,164.447,137.308z M155.675,155.798
		c-13.416-6.404-21.503-15.252-19.774-18.895c1.574-3.314,11.649-2.994,23.582,1.936l-3.607,7.602l3.066,1.465l3.652-7.695
		c0.131,0.064,0.261,0.115,0.393,0.178c13.402,6.4,21.494,15.252,19.771,18.891C181.029,162.919,169.078,162.199,155.675,155.798z"
		/>
	<path fill="#DBAF00" d="M107.863,123.515c-8.694-4.148-19.1-0.439-23.237,8.275c-4.143,8.73-0.451,19.162,8.243,23.314
		c8.703,4.154,19.103,0.453,23.246-8.273C120.254,138.111,116.562,127.671,107.863,123.515z"/>
</g>
<g id="_x36__1_">
	<path fill="#DBAF00" d="M-9.784,486.583c-0.126-0.059-0.259-0.113-0.391-0.178L7.24,449.708l27.712-4.781L18.593,425.79
		l0.671-1.416l-3.067-1.465l-29.484,62.127c-12.014-4.99-25.088-6.705-28.118-0.322c-3.325,7.008,8.537,17.305,21.389,23.439
		c12.844,6.137,28.292,8.875,31.619,1.871C14.922,503.016,3.062,492.717-9.784,486.583z M-18.556,505.073
		c-13.416-6.4-21.502-15.25-19.775-18.893c1.576-3.314,11.651-2.992,23.581,1.936l-3.606,7.604l3.067,1.465l3.652-7.691
		c0.131,0.061,0.26,0.109,0.393,0.178c13.402,6.4,21.494,15.252,19.77,18.891C6.797,512.198-5.153,511.473-18.556,505.073z"/>
	<path fill="#DBAF00" d="M-66.368,472.792c-8.694-4.148-19.099-0.439-23.237,8.277c-4.142,8.729-0.451,19.158,8.243,23.311
		c8.703,4.152,19.103,0.451,23.247-8.27C-53.978,487.387-57.67,476.948-66.368,472.792z"/>
</g>
<g id="_x32_1_2_">
	<path fill="#DBAF00" d="M603.795,412.655c4.96,2.369,10.917,0.246,13.276-4.725c2.36-4.98,0.246-10.947-4.721-13.318
		c-4.951-2.363-10.911-0.254-13.272,4.729C596.72,404.307,598.84,410.292,603.795,412.655z"/>
	<path fill="#DBAF00" d="M619.431,428.247c-0.499-1.846-1.677-3.396-3.33-4.354c-1.648-0.959-3.573-1.213-5.421-0.719
		c0,0-11.3,3.037-14.084,3.779c-0.112-1.588-0.44-5.705-0.691-9.021c1.516-2.551,1.979-5.512,0.979-8.26
		c-0.243-0.689-0.588-1.332-0.984-1.92l0.046-0.02l-0.188-0.16c-0.82-1.15-1.908-2.082-3.167-2.781l-13.659-11.988l0.104,0.096
		l-1.358-1.041c0.151,0.104-2.702-1.312-2.702-1.312l-21.312-5.25c-1.896-0.463-3.896-0.152-5.492,0.844
		c-1.513,0.947-2.542,2.418-2.912,4.146c-0.773,3.648,1.673,7.373,5.459,8.309c0,0,18.948,4.666,19.604,4.822
		c0.206,0.174,2.043,1.709,4.174,3.494l-6.954,2.539l6.523,19.561l8.136-2.979l0.803,10.311c0.298,3.939,3.739,6.881,7.658,6.59
		c0.017-0.023,2.462-0.189,2.462-0.189l21.259-5.717c1.854-0.488,3.393-1.678,4.35-3.332c0.097-0.176,0.186-0.346,0.27-0.518
		C619.716,431.631,619.873,429.909,619.431,428.247z"/>
	<path fill="#DBAF00" d="M576.39,449.782l-6.991-19.045l1.104-0.406l-2.187-6.543l-0.646-1.945l-2.037-6.121l-0.688-2.062
		l-0.973-2.881l-3.045,1.115c-1.104,0.41-2.078,0.967-3.001,1.576l-62.13,10.705c-4.658,0.799-7.901,4.688-7.229,8.65
		c0.684,3.979,5.029,6.561,9.686,5.77l55.084-9.496c2.042,5.326,6.719,17.58,7.439,19.445c-2.365,1.057-24.962,11.211-24.962,11.211
		c-2.568,1.184-4.104,2.574-5.028,4.531c-0.489,1.027-0.842,2.684-0.562,3.871c0,0,0.909,8.717,11.527,4.938l28.479-12.611
		c5.606-2.52,7.282-5.387,6.171-10.594L576.39,449.782z"/>
</g>
<g>
	<path fill="#DBAF00" d="M398.426,123.335l-90.733-43.326l11.769-24.792c1.419-2.995,0.041-6.632-3.078-8.121
		c-3.108-1.487-6.796-0.268-8.22,2.727l-26.699,56.262c-1.424,3-0.046,6.637,3.064,8.123c3.123,1.488,6.805,0.268,8.229-2.73
		l1.291-2.713l85.088,40.629l-1.292,2.713c-1.425,3.002-0.045,6.637,3.074,8.125c3.114,1.488,6.801,0.268,8.22-2.729l12.361-26.049
		C402.922,128.458,401.54,124.824,398.426,123.335z M382.28,142.763c-1.684-2.137-3.562-2.832-6.549-2.516
		c-5.17,0.541-10.564-2.039-13.402-6.404c-1.864-2.865-3.814-3.799-7.205-3.439c-5.175,0.541-10.566-2.033-13.41-6.402
		c-1.859-2.865-3.818-3.801-7.207-3.443c-5.174,0.543-10.564-2.031-13.408-6.4c-1.854-2.865-3.812-3.797-7.209-3.443
		c-5.168,0.543-10.562-2.033-13.404-6.398c-0.908-1.396-1.851-2.32-2.967-2.871l1.029-2.176c1.534,0.746,2.844,1.984,4.018,3.793
		c2.33,3.58,6.748,5.686,10.979,5.244c4.358-0.457,7.241,0.916,9.63,4.596c2.335,3.582,6.749,5.688,10.985,5.248
		c4.356-0.457,7.231,0.916,9.63,4.6c2.328,3.574,6.745,5.684,10.982,5.244c4.355-0.459,7.235,0.918,9.627,4.598
		c2.328,3.578,6.744,5.684,10.979,5.246c3.419-0.359,5.922,0.441,8.008,2.582l-1.115,2.342L382.28,142.763z"/>
	<path fill="#DBAF00" d="M315.808,67.225l-5.803,12.226l12.363,5.902c5.117-1.699,7.719-7.174,5.8-12.23
		C326.256,68.067,320.924,65.521,315.808,67.225z"/>
</g>
<text transform="matrix(0.9006 0.4301 -0.4288 0.9034 516.6631 17.5767)" fill="#353535" font-family="'CenturyGothic-Bold'" font-size="27.4404">12</text>
<text transform="matrix(0.9006 0.4301 -0.4288 0.9034 -60.1465 65.9048)" fill="#DBAF00" font-family="'CenturyGothic-Bold'" font-size="27.4404">12</text>
<text transform="matrix(0.9006 0.4301 -0.4288 0.9034 529.0029 365.4106)" fill="#353535" font-family="'CenturyGothic-Bold'" font-size="27.4404">19</text>
<polyline fill="#C99709" points="562.521,540.272 571.452,644.883 484.873,703.889 389.349,658.28 380.419,553.665 467.073,494.504 
	"/>
<g id="_x32_1_1_">
	<path fill="#DBAF00" d="M520.287,588.944c4.962,2.371,10.92,0.246,13.278-4.725c2.363-4.982,0.247-10.951-4.721-13.32
		c-4.948-2.363-10.912-0.254-13.273,4.729C513.214,580.596,515.333,586.577,520.287,588.944z"/>
	<path fill="#DBAF00" d="M535.926,604.536c-0.5-1.846-1.678-3.396-3.328-4.352c-1.651-0.963-3.578-1.215-5.423-0.725
		c0,0-11.301,3.041-14.083,3.783c-0.118-1.592-0.443-5.705-0.691-9.021c1.513-2.551,1.979-5.514,0.979-8.264
		c-0.245-0.688-0.588-1.33-0.982-1.92l0.037-0.018l-0.187-0.156c-0.819-1.154-1.909-2.084-3.167-2.783l-13.659-11.988l0.104,0.096
		l-1.357-1.041c0.149,0.104-2.701-1.312-2.701-1.312l-21.312-5.252c-1.898-0.463-3.896-0.152-5.493,0.844
		c-1.514,0.947-2.542,2.42-2.912,4.146c-0.777,3.65,1.67,7.373,5.457,8.311c0,0,18.951,4.664,19.604,4.822
		c0.204,0.174,2.045,1.705,4.176,3.494l-6.957,2.539l6.523,19.561l8.137-2.979l0.801,10.307c0.301,3.939,3.741,6.885,7.662,6.59
		c0.016-0.021,2.463-0.189,2.463-0.189l21.26-5.715c1.85-0.49,3.389-1.68,4.345-3.332c0.1-0.172,0.187-0.344,0.27-0.518
		C536.21,607.92,536.368,606.198,535.926,604.536z"/>
	<path fill="#DBAF00" d="M492.886,626.073l-6.998-19.047l1.109-0.408l-2.188-6.541l-0.644-1.947l-2.036-6.119l-0.688-2.064
		l-0.971-2.885l-3.047,1.121c-1.104,0.408-2.077,0.963-3.001,1.576l-62.131,10.703c-4.655,0.801-7.902,4.686-7.229,8.652
		c0.688,3.979,5.033,6.561,9.688,5.77l55.083-9.496c2.042,5.324,6.721,17.584,7.438,19.445
		c-2.361,1.059-24.959,11.209-24.959,11.209c-2.566,1.188-4.102,2.576-5.028,4.533c-0.489,1.025-0.842,2.686-0.562,3.871
		c0,0,0.91,8.719,11.53,4.938l28.479-12.615c5.606-2.518,7.28-5.385,6.171-10.59L492.886,626.073z"/>
</g>
<g id="_x32_1_3_">
	<path fill="#DBAF00" d="M299.3,262.529c4.961,2.371,10.92,0.246,13.279-4.723c2.363-4.984,0.246-10.951-4.721-13.322
		c-4.947-2.363-10.91-0.252-13.273,4.73C292.226,254.183,294.345,260.162,299.3,262.529z"/>
	<path fill="#DBAF00" d="M314.938,278.121c-0.5-1.846-1.681-3.395-3.328-4.35c-1.653-0.963-3.58-1.215-5.424-0.723
		c0,0-11.304,3.039-14.082,3.781c-0.119-1.592-0.446-5.705-0.694-9.02c1.512-2.551,1.979-5.514,0.979-8.264
		c-0.246-0.688-0.591-1.33-0.984-1.92l0.039-0.018l-0.188-0.156c-0.817-1.154-1.907-2.084-3.166-2.783l-13.659-11.988l0.104,0.094
		l-1.358-1.041c0.15,0.104-2.699-1.311-2.699-1.311l-21.312-5.252c-1.897-0.463-3.894-0.152-5.493,0.844
		c-1.513,0.947-2.542,2.42-2.912,4.145c-0.777,3.652,1.67,7.373,5.457,8.311c0,0,18.951,4.664,19.604,4.822
		c0.204,0.174,2.044,1.705,4.176,3.494l-6.957,2.539l6.524,19.562l8.135-2.979l0.8,10.307c0.301,3.938,3.74,6.885,7.664,6.59
		c0.014-0.025,2.461-0.193,2.461-0.193l21.26-5.715c1.851-0.49,3.39-1.676,4.347-3.332c0.099-0.172,0.187-0.34,0.269-0.514
		C315.222,281.507,315.38,279.783,314.938,278.121z"/>
	<path fill="#DBAF00" d="M271.897,299.658l-6.998-19.047l1.106-0.408l-2.187-6.541l-0.646-1.947l-2.034-6.119l-0.688-2.068
		l-0.972-2.881l-3.047,1.121c-1.104,0.408-2.076,0.963-3,1.576l-62.129,10.703c-4.654,0.801-7.902,4.686-7.23,8.652
		c0.688,3.98,5.035,6.562,9.688,5.77l55.083-9.496c2.04,5.324,6.721,17.584,7.438,19.445c-2.363,1.059-24.96,11.209-24.96,11.209
		c-2.567,1.188-4.1,2.576-5.029,4.533c-0.489,1.027-0.842,2.686-0.561,3.871c0,0,0.91,8.719,11.53,4.938l28.479-12.612
		c5.605-2.519,7.279-5.386,6.169-10.59L271.897,299.658z"/>
</g>
<text transform="matrix(0.9006 0.4301 -0.4288 0.9034 461.499 535.6997)" fill="#353535" font-family="'CenturyGothic-Bold'" font-size="27.4404">19</text>
<text transform="matrix(0.9006 0.4301 -0.4288 0.9034 136.9844 47.8579)" fill="#DBAF00" font-family="'CenturyGothic-Bold'" font-size="27.4404">9</text>
<text transform="matrix(0.9006 0.4301 -0.4288 0.9034 240.7524 207.8149)" fill="#DBAF00" font-family="'CenturyGothic-Bold'" font-size="24.0104">8</text>
<text transform="matrix(0.9006 0.4301 -0.4288 0.9034 431.3857 189.2817)" fill="#DBAF00" font-family="'CenturyGothic-Bold'" font-size="24.0104">10</text>
<polygon fill="#C99709" points="280.921,497.788 272.873,391.313 360.336,330.453 455.855,376.065 463.907,482.538 376.44,543.399 
	"/>
<text transform="matrix(0.9006 0.4301 -0.4288 0.9034 350.501 359.7158)" fill="#DBAF00" font-family="'CenturyGothic-Bold'" font-size="24.0104">6</text>
<polygon fill="#C99709" points="-19.03,350.691 -27.081,244.218 60.385,183.355 155.904,228.968 163.955,335.439 76.489,396.299 "/>
<polygon fill="#C99709" points="88.6,511.747 80.55,405.272 168.016,344.408 263.537,390.022 271.583,496.495 184.121,557.356 "/>
<text transform="matrix(0.9006 0.4301 -0.4288 0.9034 325.2002 29.8872)" fill="#DBAF00" font-family="'CenturyGothic-Bold'" font-size="24.0104">24</text>
<text transform="matrix(0.9006 0.4301 -0.4288 0.9034 53.4321 217.8608)" fill="#DBAF00" font-family="'CenturyGothic-Bold'" font-size="24.0104">7</text>
<text transform="matrix(0.9006 0.4301 -0.4288 0.9034 158.4058 375.3647)" fill="#DBAF00" font-family="'CenturyGothic-Bold'" font-size="24.0104">3</text>
<text transform="matrix(0.9006 0.4301 -0.4288 0.9034 -28.3096 390.1001)" fill="#353535" font-family="'CenturyGothic-Bold'" font-size="24.0104">1</text>
<text transform="matrix(0.9006 0.4301 -0.4288 0.9034 266.0957 532.9497)" fill="#DBAF00" font-family="'CenturyGothic-Bold'" font-size="24.0104">1</text>
<polyline fill="#C99709" points="2.781,687.096 -5.123,580.319 82.486,519.149 178.007,564.758 185.912,671.542 98.373,732.553 "/>
<text transform="matrix(0.9006 0.4301 -0.4288 0.9034 77.4966 553.5786)" fill="#DBAF00" font-family="'CenturyGothic-Bold'" font-size="24.0104">1</text>
<g>
	<path fill="#DBAF00" d="M408.513,424.661c2.42-0.74,4.889-0.012,6.181,1.684l0.479-0.166c2.232-2.045,5.424-3.961,9.23-5.312
		c3.812-1.355,7.488-1.893,10.513-1.723c0,0,0.731-0.258,1.638-0.576c0.91-0.326,1.192-1.877,0.627-3.475l-3.309-9.354
		c-0.562-1.588-1.745-2.613-2.643-2.299l-1.63,0.576c-2.229,2.055-5.438,3.98-9.27,5.354c-3.823,1.357-7.521,1.889-10.55,1.713
		l-0.34,0.109c0.267,2.258-1.244,4.576-3.729,5.592l-25.015,8.824c-0.715-0.398-1.607-1.562-2.021-4.771
		c-0.744-5.742-6.148-11.391-16.062-4.535c-9.917,6.855-6.156,10.572-22.472,4.982l-0.007,0.012
		c-5.599-2.303-11.771-2.686-17.593-0.605c-13.812,4.92-20.484,21.729-14.896,37.531c5.604,15.812,21.338,24.641,35.15,19.725
		c0.25-0.096,0.49-0.191,0.737-0.287v0.002c0,0,0.093-0.031,0.254-0.105c1.14-0.465,2.228-1.01,3.255-1.635
		c4.037-2.283,10.402-6.805,12.691-13.613c3.451-10.277,12.322-5.504,17.25-6.145c4.929-0.646,7.263-2.123,8.531-4.518
		c0,0-5.992,1.023-8.141-5.051c-1.729-4.873,2.409-9.807,5.241-12.105L408.513,424.661z"/>
</g>
<path fill="#DBAF00" d="M80.013,266.835c3.003-2.625,23.306-20.73,23.306-20.73l-0.041-0.127l-0.112-0.07L82.52,260.275
	c0,0-0.324,0.23-0.562-0.076c-0.237-0.311,0.076-0.553,0.076-0.553l18.982-16.508l-0.042-0.141l-0.122-0.074l-20.683,14.289
	c0,0-0.324,0.24-0.542-0.037c-0.217-0.287,0.092-0.551,0.092-0.551l19.014-16.457l-0.046-0.131l-0.122-0.082L77.842,254.21
	c0,0-0.323,0.229-0.55-0.074c-0.23-0.295,0.067-0.562,0.067-0.562l19.077-16.406l-0.045-0.127l-0.107-0.072
	c0,0-22.593,15.133-25.892,17.377c-0.312,0.213-0.378,0.512-0.254,0.854c0.418,1.168,0.939,4.311-1.408,8.314
	c-2.339,4.229-46.122,33.318-55.729,39.461c-2.39,1.523-4.875,4.84-4.583,9.355l0,0c4.282,1.428,8.112-0.148,10.185-2.084
	c8.353-7.77,47.476-42.914,52.147-44.113c4.458-1.264,7.354,0.037,8.376,0.74C79.425,267.078,79.733,267.089,80.013,266.835z
	 M13.848,303.427c1.873-1.195,2.57-1.418,2.57-1.418s-3.078,1.973-4.334,3.477c-1.121,1.262-2.116,2.855-2.94,6.213
	C9.242,307.688,11.635,304.845,13.848,303.427z"/>
<path fill="#DBAF00" d="M99.115,301.083c5.158,0.609,11.547-1.318,17.131-5.643c9.006-6.977,12.521-17.535,7.855-23.592
	c-4.66-6.059-15.736-5.318-24.738,1.654c-5.565,4.311-9.03,9.992-9.768,15.135c-0.285,0.193-0.523,0.355-0.703,0.479
	c-0.31,0.217-0.379,0.508-0.253,0.854c0.415,1.164,1.073,4.205-1.273,8.211c-2.344,4.229-40.488,28.947-50.095,35.087
	c-2.386,1.523-4.876,4.845-4.577,9.357l0,0c4.279,1.43,8.105-0.15,10.181-2.088c8.353-7.767,41.839-38.535,46.511-39.738
	c4.454-1.268,7.214,0.141,8.236,0.84c0.302,0.203,0.607,0.221,0.892-0.033C98.669,301.472,98.873,301.292,99.115,301.083z
	 M40.37,340.763c1.775-0.838,4.457-3.328,4.457-3.328s-0.391,0.623-2.015,2.134c-1.928,1.791-5.275,3.393-9.167,2.477
	C37.088,342.089,38.877,341.529,40.37,340.763z"/>
<path fill="#C99709" d="M165.562,439.309c-4.021,1.434-8.453-0.688-9.881-4.717l-1.186-3.348c-1.428-4.029,0.685-8.48,4.707-9.912
	l1.195-0.426l6.361,17.975L165.562,439.309z"/>
<path fill="#DBAF00" d="M127.139,633.875c4.479,5.08,11.552,7.564,18.583,5.818c7.09-1.758,12.207-7.337,13.741-14.001
	c-5.284,1.318-6.633,1.656-8.526,2.116c-4.538,1.129-9.13-1.638-10.26-6.182c-1.124-4.544,1.645-9.135,6.184-10.269
	c2.049-0.509,3.471-0.855,8.524-2.109c-4.47-5.171-11.605-7.714-18.686-5.954c-7.027,1.743-12.123,7.248-13.703,13.826
	l-76.281,19.152c-4.476-5.082-11.553-7.567-18.584-5.824c-7.083,1.755-12.205,7.34-13.739,13.998
	c5.289-1.313,6.631-1.646,8.523-2.117c4.547-1.128,9.139,1.643,10.264,6.183c1.126,4.543-1.644,9.141-6.181,10.264
	c-2.053,0.51-3.47,0.862-8.525,2.118c4.468,5.169,11.602,7.712,18.684,5.955c7.028-1.739,12.126-7.249,13.708-13.833
	L127.139,633.875z"/>
<path fill="#DBAF00" d="M212.493,417.234c13.015,11.441,14.291,31.271,2.85,44.286c-11.266,12.816-20.302,7.521-34.035,20.217
	c-1.148,1.305-3.125,1.434-4.43,0.284l-24.074-21.16c-1.304-1.148-1.432-3.126-0.285-4.43l-0.005-0.005
	c10.836-15.245,4.426-23.527,15.692-36.342C179.648,407.069,199.478,405.793,212.493,417.234 M174.554,484.157
	c1.305,1.147,1.432,3.124,0.284,4.43c-1.146,1.304-3.124,1.433-4.428,0.285l-23.569-20.718c-1.303-1.146-1.431-3.124-0.285-4.428
	c1.147-1.306,3.125-1.433,4.428-0.286L174.554,484.157 M168.339,491.229c1.304,1.145,1.432,3.124,0.285,4.428
	c-1.147,1.303-3.124,1.431-4.429,0.286l-23.568-20.719c-1.304-1.146-1.431-3.125-0.285-4.428c1.147-1.306,3.125-1.434,4.427-0.286
	L168.339,491.229 M159.767,496.226c-2.29,2.604-6.254,2.861-8.857,0.57l-9.428-8.287c-2.604-2.289-2.859-6.253-0.569-8.857
	L159.767,496.226 M217.227,411.847c-15.965-14.035-40.373-12.466-54.407,3.501c-7.049,8.019-8.476,14.925-9.746,21.016
	c-1.067,5.162-1.997,9.633-6.266,15.711c-1.023,1.281-1.689,2.749-2.007,4.27c-1.352,0.582-2.596,1.466-3.631,2.645
	c-1.119,1.273-1.869,2.74-2.256,4.285c-1.481,0.58-2.841,1.513-3.96,2.786c-2.917,3.318-3.311,7.999-1.336,11.683
	c-2.694,5.336-1.563,12.029,3.128,16.154l9.427,8.288c4.694,4.125,11.475,4.388,16.421,1.032c3.907,1.485,8.499,0.495,11.417-2.823
	c1.12-1.274,1.865-2.747,2.25-4.291c1.482-0.582,2.847-1.508,3.967-2.78c1.036-1.178,1.753-2.524,2.153-3.936
	c1.471-0.518,2.841-1.374,3.98-2.554c5.48-5.004,9.786-6.497,14.774-8.223c5.879-2.03,12.549-4.335,19.597-12.354
	C234.767,450.29,233.194,425.881,217.227,411.847L217.227,411.847z"/>
</svg>
