<?xml version="1.0" encoding="utf-8"?>
<!-- Generator: Adobe Illustrator 16.0.4, SVG Export Plug-In . SVG Version: 6.00 Build 0)  -->
<!DOCTYPE svg PUBLIC "-//W3C//DTD SVG 1.1//EN" "http://www.w3.org/Graphics/SVG/1.1/DTD/svg11.dtd">
<svg version="1.1" id="Layer_1" xmlns="http://www.w3.org/2000/svg" xmlns:xlink="http://www.w3.org/1999/xlink" x="0px" y="0px"
	 width="489.6px" height="727.2px" viewBox="0 0 489.6 727.2" enable-background="new 0 0 489.6 727.2" xml:space="preserve">
<rect x="-5.262" y="-15.408" fill="#04A84E" width="571.416" height="767.381"/>
<g id="personalMotivation">
</g>
<path fill="#FCFBFA" d="M281.864,660.176l30.168-16.143c0.689,0.477,1.429,0.906,2.214,1.27c8.118,3.887,17.877,0.406,21.743-7.732
	c3.867-8.152,0.402-17.939-7.719-21.814c-1.601-0.77-3.258-1.244-4.93-1.457l-12.354-34.918c3.615-3.271,5.119-8.533,3.39-13.426
	l-0.165-0.467c-2.294-6.486-9.396-9.873-15.854-7.572l-6.648,2.371c-7.027-6.355-17.217-8.734-26.753-5.34l-9.938,3.543l2.842,8.033
	L256.515,567c-8.387,2.992-12.788,12.266-9.812,20.678l1.325,3.754c2.979,8.418,12.229,12.83,20.617,9.846l1.344-0.482l2.843,8.041
	l9.938-3.543c9.045-3.217,15.271-10.844,17.145-19.615l11.309,31.957c-1.938,1.521-3.562,3.488-4.695,5.863
	c-1.521,3.211-1.897,6.672-1.312,9.932l-37.425,20.023"/>
<path fill="#FCFBFA" d="M266.147,594.233c-4.521,1.609-9.492-0.771-11.1-5.299l-1.335-3.762c-1.597-4.529,0.771-9.52,5.29-11.131
	l1.35-0.48l7.146,20.188L266.147,594.233z"/>
<polygon fill="#00BF5A" points="67.339,174.701 58.554,69.776 145.281,10.465 240.8,56.078 249.587,161 162.857,220.312 "/>
<polyline fill="#00BF5A" points="198.229,670.682 189.592,565.452 276.468,505.833 371.985,551.444 380.628,656.674 
	293.821,716.141 "/>
<polyline fill="#00BF5A" points="623.252,25.873 631.451,132.037 544.13,192.589 448.61,146.976 440.415,40.814 527.806,-19.892 "/>
<polyline fill="#00BF5A" points="-105.216,525.813 -113.12,419.036 -25.511,357.863 70.01,403.475 77.915,510.254 -9.623,571.272 
	"/>
<polyline fill="#00BF5A" points="-125.577,187.48 -133.481,80.703 -45.872,19.53 49.649,65.145 57.554,171.923 -29.985,232.939 "/>
<polyline fill="#00BF5A" points="339.183,-9.454 331.278,-116.229 418.885,-177.401 514.405,-131.79 522.312,-25.009 
	434.774,36.005 "/>
<polyline fill="#00BF5A" points="151.035,4.065 143.131,-102.711 230.738,-163.884 326.261,-118.272 334.166,-11.491 
	246.628,49.524 "/>
<polyline fill="#00BF5A" points="-36.723,13.604 -44.628,-93.175 42.98,-154.347 138.502,-108.735 146.406,-1.954 58.87,59.062 "/>
<polyline fill="#00BF5A" points="304.86,832.459 296.955,725.682 384.563,664.51 480.085,710.124 487.989,816.905 400.452,877.917 
	"/>
<polyline fill="#00BF5A" points="112.333,845.975 104.427,739.202 192.035,678.03 287.558,723.637 295.462,830.42 207.925,891.438 
	"/>
<polyline fill="#00BF5A" points="-83.094,863.182 -90.999,756.409 -3.391,695.235 92.13,740.844 100.033,847.627 12.498,908.641 "/>
<polyline fill="#00BF5A" points="646.025,363.986 654.957,468.596 568.378,527.604 472.854,481.991 463.923,377.375 
	550.578,318.214 "/>
<polygon fill="#00BF5A" points="363.506,323.728 355.456,217.257 442.923,156.394 538.443,202.005 546.489,308.48 459.028,369.34 
	"/>
<polygon fill="#00BF5A" points="173.229,335.496 164.443,230.572 251.173,171.259 346.688,216.873 355.474,321.791 268.744,381.106 
	"/>
<polygon fill="#00BF5A" points="257.617,162.935 248.835,58.013 335.562,-1.299 431.081,44.311 439.869,149.236 353.14,208.544 "/>
<g id="_x39__2_">
	<path fill="#04A84E" d="M301.332,625.106c0.096-0.201,4.812-10.143,4.905-10.344c-0.198-0.094-37.271-17.799-37.469-17.893
		c-0.1,0.201-4.812,10.141-4.908,10.344C264.058,607.305,301.131,625.008,301.332,625.106z"/>
	<path fill="#04A84E" d="M236.499,598.245c0.096-0.197,7.981-16.824,8.082-17.023c-0.186-0.086-3.205-1.521-3.389-1.609
		c-0.095,0.193-7.985,16.816-8.081,17.02C233.299,596.717,236.318,598.159,236.499,598.245z"/>
	<path fill="#04A84E" d="M333.606,623.731c-0.104,0.199-7.987,16.822-8.088,17.023c0.188,0.086,3.193,1.525,3.391,1.617
		c0.236-0.5,7.984-16.85,8.072-17.027C336.799,625.256,333.786,623.823,333.606,623.731z"/>
	<path fill="#04A84E" d="M230.031,588.625c0.065-0.248,1.736-7.098,1.787-7.271c-0.152-0.074-2.58-1.234-2.808-1.342
		c-0.062,0.264-1.735,7.104-1.78,7.275C227.382,587.36,229.812,588.522,230.031,588.625z"/>
	<path fill="#04A84E" d="M236.975,583.817c-0.183-0.092-3.087-1.477-3.318-1.592c-0.062,0.266-1.736,7.105-1.772,7.283
		c0.142,0.066,1.772,0.85,1.948,0.932C233.924,590.249,236.88,584.018,236.975,583.817z"/>
	<path fill="#04A84E" d="M220.744,584.19c0.064-0.26,1.732-7.105,1.781-7.275c-0.149-0.068-1.728-0.822-1.904-0.908
		c-0.1,0.201-3.055,6.428-3.146,6.623C217.664,582.715,220.523,584.083,220.744,584.19z"/>
	<path fill="#04A84E" d="M225.391,586.409c0.064-0.25,1.73-7.102,1.782-7.275c-0.155-0.072-2.583-1.229-2.808-1.338
		c-0.065,0.258-1.73,7.105-1.775,7.275C222.742,585.141,225.173,586.303,225.391,586.409z"/>
	<path fill="#04A84E" d="M336.382,631.284c-0.096,0.203-3.053,6.434-3.146,6.623c0.188,0.09,3.054,1.459,3.276,1.561
		c0.056-0.252,1.733-7.1,1.776-7.27C338.14,632.125,336.563,631.37,336.382,631.284z"/>
	<path fill="#04A84E" d="M344.782,635.292c-0.072,0.268-1.741,7.098-1.786,7.279c0.149,0.068,2.582,1.229,2.804,1.334
		c0.064-0.254,1.734-7.1,1.778-7.279C347.429,636.557,345.002,635.399,344.782,635.292z"/>
	<path fill="#04A84E" d="M349.42,637.504c-0.067,0.273-1.729,7.105-1.774,7.279c0.146,0.061,1.774,0.852,1.951,0.934
		c0.096-0.189,3.049-6.42,3.146-6.625C352.556,639.006,349.649,637.62,349.42,637.504z"/>
	<path fill="#04A84E" d="M340.128,633.071c-0.066,0.27-1.729,7.104-1.775,7.277c0.146,0.068,2.58,1.23,2.808,1.342
		c0.062-0.258,1.729-7.105,1.774-7.277C342.783,634.338,340.356,633.18,340.128,633.071z"/>
	<path fill="#04A84E" d="M251.294,629.036c0.096-0.203,26.341-55.508,26.438-55.715c-0.192-0.098-11.097-5.297-11.287-5.393
		c-0.053,0.105-26.354,55.52-26.439,55.713C240.198,623.739,251.088,628.94,251.294,629.036z"/>
	<path fill="#04A84E" d="M242.252,614.225c0.096-0.197,18.229-38.404,18.321-38.604c-0.197-0.094-8.871-4.232-9.064-4.328
		c-0.093,0.199-18.228,38.404-18.322,38.604C233.381,609.993,242.065,614.135,242.252,614.225z"/>
	<path fill="#04A84E" d="M318.813,592.94c-0.101,0.205-26.346,55.512-26.438,55.717c0.192,0.092,11.09,5.293,11.289,5.391
		c0.093-0.188,26.379-55.588,26.438-55.717C329.909,598.237,319.009,593.034,318.813,592.94z"/>
	<path fill="#04A84E" d="M327.851,607.747c-0.096,0.199-18.229,38.404-18.318,38.604c0.189,0.1,8.865,4.232,9.066,4.33
		c0.092-0.188,18.229-38.396,18.319-38.604C336.726,611.983,328.045,607.838,327.851,607.747z"/>
</g>
<g id="_x36__2_">
	<path fill="#04A84E" d="M164.447,137.308c-0.127-0.059-0.261-0.115-0.392-0.178l17.415-36.697l27.712-4.783l-16.36-19.135
		l0.672-1.417l-3.067-1.464l-29.483,62.127c-12.014-4.99-25.09-6.705-28.119-0.324c-3.324,7.008,8.537,17.305,21.39,23.441
		c12.845,6.137,28.293,8.875,31.619,1.871C189.154,153.742,177.293,143.443,164.447,137.308z M155.675,155.798
		c-13.416-6.404-21.503-15.252-19.774-18.895c1.574-3.314,11.649-2.994,23.582,1.936l-3.607,7.602l3.066,1.465l3.652-7.695
		c0.131,0.064,0.261,0.115,0.393,0.178c13.402,6.4,21.494,15.252,19.771,18.891C181.029,162.919,169.078,162.199,155.675,155.798z"
		/>
	<path fill="#04A84E" d="M107.863,123.515c-8.694-4.148-19.1-0.439-23.237,8.275c-4.143,8.73-0.451,19.162,8.243,23.314
		c8.703,4.154,19.103,0.453,23.246-8.273C120.254,138.111,116.562,127.671,107.863,123.515z"/>
</g>
<g id="_x36__1_">
	<path fill="#04A84E" d="M-9.784,486.583c-0.126-0.059-0.259-0.113-0.391-0.178L7.24,449.708l27.712-4.781L18.593,425.79
		l0.671-1.416l-3.067-1.465l-29.484,62.127c-12.014-4.99-25.088-6.705-28.118-0.322c-3.325,7.008,8.537,17.305,21.389,23.439
		c12.844,6.137,28.292,8.875,31.619,1.871C14.922,503.016,3.062,492.717-9.784,486.583z M-18.556,505.073
		c-13.416-6.4-21.502-15.25-19.775-18.893c1.576-3.314,11.651-2.992,23.581,1.936l-3.606,7.604l3.067,1.465l3.652-7.688
		c0.131,0.061,0.26,0.105,0.393,0.178c13.402,6.4,21.494,15.252,19.77,18.891C6.797,512.198-5.153,511.473-18.556,505.073z"/>
	<path fill="#04A84E" d="M-66.368,472.792c-8.694-4.148-19.099-0.439-23.237,8.277c-4.142,8.729-0.451,19.158,8.243,23.311
		c8.703,4.152,19.103,0.451,23.247-8.27C-53.978,487.387-57.67,476.948-66.368,472.792z"/>
</g>
<g id="_x32_1_2_">
	<path fill="#04A84E" d="M603.795,412.655c4.96,2.369,10.917,0.246,13.276-4.725c2.358-4.98,0.246-10.947-4.723-13.318
		c-4.949-2.363-10.909-0.254-13.271,4.729C596.72,404.307,598.84,410.292,603.795,412.655z"/>
	<path fill="#04A84E" d="M619.431,428.247c-0.499-1.846-1.677-3.396-3.33-4.354c-1.646-0.959-3.571-1.213-5.421-0.719
		c0,0-11.3,3.037-14.084,3.779c-0.11-1.588-0.438-5.705-0.689-9.021c1.516-2.551,1.979-5.512,0.979-8.26
		c-0.243-0.689-0.588-1.332-0.982-1.92l0.046-0.02l-0.188-0.16c-0.818-1.15-1.908-2.082-3.167-2.781l-13.659-11.988l0.104,0.096
		l-1.358-1.041c0.151,0.104-2.7-1.312-2.7-1.312l-21.312-5.25c-1.896-0.463-3.896-0.152-5.492,0.844
		c-1.513,0.947-2.542,2.418-2.912,4.146c-0.771,3.648,1.674,7.373,5.459,8.309c0,0,18.948,4.666,19.604,4.822
		c0.206,0.174,2.043,1.709,4.174,3.494l-6.954,2.539l6.523,19.561l8.136-2.979l0.803,10.311c0.298,3.939,3.739,6.881,7.658,6.59
		c0.018-0.02,2.462-0.188,2.462-0.188l21.259-5.717c1.854-0.488,3.395-1.68,4.352-3.332c0.097-0.178,0.186-0.348,0.27-0.52
		C619.716,431.631,619.873,429.909,619.431,428.247z"/>
	<path fill="#04A84E" d="M576.39,449.782l-6.989-19.045l1.104-0.406l-2.187-6.543l-0.646-1.945l-2.037-6.121l-0.688-2.061
		l-0.975-2.881l-3.045,1.113c-1.104,0.41-2.078,0.969-3.001,1.576l-62.13,10.705c-4.658,0.799-7.9,4.689-7.229,8.65
		c0.684,3.979,5.027,6.561,9.686,5.77l55.084-9.496c2.042,5.326,6.719,17.58,7.439,19.445c-2.365,1.057-24.962,11.211-24.962,11.211
		c-2.568,1.184-4.104,2.574-5.028,4.531c-0.489,1.025-0.842,2.684-0.562,3.871c0,0,0.908,8.717,11.526,4.938l28.479-12.609
		c5.604-2.521,7.28-5.389,6.171-10.596L576.39,449.782z"/>
</g>
<g>
	<path fill="#04A84E" d="M398.426,123.335l-90.733-43.326l11.771-24.792c1.419-2.995,0.041-6.632-3.078-8.121
		c-3.106-1.487-6.796-0.268-8.22,2.727l-26.699,56.262c-1.424,3-0.046,6.637,3.062,8.123c3.123,1.488,6.807,0.268,8.229-2.73
		l1.291-2.713l85.088,40.629l-1.292,2.713c-1.425,3.002-0.045,6.637,3.074,8.125c3.114,1.488,6.801,0.268,8.221-2.729l12.36-26.049
		C402.922,128.458,401.54,124.824,398.426,123.335z M382.28,142.763c-1.684-2.137-3.562-2.832-6.549-2.516
		c-5.17,0.541-10.564-2.039-13.402-6.404c-1.864-2.865-3.814-3.799-7.205-3.439c-5.175,0.541-10.566-2.033-13.41-6.402
		c-1.859-2.865-3.818-3.801-7.207-3.443c-5.174,0.543-10.564-2.031-13.408-6.4c-1.854-2.865-3.812-3.797-7.209-3.443
		c-5.168,0.543-10.562-2.033-13.404-6.398c-0.906-1.396-1.851-2.32-2.967-2.871l1.029-2.176c1.534,0.746,2.844,1.984,4.018,3.793
		c2.33,3.58,6.748,5.686,10.979,5.244c4.358-0.457,7.241,0.916,9.63,4.596c2.335,3.582,6.749,5.688,10.985,5.248
		c4.356-0.457,7.231,0.916,9.63,4.6c2.328,3.574,6.745,5.684,10.982,5.244c4.354-0.459,7.233,0.918,9.627,4.598
		c2.328,3.578,6.744,5.684,10.979,5.246c3.419-0.359,5.922,0.441,8.008,2.582l-1.115,2.342L382.28,142.763z"/>
	<path fill="#04A84E" d="M315.808,67.225l-5.803,12.226l12.363,5.902c5.117-1.699,7.719-7.174,5.8-12.23
		C326.256,68.067,320.924,65.521,315.808,67.225z"/>
</g>
<text transform="matrix(0.9006 0.4301 -0.4288 0.9034 516.6631 17.5776)" fill="#353535" font-family="'CenturyGothic-Bold'" font-size="27.4404">12</text>
<text transform="matrix(0.9006 0.4301 -0.4288 0.9034 -60.1465 65.9048)" fill="#DBAF00" font-family="'CenturyGothic-Bold'" font-size="27.4404">12</text>
<text transform="matrix(0.9006 0.4301 -0.4288 0.9034 529.0029 365.4106)" fill="#353535" font-family="'CenturyGothic-Bold'" font-size="27.4404">19</text>
<polyline fill="#00BF5A" points="562.521,540.272 571.452,644.883 484.873,703.889 389.349,658.28 380.419,553.665 467.073,494.504 
	"/>
<g id="_x32_1_1_">
	<path fill="#04A84E" d="M520.287,588.944c4.962,2.371,10.92,0.246,13.278-4.725c2.361-4.982,0.247-10.951-4.723-13.32
		c-4.946-2.363-10.912-0.254-13.271,4.729C513.214,580.596,515.333,586.577,520.287,588.944z"/>
	<path fill="#04A84E" d="M535.926,604.536c-0.5-1.846-1.678-3.396-3.328-4.352c-1.649-0.963-3.578-1.215-5.423-0.725
		c0,0-11.301,3.041-14.083,3.783c-0.118-1.592-0.441-5.705-0.689-9.021c1.513-2.551,1.979-5.514,0.979-8.264
		c-0.245-0.688-0.588-1.33-0.98-1.92l0.037-0.018l-0.188-0.156c-0.819-1.154-1.909-2.084-3.167-2.783l-13.659-11.988l0.104,0.096
		l-1.357-1.041c0.149,0.104-2.701-1.312-2.701-1.312l-21.312-5.252c-1.898-0.463-3.896-0.152-5.493,0.844
		c-1.514,0.947-2.542,2.42-2.912,4.146c-0.777,3.65,1.67,7.373,5.457,8.311c0,0,18.951,4.664,19.604,4.822
		c0.202,0.174,2.045,1.705,4.176,3.494l-6.957,2.539l6.521,19.561l8.139-2.979l0.801,10.307c0.301,3.939,3.741,6.885,7.662,6.59
		c0.016-0.02,2.463-0.188,2.463-0.188l21.26-5.715c1.851-0.49,3.389-1.682,4.345-3.332c0.102-0.172,0.188-0.346,0.271-0.52
		C536.21,607.92,536.368,606.198,535.926,604.536z"/>
	<path fill="#04A84E" d="M492.886,626.073l-6.998-19.047l1.109-0.408l-2.188-6.541l-0.644-1.947l-2.036-6.119l-0.688-2.061
		l-0.973-2.889l-3.047,1.121c-1.104,0.408-2.077,0.963-3.001,1.576l-62.131,10.703c-4.655,0.801-7.902,4.686-7.229,8.652
		c0.688,3.979,5.032,6.561,9.688,5.77l55.083-9.496c2.042,5.324,6.721,17.584,7.438,19.445c-2.36,1.059-24.96,11.209-24.96,11.209
		c-2.564,1.188-4.102,2.576-5.026,4.533c-0.489,1.025-0.843,2.686-0.562,3.871c0,0,0.91,8.719,11.53,4.938l28.479-12.615
		c5.605-2.518,7.279-5.385,6.172-10.59L492.886,626.073z"/>
</g>
<g id="_x32_1_3_">
	<path fill="#04A84E" d="M299.3,262.529c4.961,2.371,10.92,0.246,13.279-4.723c2.363-4.984,0.246-10.951-4.721-13.322
		c-4.947-2.363-10.91-0.252-13.273,4.73C292.226,254.183,294.345,260.162,299.3,262.529z"/>
	<path fill="#04A84E" d="M314.938,278.121c-0.5-1.846-1.683-3.395-3.328-4.35c-1.653-0.963-3.58-1.215-5.424-0.723
		c0,0-11.306,3.039-14.082,3.781c-0.119-1.592-0.446-5.705-0.694-9.02c1.512-2.551,1.979-5.514,0.979-8.264
		c-0.246-0.688-0.593-1.33-0.984-1.92l0.039-0.018l-0.188-0.156c-0.817-1.154-1.907-2.084-3.166-2.783l-13.659-11.988l0.104,0.094
		l-1.358-1.041c0.15,0.104-2.699-1.311-2.699-1.311l-21.312-5.252c-1.897-0.463-3.894-0.152-5.493,0.844
		c-1.513,0.947-2.542,2.42-2.912,4.145c-0.777,3.652,1.67,7.373,5.457,8.311c0,0,18.951,4.664,19.604,4.822
		c0.204,0.174,2.044,1.705,4.176,3.494l-6.957,2.539l6.524,19.562l8.135-2.979l0.8,10.307c0.301,3.938,3.74,6.885,7.664,6.59
		c0.014-0.025,2.461-0.193,2.461-0.193l21.26-5.715c1.851-0.49,3.39-1.676,4.347-3.332c0.101-0.172,0.188-0.34,0.271-0.514
		C315.222,281.507,315.38,279.783,314.938,278.121z"/>
	<path fill="#04A84E" d="M271.897,299.658l-6.998-19.047l1.104-0.408l-2.188-6.541l-0.646-1.947l-2.034-6.119l-0.688-2.068
		l-0.973-2.881l-3.047,1.121c-1.104,0.408-2.076,0.963-3,1.576L191.3,274.047c-4.654,0.801-7.902,4.686-7.23,8.652
		c0.688,3.98,5.035,6.562,9.688,5.77l55.083-9.496c2.04,5.324,6.721,17.584,7.438,19.445c-2.363,1.059-24.96,11.209-24.96,11.209
		c-2.567,1.188-4.1,2.576-5.029,4.533c-0.489,1.027-0.842,2.686-0.561,3.871c0,0,0.91,8.719,11.53,4.938l28.479-12.61
		c5.604-2.521,7.278-5.386,6.169-10.59L271.897,299.658z"/>
</g>
<text transform="matrix(0.9006 0.4301 -0.4288 0.9034 461.499 535.6997)" fill="#353535" font-family="'CenturyGothic-Bold'" font-size="27.4404">19</text>
<text transform="matrix(0.9006 0.4301 -0.4288 0.9034 136.9844 47.8579)" fill="#DBAF00" font-family="'CenturyGothic-Bold'" font-size="27.4404">9</text>
<text transform="matrix(0.9006 0.4301 -0.4288 0.9034 240.7524 207.8149)" fill="#04A84E" font-family="'CenturyGothic-Bold'" font-size="24.0104">8</text>
<text transform="matrix(0.9006 0.4301 -0.4288 0.9034 431.3857 189.2817)" fill="#DBAF00" font-family="'CenturyGothic-Bold'" font-size="24.0104">10</text>
<polygon fill="#00BF5A" points="280.921,497.788 272.873,391.313 360.336,330.453 455.855,376.065 463.907,482.538 376.44,543.399 
	"/>
<text transform="matrix(0.9006 0.4301 -0.4288 0.9034 350.501 359.7178)" fill="#04A84E" font-family="'CenturyGothic-Bold'" font-size="24.0104">6</text>
<polygon fill="#00BF5A" points="-19.03,350.691 -27.081,244.218 60.385,183.355 155.904,228.968 163.955,335.439 76.489,396.299 "/>
<polygon fill="#00BF5A" points="88.6,511.747 80.55,405.272 168.016,344.408 263.537,390.022 271.583,496.495 184.121,557.356 "/>
<text transform="matrix(0.9006 0.4301 -0.4288 0.9034 325.2002 29.8872)" fill="#DBAF00" font-family="'CenturyGothic-Bold'" font-size="24.0104">24</text>
<text transform="matrix(0.9006 0.4301 -0.4288 0.9034 53.4321 217.8608)" fill="#04A84E" font-family="'CenturyGothic-Bold'" font-size="24.0104">7</text>
<text transform="matrix(0.9006 0.4301 -0.4288 0.9034 158.4058 375.3647)" fill="#04A84E" font-family="'CenturyGothic-Bold'" font-size="24.0104">3</text>
<text transform="matrix(0.9006 0.4301 -0.4288 0.9034 -28.3096 390.1001)" fill="#353535" font-family="'CenturyGothic-Bold'" font-size="24.0104">1</text>
<text transform="matrix(0.9006 0.4301 -0.4288 0.9034 266.0957 532.9497)" fill="#04A84E" font-family="'CenturyGothic-Bold'" font-size="24.0104">1</text>
<polyline fill="#00BF5A" points="2.781,687.096 -5.123,580.319 82.486,519.149 178.007,564.758 185.912,671.542 98.373,732.553 "/>
<text transform="matrix(0.9006 0.4301 -0.4288 0.9034 77.4971 553.5786)" fill="#04A84E" font-family="'CenturyGothic-Bold'" font-size="24.0104">1</text>
<g>
	<path fill="#04A84E" d="M408.513,424.661c2.42-0.74,4.891-0.012,6.183,1.684l0.479-0.166c2.232-2.045,5.424-3.961,9.23-5.311
		c3.812-1.355,7.486-1.895,10.513-1.725c0,0,0.73-0.258,1.638-0.574c0.91-0.326,1.192-1.877,0.627-3.477l-3.309-9.354
		c-0.562-1.588-1.745-2.613-2.645-2.299l-1.63,0.574c-2.229,2.057-5.438,3.98-9.27,5.355c-3.823,1.355-7.521,1.889-10.55,1.713
		l-0.34,0.109c0.267,2.258-1.244,4.574-3.729,5.592l-25.015,8.824c-0.716-0.398-1.607-1.562-2.021-4.771
		c-0.743-5.742-6.146-11.391-16.062-4.535c-9.917,6.855-6.156,10.572-22.473,4.982l-0.008,0.012
		c-5.599-2.303-11.771-2.686-17.593-0.604c-13.812,4.92-20.483,21.729-14.896,37.527c5.604,15.812,21.338,24.645,35.149,19.729
		c0.25-0.1,0.49-0.191,0.737-0.287v0.002c0,0,0.093-0.031,0.254-0.105c1.14-0.465,2.229-1.01,3.255-1.635
		c4.037-2.283,10.401-6.805,12.69-13.613c3.451-10.277,12.322-5.504,17.25-6.145c4.93-0.646,7.264-2.123,8.531-4.518
		c0,0-5.992,1.02-8.142-5.055c-1.729-4.873,2.409-9.807,5.241-12.104L408.513,424.661z"/>
</g>
<path fill="#04A84E" d="M80.013,266.835c3.003-2.625,23.306-20.73,23.306-20.73l-0.041-0.127l-0.112-0.07L82.52,260.275
	c0,0-0.324,0.23-0.562-0.076c-0.237-0.311,0.076-0.553,0.076-0.553l18.982-16.508l-0.042-0.141l-0.122-0.074l-20.683,14.289
	c0,0-0.324,0.24-0.542-0.037c-0.217-0.287,0.092-0.551,0.092-0.551l19.014-16.457l-0.046-0.131l-0.122-0.082L77.842,254.21
	c0,0-0.323,0.229-0.55-0.074c-0.23-0.295,0.067-0.562,0.067-0.562l19.077-16.406l-0.045-0.127l-0.107-0.072
	c0,0-22.593,15.133-25.892,17.377c-0.312,0.213-0.378,0.512-0.254,0.854c0.418,1.168,0.939,4.311-1.408,8.314
	c-2.339,4.229-46.122,33.318-55.729,39.461c-2.39,1.523-4.875,4.84-4.583,9.355l0,0c4.282,1.428,8.112-0.148,10.185-2.084
	c8.353-7.77,47.476-42.914,52.147-44.113c4.458-1.264,7.354,0.037,8.376,0.74C79.425,267.078,79.733,267.089,80.013,266.835z
	 M13.848,303.427c1.873-1.195,2.57-1.418,2.57-1.418s-3.078,1.973-4.334,3.477c-1.121,1.262-2.116,2.855-2.94,6.213
	C9.242,307.688,11.635,304.845,13.848,303.427z"/>
<path fill="#04A84E" d="M99.115,301.083c5.158,0.609,11.547-1.318,17.131-5.643c9.006-6.977,12.521-17.535,7.855-23.592
	c-4.66-6.059-15.736-5.318-24.738,1.654c-5.565,4.311-9.03,9.992-9.768,15.135c-0.285,0.193-0.523,0.355-0.703,0.479
	c-0.31,0.217-0.379,0.508-0.253,0.854c0.415,1.164,1.073,4.205-1.273,8.211c-2.344,4.229-40.488,28.947-50.095,35.085
	c-2.386,1.523-4.876,4.847-4.577,9.357l0,0c4.279,1.43,8.105-0.15,10.181-2.088c8.353-7.769,41.839-38.535,46.511-39.738
	c4.454-1.268,7.214,0.141,8.236,0.84c0.302,0.203,0.607,0.221,0.892-0.033C98.669,301.472,98.873,301.292,99.115,301.083z
	 M40.37,340.763c1.775-0.838,4.457-3.328,4.457-3.328s-0.391,0.623-2.015,2.136c-1.928,1.791-5.275,3.393-9.167,2.477
	C37.088,342.089,38.877,341.529,40.37,340.763z"/>
<path fill="#04A84E" d="M127.139,633.875c4.479,5.08,11.552,7.564,18.583,5.818c7.09-1.762,12.207-7.338,13.741-14.002
	c-5.284,1.316-6.633,1.654-8.526,2.113c-4.538,1.131-9.13-1.637-10.26-6.182c-1.124-4.543,1.646-9.135,6.184-10.268
	c2.049-0.51,3.471-0.855,8.524-2.109c-4.47-5.172-11.604-7.715-18.686-5.955c-7.027,1.744-12.123,7.248-13.703,13.826L46.715,636.27
	c-4.476-5.082-11.553-7.566-18.584-5.824c-7.083,1.756-12.205,7.34-13.739,13.998c5.289-1.312,6.631-1.646,8.523-2.117
	c4.547-1.127,9.139,1.643,10.264,6.184c1.126,4.543-1.644,9.143-6.181,10.266c-2.053,0.51-3.47,0.859-8.525,2.115
	c4.468,5.17,11.602,7.713,18.684,5.955c7.028-1.736,12.126-7.248,13.708-13.832L127.139,633.875z"/>
<g>
	<path fill="#04A84E" d="M231.997,453.82c-5.953-6.575-12.426-12.279-19.625-17.211c-7.002-4.789-14.316-8.594-21.892-11.414
		c-5.834-6.367-12.29-11.995-19.299-16.794c-7.2-4.93-14.687-8.785-22.498-11.624l-2.111-0.72l-39.917,58.281l2.691,1.537
		c7.161,4.124,14.006,8.413,20.788,13.061c6.023,4.116,11.444,8.145,16.621,12.307l-0.263,0.376c0,0,0.514,1.578,3.324,3.507
		c2.817,1.931,4.49,1.847,4.49,1.847l0.264-0.382c5.758,3.327,11.28,6.81,17.299,10.919c6.779,4.649,13.022,9.319,19.46,14.512
		l2.039,1.706l39.94-58.324L231.997,453.82z"/>
</g>
<g>
	<path fill="#00BF5A" d="M193.524,509.552c-13.056-10.528-26.789-19.935-41.321-28.298c12.143-17.743,24.3-35.484,36.451-53.225
		c15.793,5.736,30.081,15.877,41.32,28.3C217.826,474.073,205.675,491.814,193.524,509.552z"/>
</g>
<g>
	<path fill="#00BF5A" d="M152.204,481.252c-13.058-10.528-26.788-19.933-41.321-28.298c12.147-17.744,24.304-35.485,36.448-53.225
		c15.8,5.737,30.082,15.877,41.321,28.301C176.504,445.774,164.351,463.512,152.204,481.252z"/>
</g>
<g>
	<g>
		<path fill="#04A84E" d="M152.204,481.252c-10.381-13.025-22.93-21.617-38.827-26.585c12.113-17.686,24.224-35.376,36.341-53.055
			c17.436,2.744,29.821,11.479,38.822,26.587C176.428,445.883,164.318,463.57,152.204,481.252z"/>
	</g>
</g>
<g>
	<g>
		<path fill="#04A84E" d="M151.893,481.04c15.896,4.968,28.445,13.562,38.825,26.59c12.111-17.688,24.229-35.373,36.337-53.056
			c-8.859-15.265-21.479-23.657-38.825-26.59C176.115,445.671,164.003,463.356,151.893,481.04z"/>
	</g>
</g>
<g>
	<g>
		<g>
			<path fill="#00BF5A" d="M219.063,456.151c-0.05-0.035-0.091-0.073-0.129-0.122c-8.22-9.771-17.668-16.244-29.75-20.368
				c-0.37-0.129-0.545-0.549-0.398-0.942c0.153-0.391,0.579-0.605,0.954-0.479c12.311,4.207,21.944,10.804,30.319,20.766
				c0.252,0.301,0.203,0.771-0.107,1.057C219.69,456.297,219.326,456.328,219.063,456.151z"/>
		</g>
		<g>
			<path fill="#00BF5A" d="M216.464,459.946c-0.049-0.034-0.09-0.076-0.129-0.122c-8.219-9.772-17.671-16.248-29.75-20.367
				c-0.365-0.128-0.543-0.548-0.392-0.941c0.152-0.392,0.576-0.608,0.947-0.481c12.308,4.206,21.948,10.806,30.32,20.768
				c0.258,0.299,0.21,0.769-0.102,1.054C217.091,460.098,216.723,460.123,216.464,459.946z"/>
		</g>
		<g>
			<path fill="#00BF5A" d="M213.86,463.742c-0.047-0.035-0.088-0.07-0.129-0.116c-8.217-9.778-17.67-16.246-29.746-20.374
				c-0.368-0.128-0.547-0.547-0.396-0.938s0.579-0.607,0.95-0.481c12.312,4.207,21.943,10.805,30.317,20.766
				c0.25,0.301,0.206,0.774-0.105,1.061C214.487,463.894,214.127,463.924,213.86,463.742z"/>
		</g>
		<g>
			<path fill="#00BF5A" d="M181.229,446.969c-0.266-0.173-0.37-0.528-0.239-0.859c0.152-0.391,0.577-0.608,0.949-0.484
				c12.311,4.203,21.943,10.805,30.317,20.767c0.254,0.304,0.207,0.779-0.105,1.062c-0.312,0.284-0.769,0.271-1.019-0.03
				c-8.212-9.772-17.671-16.248-29.745-20.37C181.332,447.031,181.277,447.006,181.229,446.969z"/>
		</g>
		<g>
			<path fill="#00BF5A" d="M178.629,450.77c-0.25-0.172-0.363-0.51-0.246-0.839c0.136-0.396,0.555-0.626,0.931-0.515
				c4.43,1.325,8.701,3.155,12.68,5.427c0.344,0.192,0.441,0.644,0.228,1.01c-0.218,0.368-0.662,0.508-0.999,0.311
				c-3.897-2.229-8.072-4.01-12.406-5.308C178.743,450.834,178.686,450.808,178.629,450.77z"/>
		</g>
		<g>
			<path fill="#00BF5A" d="M176.025,454.566c-0.259-0.181-0.364-0.537-0.235-0.866c0.146-0.395,0.578-0.609,0.941-0.479
				c12.313,4.205,21.956,10.805,30.322,20.764c0.26,0.303,0.208,0.775-0.105,1.058c-0.311,0.285-0.764,0.272-1.016-0.028
				c-8.217-9.769-17.666-16.243-29.744-20.372C176.131,454.627,176.075,454.6,176.025,454.566z"/>
		</g>
		<g>
			<path fill="#00BF5A" d="M203.458,478.931c-0.046-0.032-0.09-0.071-0.132-0.12c-8.212-9.767-17.662-16.243-29.74-20.365
				c-0.373-0.13-0.55-0.556-0.401-0.943c0.155-0.394,0.58-0.608,0.947-0.48c12.313,4.208,21.953,10.805,30.324,20.766
				c0.25,0.3,0.204,0.776-0.113,1.058C204.084,479.083,203.72,479.111,203.458,478.931z"/>
		</g>
		<g>
			<path fill="#00BF5A" d="M200.86,482.728c-0.048-0.032-0.091-0.071-0.134-0.12c-8.215-9.768-17.666-16.241-29.746-20.367
				c-0.372-0.13-0.549-0.551-0.396-0.941c0.146-0.394,0.579-0.605,0.946-0.486c12.313,4.211,21.951,10.811,30.323,20.768
				c0.255,0.298,0.207,0.771-0.108,1.055C201.487,482.877,201.12,482.909,200.86,482.728z"/>
		</g>
		<g>
			<path fill="#00BF5A" d="M168.226,465.957c-0.253-0.169-0.361-0.509-0.247-0.834c0.137-0.396,0.557-0.629,0.936-0.518
				c4.076,1.22,8.025,2.867,11.735,4.897c0.345,0.184,0.444,0.631,0.239,1.002c-0.207,0.372-0.652,0.517-0.994,0.331
				c-3.631-1.986-7.492-3.601-11.483-4.79C168.34,466.022,168.281,465.995,168.226,465.957z"/>
		</g>
		<g>
			<path fill="#00BF5A" d="M195.66,490.328c-0.048-0.034-0.093-0.072-0.137-0.119c-8.213-9.773-17.666-16.245-29.745-20.372
				c-0.371-0.126-0.55-0.55-0.396-0.944c0.151-0.391,0.579-0.605,0.953-0.479c12.308,4.207,21.943,10.806,30.32,20.767
				c0.254,0.303,0.202,0.771-0.107,1.058C196.284,490.473,195.917,490.5,195.66,490.328z"/>
		</g>
		<g>
			<path fill="#00BF5A" d="M163.024,473.55c-0.259-0.171-0.366-0.524-0.241-0.855c0.153-0.395,0.581-0.609,0.957-0.487
				c6.715,2.285,12.562,5.188,18.383,9.142c0.323,0.234,0.389,0.682,0.155,1.03c-0.24,0.348-0.693,0.46-1.014,0.239
				c-5.728-3.884-11.472-6.738-18.074-8.982C163.125,473.612,163.074,473.586,163.024,473.55z"/>
		</g>
	</g>
</g>
<g>
	<g>
		<g>
			<path fill="#00BF5A" d="M180.615,429.803c-0.049-0.034-0.094-0.074-0.136-0.13c-8.072-9.965-17.513-16.432-29.724-20.356
				c-0.373-0.122-0.559-0.538-0.413-0.935c0.146-0.396,0.573-0.619,0.944-0.5c12.462,4.01,22.103,10.615,30.344,20.78
				c0.249,0.307,0.192,0.783-0.125,1.061C181.233,429.954,180.872,429.976,180.615,429.803z"/>
		</g>
		<g>
			<path fill="#00BF5A" d="M147.979,413.025c-0.256-0.172-0.366-0.52-0.242-0.848c0.146-0.397,0.566-0.619,0.94-0.499
				c12.459,4.007,22.104,10.611,30.343,20.781c0.245,0.306,0.188,0.778-0.125,1.055c-0.316,0.281-0.773,0.26-1.019-0.043
				c-8.072-9.963-17.518-16.437-29.726-20.361C148.086,413.091,148.035,413.064,147.979,413.025z"/>
		</g>
		<g>
			<path fill="#00BF5A" d="M175.415,437.398c-0.045-0.038-0.093-0.083-0.133-0.135c-8.071-9.961-17.514-16.434-29.728-20.358
				c-0.374-0.118-0.559-0.538-0.411-0.935c0.143-0.396,0.566-0.616,0.942-0.498c12.461,4.007,22.102,10.612,30.345,20.785
				c0.245,0.302,0.19,0.775-0.122,1.051C176.032,437.549,175.669,437.571,175.415,437.398z"/>
		</g>
		<g>
			<path fill="#00BF5A" d="M172.813,441.195c-0.046-0.034-0.098-0.081-0.132-0.132c-8.068-9.958-17.515-16.434-29.726-20.36
				c-0.375-0.119-0.561-0.538-0.413-0.933c0.146-0.395,0.57-0.62,0.943-0.501c12.464,4.01,22.103,10.611,30.342,20.782
				c0.247,0.305,0.187,0.78-0.127,1.058C173.431,441.343,173.07,441.369,172.813,441.195z"/>
		</g>
		<g>
			<path fill="#00BF5A" d="M140.178,424.419c-0.256-0.17-0.364-0.521-0.244-0.848c0.145-0.398,0.571-0.62,0.941-0.501
				c5.222,1.681,9.861,3.712,14.594,6.394c0.34,0.195,0.437,0.646,0.22,1.012c-0.207,0.366-0.661,0.506-0.994,0.313
				c-4.653-2.634-9.215-4.635-14.351-6.286C140.283,424.484,140.229,424.453,140.178,424.419z"/>
		</g>
		<g>
			<path fill="#00BF5A" d="M167.612,448.789c-0.053-0.039-0.103-0.083-0.14-0.131c-8.072-9.969-17.513-16.432-29.723-20.359
				c-0.367-0.123-0.559-0.54-0.412-0.938c0.146-0.396,0.571-0.62,0.94-0.501c12.464,4.009,22.107,10.615,30.347,20.783
				c0.245,0.305,0.188,0.778-0.125,1.059C168.228,448.94,167.869,448.963,167.612,448.789z"/>
		</g>
		<g>
			<path fill="#00BF5A" d="M134.978,432.015c-0.259-0.175-0.364-0.52-0.244-0.851c0.149-0.4,0.566-0.622,0.942-0.498
				c12.462,4.004,22.104,10.611,30.343,20.78c0.246,0.305,0.193,0.775-0.125,1.056c-0.315,0.282-0.772,0.26-1.019-0.045
				c-8.071-9.968-17.514-16.436-29.727-20.364C135.083,432.076,135.027,432.051,134.978,432.015z"/>
		</g>
		<g>
			<path fill="#00BF5A" d="M162.408,456.381c-0.05-0.033-0.096-0.079-0.136-0.128c-8.073-9.963-17.516-16.433-29.722-20.358
				c-0.371-0.124-0.558-0.538-0.415-0.94c0.143-0.395,0.572-0.616,0.941-0.495c12.46,4.007,22.104,10.612,30.344,20.777
				c0.244,0.308,0.193,0.775-0.122,1.056C163.026,456.535,162.668,456.555,162.408,456.381z"/>
		</g>
		<g>
			<path fill="#00BF5A" d="M129.771,439.607c-0.251-0.173-0.358-0.521-0.239-0.851c0.149-0.392,0.572-0.612,0.943-0.498
				c10.917,3.556,19.684,9.067,27.568,17.362c0.268,0.287,0.245,0.756-0.053,1.054c-0.298,0.305-0.759,0.318-1.026,0.031
				c-7.73-8.131-16.312-13.536-27.024-17.017C129.881,439.668,129.825,439.641,129.771,439.607z"/>
		</g>
		<g>
			<path fill="#00BF5A" d="M156.994,464.295c-0.055-0.038-0.097-0.084-0.139-0.137c-8.074-9.96-17.518-16.433-29.728-20.356
				c-0.365-0.119-0.553-0.536-0.411-0.938c0.146-0.393,0.568-0.613,0.941-0.496c12.462,4.01,22.11,10.612,30.344,20.781
				c0.245,0.305,0.197,0.781-0.125,1.061C157.613,464.448,157.249,464.469,156.994,464.295z"/>
		</g>
		<g>
			<path fill="#00BF5A" d="M124.355,447.519c-0.255-0.172-0.361-0.521-0.245-0.851c0.147-0.395,0.575-0.613,0.947-0.498
				c9.316,3.019,17.041,7.452,24.296,13.931c0.289,0.256,0.3,0.727,0.025,1.051c-0.272,0.32-0.736,0.372-1.025,0.108
				c-7.117-6.356-14.686-10.698-23.824-13.661C124.462,447.583,124.407,447.554,124.355,447.519z"/>
		</g>
	</g>
</g>
</svg>
