<?xml version="1.0" encoding="utf-8"?>
<!-- Generator: Adobe Illustrator 16.0.4, SVG Export Plug-In . SVG Version: 6.00 Build 0)  -->
<!DOCTYPE svg PUBLIC "-//W3C//DTD SVG 1.1//EN" "http://www.w3.org/Graphics/SVG/1.1/DTD/svg11.dtd">
<svg version="1.1" id="Layer_1" xmlns="http://www.w3.org/2000/svg" xmlns:xlink="http://www.w3.org/1999/xlink" x="0px" y="0px"
	 width="626.4px" height="1022.4px" viewBox="72 46.8 626.4 1022.4" enable-background="new 72 46.8 626.4 1022.4"
	 xml:space="preserve">
<path fill="#FCFBFA" d="M2108.047,1848.271c7.864-7.365,20.26-6.954,27.625,0.907c7.355,7.857,6.947,20.241-0.919,27.608
	c-7.866,7.362-20.243,6.955-27.598-0.9C2099.791,1868.021,2100.189,1855.637,2108.047,1848.271z"/>
<path fill="#4F4E4E" stroke="#3F3F3F" stroke-miterlimit="10" d="M2096.416,1849.809c7.002-6.556,18.031-6.189,24.588,0.811
	c6.557,6.991,6.189,18.021-0.812,24.579c-6.986,6.548-18.021,6.191-24.566-0.812
	C2089.059,1867.386,2089.424,1856.367,2096.416,1849.809z"/>
<rect x="-3.856" y="23.171" fill="#3A3A3A" stroke="#FFFFFF" stroke-miterlimit="10" width="810.906" height="1089.011"/>
<path fill="#FCFBFA" d="M106.692,1278.718l57.535-6.719c0.799,1.179,1.693,2.31,2.7,3.38c10.415,11.122,27.944,11.7,39.067,1.279
	c11.127-10.42,11.7-27.949,1.283-39.07c-2.048-2.189-4.374-3.969-6.871-5.333l2.05-62.546c7.725-2.908,13.341-10.243,13.623-19.007
	l0.029-0.838c0.38-11.614-8.728-21.332-20.339-21.711l-11.947-0.391c-7.171-14.327-21.766-24.384-38.902-24.945l-17.852-0.578
	l-0.475,14.391l-2.413-0.086c-15.072-0.485-27.73,11.371-28.227,26.438l-0.222,6.725c-0.492,15.074,11.373,27.734,26.44,28.232
	l2.416,0.073l-0.475,14.396l17.858,0.583c16.243,0.538,30.768-7.603,39.124-20.235l-1.874,57.236
	c-3.991,1.188-7.771,3.281-11.016,6.315c-4.385,4.104-7.121,9.307-8.208,14.794l-71.369,8.334"/>
<path fill="#FCFBFA" d="M122.579,1165.317c-8.113-0.262-14.496-7.083-14.23-15.191l0.216-6.736
	c0.272-8.112,7.088-14.495,15.205-14.229l2.416,0.079l-1.181,36.156L122.579,1165.317z"/>
<polygon fill="#3F3F3F" stroke="#3F3F3F" stroke-miterlimit="10" points="108.877,397.981 148.888,263.919 285.274,232.765 
	381.659,335.674 341.652,469.736 205.261,500.89 "/>
<polyline fill="#3F3F3F" stroke="#3F3F3F" stroke-miterlimit="10" points="32.779,1071.418 73.124,937.045 209.843,905.584 
	306.228,1008.492 265.891,1142.865 129.331,1174.172 "/>
<polyline fill="#3F3F3F" stroke="#3F3F3F" stroke-miterlimit="10" points="22.274,1066.494 62.278,932.428 -34.104,829.518 
	-170.494,860.674 "/>
<polyline fill="#3F3F3F" stroke="#3F3F3F" stroke-miterlimit="10" points="871.213,484.571 829.874,619.879 692.147,652.279 
	595.765,549.37 637.104,414.064 774.991,381.504 "/>
<polyline fill="#3F3F3F" stroke="#3F3F3F" stroke-miterlimit="10" points="142.522,252.827 101.183,388.135 -36.543,420.537 
	-132.926,317.625 -91.585,182.319 46.3,149.761 "/>
<polyline fill="#3F3F3F" stroke="#3F3F3F" stroke-miterlimit="10" points="-270.188,745.582 -228.185,609.656 -89.801,576.629 
	6.585,679.541 -35.416,815.471 -173.638,848.338 "/>
<polyline fill="#3F3F3F" stroke="#3F3F3F" stroke-miterlimit="10" points="273.517,1334.274 330.654,1162.715 507.413,1124.578 
	627.044,1258.017 569.908,1429.581 393.362,1467.52 "/>
<polygon fill="#3F3F3F" stroke="#3F3F3F" stroke-miterlimit="10" points="407.278,723.773 448.952,588.154 587.007,555.44 
	683.395,658.35 641.717,793.971 503.666,826.684 "/>
<polygon fill="#3F3F3F" stroke="#3F3F3F" stroke-miterlimit="10" points="653.69,797.311 695.364,661.691 833.42,628.977 
	929.807,731.887 888.129,867.508 750.078,900.221 "/>
<polygon fill="#3F3F3F" stroke="#3F3F3F" stroke-miterlimit="10" points="464.688,974.057 506.362,838.438 644.419,805.725 
	740.806,908.633 699.126,1044.254 561.076,1076.967 "/>
<polygon fill="#3F3F3F" stroke="#3F3F3F" stroke-miterlimit="10" points="163.86,647.336 203.87,513.275 340.26,482.12 
	436.642,585.029 396.633,719.084 260.244,750.24 "/>
<polygon fill="#3F3F3F" stroke="#3F3F3F" stroke-miterlimit="10" points="352.613,475.287 392.626,341.23 529.013,310.076 
	625.397,412.98 585.392,547.046 449.002,578.195 "/>
<polygon fill="#3F3F3F" stroke="#3F3F3F" stroke-miterlimit="10" points="56.628,147.698 96.638,13.637 233.024,-17.519 
	329.41,85.392 289.402,219.452 153.012,250.607 "/>
<polyline fill="#3F3F3F" stroke="#3F3F3F" stroke-miterlimit="10" points="811.722,233.026 773.546,369.26 636.611,404.86 
	537.857,304.223 576.036,167.989 713.126,132.229 "/>
<polyline fill="#3F3F3F" stroke="#3F3F3F" stroke-miterlimit="10" points="568.272,161.728 530.666,295.95 395.757,331.029 
	298.458,231.883 336.066,97.662 471.13,62.423 "/>
<polygon fill="#3F3F3F" stroke="#3F3F3F" stroke-miterlimit="10" points="244.628,-19.302 284.638,-153.363 421.024,-184.519 
	517.409,-81.608 477.401,52.452 341.012,83.607 "/>
<polyline fill="#3F3F3F" stroke="#3F3F3F" stroke-miterlimit="10" points="752.274,-12.266 714.661,121.955 579.751,157.027 
	482.456,57.877 520.07,-76.342 655.136,-111.575 "/>
<polygon fill="#3F3F3F" stroke="#3F3F3F" stroke-miterlimit="10" points="218.945,897.906 260.625,762.287 398.673,729.574 
	495.062,832.484 453.386,968.104 315.332,1000.818 "/>
<polygon fill="#3F3F3F" stroke="#3F3F3F" stroke-miterlimit="10" points="274.517,1147.893 316.197,1012.273 454.245,979.561 
	550.634,1082.471 508.958,1218.09 370.904,1250.805 "/>
<polygon fill="#3F3F3F" stroke="#3F3F3F" stroke-miterlimit="10" points="-81.81,570.668 -40.137,435.048 97.918,402.335 
	194.306,505.245 152.631,640.865 14.576,673.578 "/>
<polygon fill="#3F3F3F" stroke="#3F3F3F" stroke-miterlimit="10" points="-26.124,820.92 15.55,685.299 153.607,652.586 
	249.993,755.496 208.315,891.117 70.265,923.828 "/>
<g id="personalMotivation">
</g>
<g id="inspire">
</g>
</svg>
