<?xml version="1.0" encoding="utf-8"?>
<!-- Generator: Adobe Illustrator 16.0.4, SVG Export Plug-In . SVG Version: 6.00 Build 0)  -->
<!DOCTYPE svg PUBLIC "-//W3C//DTD SVG 1.1//EN" "http://www.w3.org/Graphics/SVG/1.1/DTD/svg11.dtd">
<svg version="1.1" id="Layer_1" xmlns="http://www.w3.org/2000/svg" xmlns:xlink="http://www.w3.org/1999/xlink" x="0px" y="0px"
	 width="462.96px" height="504px" viewBox="0 0 462.96 504" enable-background="new 0 0 462.96 504" xml:space="preserve">
<polygon fill="#ED5D75" stroke="#EFEFEF" stroke-width="5" stroke-miterlimit="10" points="188.51,172.473 145.62,97.598 
	188.51,22.724 274.292,22.724 317.183,97.598 274.292,172.473 "/>
<polygon fill="#666666" points="188.588,330.473 145.698,255.598 188.588,180.724 274.371,180.724 317.261,255.598 274.371,330.473 
	"/>
<polygon fill="#B482E0" stroke="#EFEFEF" stroke-width="5" stroke-miterlimit="10" points="51.891,251.389 9.002,176.514 
	51.891,101.639 137.678,101.639 180.565,176.514 137.678,251.389 "/>
<polygon fill="#F29111" stroke="#EFEFEF" stroke-width="5" stroke-miterlimit="10" points="325.265,251.922 282.375,177.047 
	325.265,102.172 411.05,102.172 453.939,177.047 411.05,251.922 "/>
<text transform="matrix(1 0 0 1 194.6953 49.9561)" fill="#EFEFEF" font-family="'CenturyGothic-Bold'" font-size="16.0098">0</text>
<text transform="matrix(1 0 0 1 331.3687 123.7607)" fill="#EFEFEF" font-family="'CenturyGothic-Bold'" font-size="16.0098">0</text>
<text transform="matrix(1 0 0 1 55.9424 127.8711)" fill="#EFEFEF" font-family="'CenturyGothic-Bold'" font-size="16.0098">0</text>
<polygon fill="#7791E5" stroke="#EFEFEF" stroke-width="5" stroke-miterlimit="10" points="51.322,410.243 8.432,335.368 
	51.322,260.493 137.108,260.493 179.996,335.368 137.108,410.243 "/>
<polygon fill="#00BF5A" stroke="#EFEFEF" stroke-width="5" stroke-miterlimit="10" points="187.94,489.226 145.051,414.351 
	187.94,339.476 273.724,339.476 316.615,414.351 273.724,489.226 "/>
<polygon fill="#DBAF00" stroke="#EFEFEF" stroke-width="5" stroke-miterlimit="10" points="325.697,410.776 282.806,335.901 
	325.697,261.027 411.482,261.027 454.369,335.901 411.482,410.776 "/>
<text transform="matrix(1 0 0 1 194.126 367.708)" fill="#EFEFEF" font-family="'CenturyGothic-Bold'" font-size="16.0098">0</text>
<text transform="matrix(1 0 0 1 55.6953 287.9209)" fill="#EFEFEF" font-family="'CenturyGothic-Bold'" font-size="16.0098">0</text>
<text transform="matrix(1 0 0 1 330.7983 289.9209)" fill="#EFEFEF" font-family="'CenturyGothic-Bold'" font-size="16.0098">0</text>
<text transform="matrix(1 0 0 1 194.126 201.9209)" fill="#EFEFEF" font-family="'CenturyGothic-Bold'" font-size="16.0098">0</text>
<path fill="#E0DEDE" d="M274.462,251.332c0-20.685-19.258-34.799-42.984-34.799l0,0c-23.725,0-42.979,14.116-42.979,34.799
	c0,7.053,1.239,13.357,3.472,18.85c-1.55,2.073-2.473,4.652-2.473,7.439c0,6.854,5.558,12.408,12.407,12.408
	c1.929,0,3.745-0.437,5.368-1.219c-1.199,1.193-1.946,2.838-1.946,4.657c0,3.621,2.935,6.554,6.554,6.554
	c5.693,0,6.574-6.33,6.587-6.328c-0.077,0.399-0.116,0.802-0.116,1.225c0,3.614,2.93,6.55,6.549,6.55
	c3.441,0,6.304-2.647,6.578-6.02c0,0-0.005,0,0,0c0.272,3.375,3.14,6.02,6.582,6.02c3.614,0,6.55-2.932,6.55-6.55
	c0-0.423-0.04-0.824-0.121-1.225c0.018-0.004,0.895,6.328,6.586,6.328c3.617,0,6.553-2.933,6.553-6.554
	c0-1.819-0.744-3.466-1.943-4.657c1.626,0.782,3.445,1.219,5.363,1.219c6.857,0,12.414-5.557,12.414-12.408
	c0-2.786-0.918-5.366-2.475-7.439C273.221,264.689,274.462,258.385,274.462,251.332z M209.839,271.666
	c-5.687,0-10.304-4.611-10.304-10.305c0-5.688,4.618-10.304,10.304-10.304c5.692,0,10.309,4.617,10.309,10.304
	C220.149,267.055,215.532,271.666,209.839,271.666z M234.65,284.779c-2.55,0-2.83-2.918-3.195-2.918
	c-0.366,0-0.648,2.918-3.197,2.918c-1.616,0-2.661-1.312-2.661-2.932c0-4.337,3.377-6.343,5.858-6.343h0.005
	c2.474,0,5.854,2.004,5.854,6.343C237.314,283.467,236.265,284.779,234.65,284.779z M253.07,271.666
	c-5.693,0-10.307-4.611-10.307-10.305c0-5.688,4.611-10.304,10.307-10.304c5.692,0,10.309,4.617,10.309,10.304
	C263.375,267.055,258.759,271.666,253.07,271.666z"/>
</svg>
