<?xml version="1.0" encoding="utf-8"?>
<!-- Generator: Adobe Illustrator 16.0.4, SVG Export Plug-In . SVG Version: 6.00 Build 0)  -->
<!DOCTYPE svg PUBLIC "-//W3C//DTD SVG 1.1//EN" "http://www.w3.org/Graphics/SVG/1.1/DTD/svg11.dtd">
<svg version="1.1" id="Layer_1" xmlns="http://www.w3.org/2000/svg" xmlns:xlink="http://www.w3.org/1999/xlink" x="0px" y="0px"
	 width="462.967px" height="404px" viewBox="0 0 462.967 404" enable-background="new 0 0 462.967 404" xml:space="preserve">
<g>
	<polygon fill="#ED2F47" stroke="#EFEFEF" stroke-width="17" stroke-miterlimit="10" points="120.636,395.5 9.795,202 120.636,8.5 
		342.331,8.5 453.171,202 342.331,395.5 	"/>
	<g id="_x39__3_">
		<path fill="#EFEFEF" d="M274.974,198.556c0-0.47,0-23.464,0-23.933c-0.464,0-86.511,0-86.958,0c0,0.469,0,23.463,0,23.933
			C188.463,198.556,274.51,198.556,274.974,198.556z"/>
		<path fill="#EFEFEF" d="M128.184,206.285c0-0.462,0-38.93,0-39.393c-0.428,0-7.436,0-7.863,0c0,0.463,0,38.931,0,39.393
			C120.754,206.285,127.756,206.285,128.184,206.285z"/>
		<path fill="#EFEFEF" d="M334.804,166.893c0,0.463-0.007,38.931-0.007,39.393c0.435,0,7.422,0,7.863,0
			c0-1.154-0.015-38.973-0.015-39.393C342.219,166.893,335.231,166.893,334.804,166.893z"/>
		<path fill="#EFEFEF" d="M107.311,193.962c-0.104-0.532-3.094-14.956-3.158-15.327c-0.35,0-5.986,0-6.512,0
			c0.119,0.547,3.096,14.956,3.166,15.327C101.157,193.962,106.8,193.962,107.311,193.962z"/>
		<path fill="#EFEFEF" d="M116.127,178.635c-0.428,0-7.17,0-7.709,0c0.118,0.547,3.094,14.956,3.186,15.327c0.328,0,4.117,0,4.523,0
			C116.127,193.514,116.127,179.104,116.127,178.635z"/>
		<path fill="#EFEFEF" d="M85.752,193.962c-0.111-0.546-3.095-14.956-3.165-15.327c-0.343,0-4.005,0-4.425,0
			c0,0.47,0,14.879,0,15.327C78.596,193.962,85.235,193.962,85.752,193.962z"/>
		<path fill="#EFEFEF" d="M96.536,193.962c-0.112-0.532-3.102-14.956-3.165-15.327c-0.356,0-5.993,0-6.512,0
			c0.112,0.547,3.102,14.956,3.172,15.327C90.387,193.962,96.024,193.962,96.536,193.962z"/>
		<path fill="#EFEFEF" d="M346.84,178.635c0,0.47,0,14.879,0,15.327c0.435,0,7.072,0,7.599,0
			c-0.119-0.532-3.097-14.956-3.166-15.327C350.922,178.635,347.26,178.635,346.84,178.635z"/>
		<path fill="#EFEFEF" d="M366.333,178.635c0.104,0.567,3.081,14.956,3.158,15.327c0.351,0,5.986,0,6.512,0
			c-0.111-0.532-3.104-14.956-3.179-15.327C372.481,178.635,366.853,178.635,366.333,178.635z"/>
		<path fill="#EFEFEF" d="M377.103,178.635c0.112,0.567,3.103,14.956,3.172,15.327c0.336,0,4.132,0,4.537,0
			c0-0.448,0-14.857,0-15.327C384.377,178.635,377.635,178.635,377.103,178.635z"/>
		<path fill="#EFEFEF" d="M355.537,178.635c0.119,0.567,3.103,14.956,3.172,15.327c0.343,0,5.993,0,6.512,0
			c-0.112-0.532-3.102-14.956-3.172-15.327C361.698,178.635,356.069,178.635,355.537,178.635z"/>
		<path fill="#EFEFEF" d="M183.821,251.042c0-0.478,0-128.437,0-128.913c-0.469,0-25.752,0-26.207,0c0,0.238,0,128.464,0,128.913
			C158.069,251.042,183.352,251.042,183.821,251.042z"/>
		<path fill="#EFEFEF" d="M153.418,231.248c0-0.463,0-88.862,0-89.324c-0.455,0-20.592,0-21.04,0c0,0.462,0,88.861,0,89.324
			C132.833,231.248,152.985,231.248,153.418,231.248z"/>
		<path fill="#EFEFEF" d="M279.174,122.129c0,0.476,0,128.436,0,128.913c0.455,0,25.746,0,26.201,0c0-0.448,0-128.611,0-128.913
			C304.92,122.129,279.622,122.129,279.174,122.129z"/>
		<path fill="#EFEFEF" d="M309.562,141.924c0,0.462,0,88.861,0,89.324c0.448,0,20.586,0,21.049,0c0-0.463,0-88.862,0-89.324
			C330.162,141.924,310.01,141.924,309.562,141.924z"/>
	</g>
	<text transform="matrix(1 0 0 1 127.3442 69.7344)" fill="#EFEFEF" font-family="'CenturyGothic-Bold'" font-size="50.1898">10</text>
</g>
</svg>
