<?xml version="1.0" encoding="utf-8"?>
<!-- Generator: Adobe Illustrator 16.0.4, SVG Export Plug-In . SVG Version: 6.00 Build 0)  -->
<!DOCTYPE svg PUBLIC "-//W3C//DTD SVG 1.1//EN" "http://www.w3.org/Graphics/SVG/1.1/DTD/svg11.dtd">
<svg version="1.1" id="Layer_1" xmlns="http://www.w3.org/2000/svg" xmlns:xlink="http://www.w3.org/1999/xlink" x="0px" y="0px"
	 width="462.96px" height="504px" viewBox="0.003 108 462.96 504" enable-background="new 0.003 108 462.96 504"
	 xml:space="preserve">
<polygon fill="#5DDB5D" stroke="#EFEFEF" stroke-width="5" stroke-miterlimit="10" points="189.078,273.749 146.188,198.874 
	189.078,124 274.862,124 317.751,198.874 274.862,273.749 "/>
<polygon fill="#F4AA16" stroke="#EFEFEF" stroke-width="5" stroke-miterlimit="10" points="52.459,352.665 9.571,277.79 
	52.459,202.915 138.246,202.915 181.134,277.79 138.246,352.665 "/>
<polygon fill="#D14AED" stroke="#EFEFEF" stroke-width="5" stroke-miterlimit="10" points="325.833,353.198 282.944,278.323 
	325.833,203.448 411.619,203.448 454.507,278.323 411.619,353.198 "/>
<polygon fill="#939393" stroke="#EFEFEF" stroke-width="5" stroke-miterlimit="10" points="189.078,432.713 146.188,357.838 
	189.078,282.963 274.862,282.963 317.751,357.838 274.862,432.713 "/>
<text transform="matrix(1 0 0 1 195.2637 151.2329)" fill="#EFEFEF" font-family="'CenturyGothic-Bold'" font-size="16.0098">18</text>
<text transform="matrix(1 0 0 1 331.9365 225.0376)" fill="#EFEFEF" font-family="'CenturyGothic-Bold'" font-size="16.0098">15</text>
<text transform="matrix(1 0 0 1 56.5107 229.1479)" fill="#EFEFEF" font-family="'CenturyGothic-Bold'" font-size="16.0098">17</text>
<text transform="matrix(1 0 0 1 195.2637 309.1968)" fill="#EFEFEF" font-family="'CenturyGothic-Bold'" font-size="16.0098">1</text>
<polygon fill="#5EB9DD" stroke="#EFEFEF" stroke-width="5" stroke-miterlimit="10" points="51.89,512.52 9,437.645 51.89,362.77 
	137.677,362.77 180.564,437.645 137.677,512.52 "/>
<polygon fill="#F4DF1E" stroke="#EFEFEF" stroke-width="5" stroke-miterlimit="10" points="188.509,591.502 145.619,516.627 
	188.509,441.752 274.293,441.752 317.182,516.627 274.293,591.502 "/>
<polygon fill="#ED2F47" stroke="#EFEFEF" stroke-width="5" stroke-miterlimit="10" points="326.264,513.053 283.374,438.178 
	326.264,363.305 412.05,363.305 454.938,438.178 412.05,513.053 "/>
<text transform="matrix(1 0 0 1 194.6943 468.9844)" fill="#EFEFEF" font-family="'CenturyGothic-Bold'" font-size="16.0098">8</text>
<text transform="matrix(1 0 0 1 56.2637 389.1973)" fill="#EFEFEF" font-family="'CenturyGothic-Bold'" font-size="16.0098">10</text>
<text transform="matrix(1 0 0 1 331.3672 391.1973)" fill="#EFEFEF" font-family="'CenturyGothic-Bold'" font-size="16.0098">9</text>
<path fill="#FFFFFF" d="M273.87,355.264c0-18.997-17.683-31.958-39.471-31.958l0,0c-21.788,0-39.469,12.962-39.469,31.958
	c0,6.474,1.138,12.265,3.188,17.308c-1.422,1.902-2.27,4.272-2.27,6.83c0,6.294,5.104,11.397,11.393,11.397
	c1.771,0,3.438-0.4,4.93-1.12c-1.101,1.095-1.786,2.606-1.786,4.278c0,3.323,2.694,6.018,6.018,6.018
	c5.228,0,6.037-5.814,6.048-5.812c-0.069,0.365-0.106,0.736-0.106,1.122c0,3.322,2.691,6.017,6.015,6.017
	c3.159,0,5.789-2.432,6.04-5.529c0,0-0.003,0,0,0c0.251,3.098,2.883,5.529,6.043,5.529c3.32,0,6.015-2.694,6.015-6.017
	c0-0.386-0.037-0.757-0.11-1.122c0.015-0.003,0.821,5.812,6.049,5.812c3.32,0,6.015-2.694,6.015-6.018
	c0-1.672-0.683-3.184-1.783-4.278c1.492,0.72,3.163,1.12,4.926,1.12c6.297,0,11.397-5.104,11.397-11.397
	c0-2.558-0.843-4.928-2.273-6.83C272.73,367.529,273.87,361.738,273.87,355.264z M214.527,373.936c-5.222,0-9.462-4.235-9.462-9.463
	c0-5.224,4.24-9.462,9.462-9.462c5.227,0,9.467,4.239,9.467,9.462C223.994,369.7,219.754,373.936,214.527,373.936z M237.311,385.977
	c-2.342,0-2.601-2.679-2.934-2.679c-0.339,0-0.596,2.679-2.935,2.679c-1.486,0-2.445-1.206-2.445-2.692
	c0-3.983,3.103-5.826,5.38-5.826h0.003c2.273,0,5.377,1.843,5.377,5.826C239.757,384.771,238.795,385.977,237.311,385.977z
	 M254.227,373.936c-5.23,0-9.465-4.235-9.465-9.463c0-5.224,4.234-9.462,9.465-9.462c5.225,0,9.462,4.239,9.462,9.462
	C263.688,369.7,259.451,373.936,254.227,373.936z"/>
<g id="_x32_1_1_">
	<path fill="#F9F9F9" d="M399.409,256.474c4.49,0,8.14-3.653,8.14-8.14c0-4.496-3.649-8.14-8.14-8.14
		c-4.483,0-8.142,3.644-8.142,8.14C391.268,252.82,394.926,256.474,399.409,256.474z"/>
	<path fill="#F9F9F9" d="M416.407,262.45c-1.017-1.181-2.427-1.906-3.979-2.031c-1.562-0.125-3.065,0.362-4.256,1.376
		c0,0-7.274,6.205-9.069,7.728c-0.641-1.128-2.322-4.042-3.668-6.391c0.223-2.408-0.47-4.754-2.172-6.423
		c-0.421-0.42-0.9-0.771-1.402-1.065l0.026-0.026l-0.194-0.052c-1.01-0.56-2.137-0.86-3.312-0.935l-14.279-4.021l0.115,0.032
		l-1.371-0.29c0.147,0.026-2.452-0.013-2.452-0.013l-17.563,3.624c-1.563,0.324-2.929,1.256-3.759,2.549
		c-0.782,1.229-1.027,2.675-0.695,4.071c0.703,2.958,3.812,4.836,6.936,4.195c0,0,15.618-3.226,16.155-3.34
		c0.211,0.058,2.104,0.541,4.303,1.106l-4.242,4.311l11.663,12.097l4.959-5.048l4.201,7.3c1.602,2.792,5.171,3.75,7.961,2.155
		c0.003-0.022,1.749-1.003,1.749-1.003l13.685-11.674c1.195-1.01,1.916-2.422,2.04-3.979c0.009-0.159,0.017-0.314,0.017-0.47
		C417.803,264.844,417.315,263.517,416.407,262.45z"/>
	<path fill="#F9F9F9" d="M392.189,293.413l-11.832-11.554l0.675-0.687l-3.903-4.048l-1.157-1.207l-3.647-3.786l-1.229-1.276
		l-1.723-1.78l-1.857,1.894c-0.673,0.69-1.201,1.437-1.663,2.213l-42.094,29.701c-3.159,2.222-4.194,6.219-2.306,8.904
		c1.898,2.686,6.011,3.06,9.167,0.841l37.322-26.334c3.367,3.2,11.11,10.574,12.294,11.69c-1.373,1.608-14.49,17.016-14.49,17.016
		c-1.48,1.773-2.123,3.335-2.123,5.098c0,0.928,0.32,2.274,0.94,3.047c0,0,3.726,6.091,10.24-0.42l16.597-19.282
		c3.257-3.82,3.487-6.518,0.839-9.959L392.189,293.413z"/>
</g>
<g id="_x39__1_">
	<path fill="#FCFCFC" d="M388.011,440.071c0-0.162,0-8.187,0-8.351c-0.163,0-30.185,0-30.342,0c0,0.164,0,8.188,0,8.351
		C357.826,440.071,387.848,440.071,388.011,440.071z"/>
	<path fill="#FCFCFC" d="M336.791,442.77c0-0.163,0-13.585,0-13.745c-0.149,0-2.595,0-2.742,0c0,0.16,0,13.582,0,13.745
		C334.199,442.77,336.642,442.77,336.791,442.77z"/>
	<path fill="#FCFCFC" d="M408.886,429.024c0,0.16-0.003,13.582-0.003,13.745c0.152,0,2.59,0,2.744,0
		c0-0.403-0.005-13.599-0.005-13.745C411.473,429.024,409.035,429.024,408.886,429.024z"/>
	<path fill="#FCFCFC" d="M329.508,438.469c-0.036-0.185-1.079-5.218-1.103-5.348c-0.121,0-2.089,0-2.27,0
		c0.039,0.19,1.08,5.22,1.104,5.348C327.359,438.469,329.33,438.469,329.508,438.469z"/>
	<path fill="#FCFCFC" d="M332.585,433.121c-0.149,0-2.502,0-2.69,0c0.042,0.19,1.079,5.22,1.11,5.348c0.116,0,1.438,0,1.58,0
		C332.585,438.313,332.585,433.284,332.585,433.121z"/>
	<path fill="#FCFCFC" d="M321.987,438.469c-0.041-0.189-1.081-5.218-1.104-5.348c-0.122,0-1.399,0-1.544,0c0,0.163,0,5.192,0,5.348
		C319.488,438.469,321.804,438.469,321.987,438.469z"/>
	<path fill="#FCFCFC" d="M325.749,438.469c-0.039-0.185-1.082-5.218-1.105-5.348c-0.124,0-2.091,0-2.271,0
		c0.039,0.19,1.082,5.22,1.107,5.348C323.604,438.469,325.571,438.469,325.749,438.469z"/>
	<path fill="#FCFCFC" d="M413.086,433.121c0,0.163,0,5.192,0,5.348c0.152,0,2.468,0,2.651,0c-0.041-0.185-1.079-5.218-1.105-5.348
		C414.511,433.121,413.232,433.121,413.086,433.121z"/>
	<path fill="#FCFCFC" d="M419.889,433.121c0.036,0.196,1.074,5.22,1.103,5.348c0.121,0,2.086,0,2.271,0
		c-0.042-0.185-1.084-5.218-1.109-5.348C422.034,433.121,420.069,433.121,419.889,433.121z"/>
	<path fill="#FCFCFC" d="M423.645,433.121c0.041,0.196,1.082,5.22,1.108,5.348c0.116,0,1.439,0,1.582,0c0-0.155,0-5.185,0-5.348
		C426.186,433.121,423.831,433.121,423.645,433.121z"/>
	<path fill="#FCFCFC" d="M416.12,433.121c0.043,0.196,1.084,5.22,1.106,5.348c0.119,0,2.092,0,2.272,0
		c-0.039-0.185-1.082-5.218-1.105-5.348C418.27,433.121,416.308,433.121,416.12,433.121z"/>
	<path fill="#FCFCFC" d="M356.204,458.387c0-0.168,0-44.816,0-44.981c-0.162,0-8.986,0-9.144,0c0,0.083,0,44.824,0,44.981
		C347.218,458.387,356.042,458.387,356.204,458.387z"/>
	<path fill="#FCFCFC" d="M345.597,451.479c0-0.162,0-31.006,0-31.167c-0.157,0-7.185,0-7.342,0c0,0.161,0,31.005,0,31.167
		C338.414,451.479,345.446,451.479,345.597,451.479z"/>
	<path fill="#FCFCFC" d="M389.477,413.405c0,0.165,0,44.813,0,44.981c0.157,0,8.981,0,9.142,0c0-0.157,0-44.876,0-44.981
		C398.458,413.405,389.632,413.405,389.477,413.405z"/>
	<path fill="#FCFCFC" d="M400.08,420.312c0,0.161,0,31.005,0,31.167c0.154,0,7.182,0,7.342,0c0-0.162,0-31.006,0-31.167
		C407.267,420.312,400.234,420.312,400.08,420.312z"/>
</g>
<g>
	<path fill="#FCFBFA" d="M141.639,269.992c-5.458-3.331-11.101-5.948-17.088-7.889c-5.816-1.882-11.653-3.016-17.468-3.418
		c-5.333-3.209-10.952-5.776-16.777-7.666c-5.99-1.937-11.956-3.07-17.937-3.434l-1.601-0.064l-15.687,48.457l2.172,0.51
		c5.799,1.389,11.408,2.954,17.049,4.786c4.997,1.611,9.572,3.288,14.006,5.111l-0.103,0.314c0,0,0.675,0.982,3.017,1.742
		c2.344,0.756,3.479,0.361,3.479,0.361l0.103-0.318c4.657,1.125,9.19,2.396,14.193,4.013c5.637,1.826,10.908,3.778,16.417,6.054
		l1.763,0.763l15.689-48.493L141.639,269.992z"/>
</g>
<g>
	<path fill="#F4AA16" d="M126.436,316.391c-11.18-4.608-22.604-8.304-34.364-11.116c4.78-14.75,9.556-29.503,14.328-44.252
		c12.093,0.738,24.047,4.826,34.358,11.117C135.983,286.89,131.207,301.642,126.436,316.391z"/>
</g>
<g>
	<path fill="#F4AA16" d="M92.071,305.275c-11.173-4.612-22.597-8.311-34.35-11.121c4.774-14.753,9.546-29.5,14.323-44.251
		c12.09,0.737,24.042,4.825,34.354,11.12C101.627,275.771,96.852,290.524,92.071,305.275z"/>
</g>
<g>
	<g>
		<path fill="#F9F9F9" d="M92.071,305.275c-9.834-6.889-20.267-10.264-32.276-10.452c4.76-14.7,9.522-29.406,14.276-44.108
			c12.622-1.671,22.971,1.834,32.28,10.445C101.59,275.863,96.838,290.567,92.071,305.275z"/>
	</g>
</g>
<g>
	<g>
		<path fill="#F9F9F9" d="M91.813,305.19c12.011,0.185,22.444,3.563,32.281,10.446c4.762-14.706,9.519-29.409,14.28-44.112
			c-9.248-8.745-19.687-11.968-32.281-10.446C101.333,275.781,96.575,290.484,91.813,305.19z"/>
	</g>
</g>
<g>
	<g>
		<g>
			<path fill="#F4AA16" d="M133.175,274.243c-0.044-0.013-0.082-0.028-0.117-0.056c-7.677-5.073-15.53-7.618-24.729-8.001
				c-0.282-0.013-0.492-0.268-0.467-0.572c0.024-0.305,0.277-0.538,0.559-0.526c9.375,0.39,17.385,2.984,25.208,8.16
				c0.241,0.156,0.298,0.495,0.143,0.754C133.634,274.222,133.394,274.313,133.175,274.243z"/>
		</g>
		<g>
			<path fill="#F4AA16" d="M132.153,277.405c-0.039-0.016-0.077-0.034-0.12-0.06c-7.671-5.073-15.53-7.618-24.725-8.002
				c-0.285-0.012-0.498-0.267-0.469-0.57c0.024-0.301,0.275-0.538,0.556-0.527c9.374,0.391,17.385,2.985,25.209,8.16
				c0.239,0.159,0.302,0.492,0.146,0.755C132.619,277.376,132.369,277.474,132.153,277.405z"/>
		</g>
		<g>
			<path fill="#F4AA16" d="M131.125,280.557c-0.037-0.011-0.071-0.027-0.107-0.056c-7.68-5.076-15.54-7.616-24.733-8.001
				c-0.282-0.013-0.489-0.268-0.47-0.571c0.029-0.304,0.277-0.537,0.559-0.524c9.374,0.39,17.385,2.98,25.208,8.159
				c0.239,0.155,0.305,0.492,0.145,0.751C131.593,280.536,131.346,280.63,131.125,280.557z"/>
		</g>
		<g>
			<path fill="#F4AA16" d="M105.138,275.637c-0.217-0.07-0.367-0.294-0.34-0.548c0.024-0.305,0.268-0.54,0.556-0.527
				c9.37,0.387,17.383,2.981,25.208,8.159c0.236,0.156,0.299,0.496,0.142,0.751c-0.155,0.261-0.472,0.347-0.707,0.192
				c-7.684-5.075-15.542-7.62-24.733-8.005C105.221,275.655,105.175,275.648,105.138,275.637z"/>
		</g>
		<g>
			<path fill="#F4AA16" d="M104.114,278.794c-0.208-0.071-0.355-0.279-0.341-0.529c0.013-0.304,0.257-0.549,0.536-0.549
				c3.334,0.01,6.661,0.4,9.877,1.16c0.28,0.062,0.44,0.355,0.367,0.65c-0.075,0.298-0.358,0.486-0.628,0.422
				c-3.156-0.743-6.409-1.123-9.668-1.133C104.205,278.815,104.16,278.807,104.114,278.794z"/>
		</g>
		<g>
			<path fill="#F4AA16" d="M103.089,281.952c-0.211-0.072-0.358-0.293-0.34-0.55c0.024-0.304,0.277-0.539,0.559-0.524
				c9.373,0.391,17.383,2.982,25.214,8.16c0.233,0.153,0.295,0.493,0.142,0.749c-0.16,0.265-0.481,0.348-0.715,0.19
				c-7.677-5.075-15.533-7.62-24.735-8.004C103.174,281.972,103.135,281.962,103.089,281.952z"/>
		</g>
		<g>
			<path fill="#F4AA16" d="M127.038,293.19c-0.038-0.013-0.076-0.034-0.108-0.056c-7.681-5.08-15.537-7.621-24.73-8.005
				c-0.285-0.011-0.49-0.267-0.467-0.572c0.019-0.3,0.274-0.538,0.55-0.524c9.38,0.393,17.391,2.982,25.214,8.157
				c0.238,0.161,0.298,0.493,0.141,0.757C127.505,293.163,127.257,293.259,127.038,293.19z"/>
		</g>
		<g>
			<path fill="#F4AA16" d="M126.021,296.347c-0.039-0.013-0.079-0.03-0.116-0.056c-7.676-5.079-15.532-7.623-24.729-8.005
				c-0.284-0.01-0.493-0.268-0.466-0.566c0.024-0.307,0.268-0.543,0.553-0.532c9.373,0.396,17.389,2.983,25.214,8.16
				c0.232,0.158,0.301,0.495,0.14,0.754C126.484,296.324,126.235,296.416,126.021,296.347z"/>
		</g>
		<g>
			<path fill="#F4AA16" d="M100.025,291.422c-0.208-0.067-0.354-0.279-0.34-0.529c0.013-0.304,0.258-0.549,0.539-0.549
				c3.069,0.01,6.136,0.343,9.116,0.988c0.277,0.062,0.446,0.348,0.369,0.646c-0.064,0.298-0.341,0.489-0.616,0.428
				c-2.92-0.629-5.918-0.956-8.923-0.96C100.122,291.446,100.075,291.436,100.025,291.422z"/>
		</g>
		<g>
			<path fill="#F4AA16" d="M123.976,302.662c-0.042-0.015-0.079-0.033-0.111-0.055c-7.68-5.08-15.536-7.624-24.732-8.005
				c-0.279-0.012-0.496-0.268-0.47-0.573c0.024-0.298,0.28-0.536,0.559-0.526c9.373,0.394,17.383,2.984,25.214,8.16
				c0.232,0.158,0.295,0.494,0.141,0.755C124.44,302.639,124.192,302.732,123.976,302.662z"/>
		</g>
		<g>
			<path fill="#F4AA16" d="M97.982,297.736c-0.214-0.07-0.363-0.288-0.338-0.545c0.024-0.308,0.271-0.542,0.559-0.53
				c5.105,0.207,9.742,1.019,14.578,2.559c0.272,0.097,0.41,0.393,0.318,0.682c-0.099,0.291-0.388,0.46-0.655,0.373
				c-4.751-1.513-9.31-2.315-14.333-2.517C98.067,297.757,98.024,297.747,97.982,297.736z"/>
		</g>
	</g>
</g>
<g>
	<g>
		<g>
			<path fill="#F4AA16" d="M101.2,263.889c-0.04-0.013-0.079-0.035-0.116-0.062c-7.618-5.239-15.474-7.78-24.718-8
				c-0.287-0.006-0.501-0.254-0.477-0.559c0.016-0.304,0.264-0.543,0.543-0.538c9.438,0.225,17.458,2.816,25.229,8.166
				c0.234,0.161,0.292,0.5,0.136,0.757C101.662,263.869,101.415,263.96,101.2,263.889z"/>
		</g>
		<g>
			<path fill="#F4AA16" d="M75.209,258.961c-0.219-0.068-0.361-0.284-0.348-0.534c0.027-0.306,0.267-0.543,0.553-0.538
				c9.437,0.222,17.449,2.816,25.229,8.164c0.234,0.158,0.285,0.498,0.129,0.755c-0.161,0.26-0.481,0.338-0.711,0.179
				c-7.621-5.242-15.474-7.784-24.718-8C75.295,258.985,75.25,258.98,75.209,258.961z"/>
		</g>
		<g>
			<path fill="#F4AA16" d="M99.158,270.206c-0.044-0.019-0.084-0.036-0.122-0.063c-7.618-5.239-15.474-7.783-24.718-8.001
				c-0.281-0.006-0.494-0.255-0.474-0.559c0.019-0.302,0.267-0.544,0.549-0.536c9.437,0.221,17.451,2.816,25.229,8.166
				c0.233,0.156,0.29,0.499,0.123,0.757C99.613,270.183,99.374,270.269,99.158,270.206z"/>
		</g>
		<g>
			<path fill="#F4AA16" d="M98.136,273.36c-0.037-0.013-0.084-0.034-0.122-0.057c-7.615-5.242-15.467-7.783-24.718-8.004
				c-0.279-0.004-0.499-0.258-0.474-0.559c0.019-0.304,0.265-0.543,0.547-0.537c9.436,0.223,17.454,2.816,25.227,8.167
				c0.234,0.158,0.294,0.5,0.133,0.752C98.594,273.342,98.349,273.431,98.136,273.36z"/>
		</g>
		<g>
			<path fill="#F4AA16" d="M72.142,268.433c-0.216-0.067-0.362-0.284-0.341-0.538c0.016-0.302,0.264-0.541,0.549-0.538
				c3.955,0.096,7.574,0.556,11.392,1.439c0.278,0.063,0.44,0.353,0.367,0.647c-0.07,0.298-0.354,0.49-0.626,0.424
				c-3.76-0.87-7.322-1.318-11.205-1.41C72.224,268.458,72.181,268.448,72.142,268.433z"/>
		</g>
		<g>
			<path fill="#F4AA16" d="M96.093,279.671c-0.044-0.01-0.084-0.032-0.121-0.057c-7.62-5.236-15.474-7.782-24.719-7.998
				c-0.282-0.006-0.494-0.261-0.474-0.559c0.016-0.308,0.267-0.546,0.547-0.543c9.437,0.225,17.454,2.822,25.229,8.166
				c0.234,0.162,0.291,0.504,0.127,0.759C96.553,279.654,96.31,279.743,96.093,279.671z"/>
		</g>
		<g>
			<path fill="#F4AA16" d="M70.097,274.75c-0.216-0.069-0.358-0.286-0.341-0.541c0.02-0.301,0.265-0.542,0.547-0.538
				c9.438,0.224,17.455,2.822,25.231,8.168c0.232,0.161,0.292,0.499,0.129,0.757c-0.163,0.255-0.481,0.337-0.717,0.176
				c-7.618-5.242-15.468-7.783-24.716-8C70.19,274.773,70.136,274.762,70.097,274.75z"/>
		</g>
		<g>
			<path fill="#F4AA16" d="M94.046,285.988c-0.037-0.012-0.083-0.032-0.116-0.061c-7.624-5.24-15.474-7.778-24.722-7.998
				c-0.284-0.005-0.494-0.258-0.473-0.563c0.02-0.304,0.261-0.543,0.544-0.536c9.437,0.224,17.455,2.821,25.229,8.167
				c0.232,0.161,0.295,0.498,0.135,0.758C94.505,285.967,94.256,286.058,94.046,285.988z"/>
		</g>
		<g>
			<path fill="#F4AA16" d="M68.057,281.06c-0.219-0.066-0.364-0.281-0.344-0.535c0.019-0.305,0.268-0.543,0.553-0.539
				c8.271,0.225,15.454,2.249,22.604,6.371c0.245,0.141,0.323,0.472,0.182,0.737c-0.145,0.271-0.461,0.377-0.704,0.233
				c-7.009-4.042-14.048-6.023-22.161-6.242C68.139,281.084,68.095,281.079,68.057,281.06z"/>
		</g>
		<g>
			<path fill="#F4AA16" d="M91.919,292.57c-0.038-0.017-0.084-0.036-0.122-0.062c-7.618-5.239-15.468-7.782-24.718-8.001
				c-0.279-0.005-0.496-0.255-0.477-0.559c0.021-0.307,0.267-0.549,0.549-0.54c9.436,0.227,17.455,2.819,25.232,8.168
				c0.23,0.156,0.291,0.499,0.125,0.754C92.375,292.548,92.128,292.637,91.919,292.57z"/>
		</g>
		<g>
			<path fill="#F4AA16" d="M65.926,287.641c-0.215-0.069-0.358-0.285-0.338-0.538c0.017-0.304,0.261-0.544,0.543-0.538
				c7.062,0.182,13.303,1.666,19.649,4.664c0.252,0.122,0.361,0.446,0.234,0.723c-0.125,0.281-0.432,0.406-0.687,0.287
				c-6.224-2.941-12.35-4.396-19.27-4.574C66.009,287.665,65.967,287.653,65.926,287.641z"/>
		</g>
	</g>
</g>
</svg>
