<?xml version="1.0" encoding="utf-8"?>
<!-- Generator: Adobe Illustrator 16.0.4, SVG Export Plug-In . SVG Version: 6.00 Build 0)  -->
<!DOCTYPE svg PUBLIC "-//W3C//DTD SVG 1.1//EN" "http://www.w3.org/Graphics/SVG/1.1/DTD/svg11.dtd">
<svg version="1.1" id="Layer_1" xmlns="http://www.w3.org/2000/svg" xmlns:xlink="http://www.w3.org/1999/xlink" x="0px" y="0px"
	 width="462.967px" height="720px" viewBox="0 -158 462.967 720" enable-background="new 0 -158 462.967 720" xml:space="preserve">
<polygon fill="#ED2F47" stroke="#EFEFEF" stroke-width="5" stroke-miterlimit="10" points="53.405,34.997 10.516,-39.877 
	53.405,-114.752 139.191,-114.752 182.079,-39.877 139.191,34.997 "/>
<polygon fill="#5EB9DD" stroke="#EFEFEF" stroke-width="5" stroke-miterlimit="10" points="190.023,113.979 147.133,39.104 
	190.023,-35.77 275.808,-35.77 318.696,39.104 275.808,113.979 "/>
<polygon fill="#F4AA16" stroke="#EFEFEF" stroke-width="5" stroke-miterlimit="10" points="53.405,192.894 10.516,118.02 
	53.405,43.145 139.191,43.145 182.079,118.02 139.191,192.894 "/>
<polygon fill="#EFE522" stroke="#EFEFEF" stroke-width="5" stroke-miterlimit="10" points="327.778,35.531 284.889,-39.343 
	327.778,-114.218 413.564,-114.218 456.452,-39.343 413.564,35.531 "/>
<polygon fill="#D14AED" stroke="#EFEFEF" stroke-width="5" stroke-miterlimit="10" points="326.778,193.428 283.889,118.553 
	326.778,43.678 412.564,43.678 455.452,118.553 412.564,193.428 "/>
<polygon fill="#5DDB5D" stroke="#EFEFEF" stroke-width="5" stroke-miterlimit="10" points="190.023,272.943 147.133,198.068 
	190.023,123.193 275.808,123.193 318.696,198.068 275.808,272.943 "/>
<text transform="matrix(1 0 0 1 62.793 -87.5186)" fill="#EFEFEF" font-family="'CenturyGothic-Bold'" font-size="16.0098">20</text>
<text transform="matrix(1 0 0 1 196.209 -8.5371)" fill="#EFEFEF" font-family="'CenturyGothic-Bold'" font-size="16.0098">18</text>
<text transform="matrix(1 0 0 1 332.8818 65.2671)" fill="#EFEFEF" font-family="'CenturyGothic-Bold'" font-size="16.0098">15</text>
<text transform="matrix(1 0 0 1 332.8818 -89.5742)" fill="#EFEFEF" font-family="'CenturyGothic-Bold'" font-size="16.0098">19</text>
<text transform="matrix(1 0 0 1 57.4561 69.3779)" fill="#EFEFEF" font-family="'CenturyGothic-Bold'" font-size="16.0098">17</text>
<text transform="matrix(1 0 0 1 196.209 149.4268)" fill="#EFEFEF" font-family="'CenturyGothic-Bold'" font-size="16.0098">12</text>
<polygon fill="#5EB9DD" stroke="#EFEFEF" stroke-width="5" stroke-miterlimit="10" points="52.835,352.749 9.946,277.875 
	52.835,203 138.622,203 181.51,277.875 138.622,352.749 "/>
<polygon fill="#EFE522" stroke="#EFEFEF" stroke-width="5" stroke-miterlimit="10" points="189.454,431.731 146.564,356.856 
	189.454,281.982 275.238,281.982 318.127,356.856 275.238,431.731 "/>
<polygon fill="#5DDB5D" stroke="#EFEFEF" stroke-width="5" stroke-miterlimit="10" points="52.835,510.646 9.946,435.771 
	52.835,360.896 138.622,360.896 181.51,435.771 138.622,510.646 "/>
<polygon fill="#ED2F47" stroke="#EFEFEF" stroke-width="5" stroke-miterlimit="10" points="327.209,353.283 284.319,278.408 
	327.209,203.534 412.995,203.534 455.883,278.408 412.995,353.283 "/>
<polygon fill="#F4AA16" stroke="#EFEFEF" stroke-width="5" stroke-miterlimit="10" points="326.209,511.18 283.319,436.305 
	326.209,361.43 411.995,361.43 454.883,436.305 411.995,511.18 "/>
<text transform="matrix(1 0 0 1 195.6396 309.2148)" fill="#EFEFEF" font-family="'CenturyGothic-Bold'" font-size="16.0098">8</text>
<text transform="matrix(1 0 0 1 332.3125 383.0195)" fill="#EFEFEF" font-family="'CenturyGothic-Bold'" font-size="16.0098">6</text>
<text transform="matrix(1 0 0 1 56.8867 387.1299)" fill="#EFEFEF" font-family="'CenturyGothic-Bold'" font-size="16.0098">7</text>
<text transform="matrix(1 0 0 1 57.209 229.4268)" fill="#EFEFEF" font-family="'CenturyGothic-Bold'" font-size="16.0098">10</text>
<text transform="matrix(1 0 0 1 332.3125 231.4268)" fill="#EFEFEF" font-family="'CenturyGothic-Bold'" font-size="16.0098">9</text>
</svg>
