<?xml version="1.0" encoding="utf-8"?>
<!-- Generator: Adobe Illustrator 16.0.4, SVG Export Plug-In . SVG Version: 6.00 Build 0)  -->
<!DOCTYPE svg PUBLIC "-//W3C//DTD SVG 1.1//EN" "http://www.w3.org/Graphics/SVG/1.1/DTD/svg11.dtd">
<svg version="1.1" id="Layer_1" xmlns="http://www.w3.org/2000/svg" xmlns:xlink="http://www.w3.org/1999/xlink" x="0px" y="0px"
	 width="725.152px" height="752px" viewBox="0 0 725.152 752" enable-background="new 0 0 725.152 752" xml:space="preserve">
<polygon fill="#B482E0" stroke="#FCFCFC" stroke-width="6" stroke-miterlimit="10" points="78.203,362 8.737,242 78.203,122 
	217.147,122 286.618,242 217.147,362 "/>
<polygon fill="#F29111" stroke="#FCFCFC" stroke-width="6" stroke-miterlimit="10" points="513.289,369 443.826,247 513.289,125 
	652.234,125 721.699,247 652.234,369 "/>
<polygon fill="#545354" stroke="#FCFCFC" stroke-width="6" stroke-miterlimit="10" points="294.271,491 224.803,371.5 294.271,252 
	433.207,252 502.673,371.5 433.207,491 "/>
<polygon fill="#ED5D75" stroke="#FCFCFC" stroke-width="6" stroke-miterlimit="10" points="297.23,242 227.762,122.5 297.23,3 
	436.169,3 505.642,122.5 436.169,242 "/>
<text transform="matrix(1 0 0 1 89.418 174.8525)" fill="#F9F9F9" font-family="'CenturyGothic-Bold'" font-size="35.949">0</text>
<text transform="matrix(1 0 0 1 302.4961 305.3721)" fill="#F9F9F9" font-family="'CenturyGothic-Bold'" font-size="31.4553">0</text>
<text transform="matrix(1 0 0 1 518.1226 175.8477)" fill="#FCFBFA" font-family="'CenturyGothic-Bold'" font-size="31.4553">0</text>
<polygon fill="#DBAF00" stroke="#FCFCFC" stroke-width="6" stroke-miterlimit="10" points="513.289,626 443.826,503.5 513.289,381 
	652.234,381 721.699,503.5 652.234,626 "/>
<text transform="matrix(1 0 0 1 518.1226 422.9951)" fill="#FCFBFA" font-family="'CenturyGothic-Bold'" font-size="31.4553">0</text>
<polygon fill="#7791E5" stroke="#FCFCFC" stroke-width="6" stroke-miterlimit="10" points="72.917,619 3.449,496.5 72.917,374 
	211.858,374 281.324,496.5 211.858,619 "/>
<polygon fill="#00BF5A" stroke="#FCFCFC" stroke-width="6" stroke-miterlimit="10" points="293.103,749 223.637,627.5 293.103,506 
	432.046,506 501.513,627.5 432.046,749 "/>
<text transform="matrix(1 0 0 1 302.4961 47.3467)" fill="#F9F9F9" font-family="'CenturyGothic-Bold'" font-size="31.4553">0</text>
<text transform="matrix(1 0 0 1 86.0088 422.9951)" fill="#FCFBFA" font-family="'CenturyGothic-Bold'" font-size="31.4553">0</text>
<text transform="matrix(1 0 0 1 299.1406 549.9414)" fill="#FCFBFA" font-family="'CenturyGothic-Bold'" font-size="31.4553">0</text>
<path fill="#FFFFFF" d="M432.853,365.783c0-32.333-30.098-54.395-67.182-54.395l0,0c-37.082,0-67.175,22.062-67.175,54.395
	c0,11.02,1.938,20.875,5.426,29.458c-2.42,3.239-3.863,7.271-3.863,11.625c0,10.713,8.687,19.398,19.392,19.398
	c3.013,0,5.851-0.682,8.391-1.906c-1.873,1.862-3.04,4.437-3.04,7.28c0,5.658,4.586,10.242,10.242,10.242
	c8.898,0,10.276-9.896,10.293-9.892c-0.118,0.621-0.181,1.255-0.181,1.912c0,5.653,4.582,10.239,10.238,10.239
	c5.375,0,9.85-4.141,10.277-9.411c0,0-0.006,0,0,0c0.429,5.271,4.91,9.411,10.285,9.411c5.65,0,10.236-4.586,10.236-10.239
	c0-0.657-0.062-1.291-0.186-1.912c0.021-0.004,1.396,9.892,10.295,9.892c5.652,0,10.238-4.584,10.238-10.242
	c0-2.845-1.162-5.418-3.035-7.28c2.539,1.226,5.381,1.906,8.383,1.906c10.717,0,19.4-8.687,19.4-19.398
	c0-4.354-1.439-8.386-3.871-11.625C430.912,386.658,432.853,376.803,432.853,365.783z M331.851,397.562
	c-8.888,0-16.105-7.21-16.105-16.107c0-8.89,7.217-16.104,16.105-16.104c8.895,0,16.112,7.215,16.112,16.104
	C347.963,390.353,340.746,397.562,331.851,397.562z M370.628,418.056c-3.983,0-4.426-4.559-4.994-4.559
	c-0.575,0-1.012,4.559-4.992,4.559c-2.531,0-4.163-2.053-4.163-4.583c0-6.779,5.282-9.916,9.155-9.916h0.006
	c3.869,0,9.152,3.137,9.152,9.916C374.792,416.003,373.154,418.056,370.628,418.056z M399.417,397.562
	c-8.899,0-16.106-7.21-16.106-16.107c0-8.89,7.207-16.104,16.106-16.104c8.893,0,16.107,7.215,16.107,16.104
	C415.525,390.353,408.31,397.562,399.417,397.562z"/>
<g>
	<path fill="#FCFCFC" d="M658.13,236.143c-9.701-5.914-19.725-10.572-30.359-14.015c-10.342-3.341-20.709-5.357-31.039-6.07
		c-9.479-5.702-19.453-10.271-29.809-13.621c-10.637-3.441-21.232-5.457-31.861-6.107l-2.854-0.117l-27.867,86.097l3.863,0.91
		c10.295,2.466,20.262,5.248,30.281,8.493c8.895,2.87,17.018,5.851,24.889,9.082l-0.188,0.558c0,0,1.205,1.75,5.357,3.101
		c4.162,1.349,6.186,0.638,6.186,0.638l0.188-0.564c8.281,1.996,16.33,4.267,25.217,7.129c10.02,3.247,19.383,6.718,29.178,10.757
		l3.123,1.355l27.881-86.157L658.13,236.143z"/>
</g>
<g>
	<path fill="#F29111" d="M631.113,318.584c-19.861-8.192-40.15-14.758-61.039-19.755c8.473-26.208,16.961-52.417,25.443-78.626
		c21.486,1.311,42.723,8.58,61.041,19.756C648.078,266.171,639.595,292.379,631.113,318.584z"/>
</g>
<g>
	<path fill="#F29111" d="M570.074,298.828c-19.865-8.191-40.15-14.757-61.043-19.755c8.479-26.21,16.967-52.419,25.441-78.623
		c21.494,1.309,42.725,8.577,61.043,19.755C587.037,246.415,578.55,272.622,570.074,298.828z"/>
</g>
<g>
	<g>
		<path fill="#FCFCFC" d="M570.074,298.828c-17.484-12.232-36.021-18.228-57.355-18.557c8.457-26.125,16.908-52.258,25.373-78.375
			c22.416-2.965,40.805,3.269,57.35,18.558C586.984,246.577,578.533,272.705,570.074,298.828z"/>
	</g>
</g>
<g>
	<g>
		<path fill="#FCFCFC" d="M569.613,298.679c21.332,0.328,39.871,6.329,57.354,18.561c8.453-26.127,16.916-52.256,25.367-78.376
			c-16.428-15.533-34.98-21.26-57.355-18.562C586.521,246.431,578.068,272.555,569.613,298.679z"/>
	</g>
</g>
<g>
	<g>
		<g>
			<path fill="#F29111" d="M643.089,243.704c-0.074-0.023-0.139-0.056-0.203-0.102c-13.646-9.019-27.605-13.538-43.945-14.215
				c-0.5-0.024-0.869-0.475-0.83-1.014c0.045-0.536,0.49-0.953,0.998-0.934c16.648,0.695,30.881,5.299,44.787,14.496
				c0.42,0.277,0.529,0.873,0.252,1.336C643.914,243.656,643.476,243.826,643.089,243.704z"/>
		</g>
		<g>
			<path fill="#F29111" d="M641.275,249.311c-0.074-0.024-0.141-0.062-0.203-0.102c-13.646-9.021-27.611-13.543-43.945-14.215
				c-0.494-0.024-0.867-0.476-0.822-1.015c0.043-0.536,0.486-0.957,0.988-0.935c16.645,0.696,30.887,5.301,44.791,14.498
				c0.424,0.274,0.537,0.868,0.256,1.332C642.099,249.269,641.656,249.433,641.275,249.311z"/>
		</g>
		<g>
			<path fill="#F29111" d="M639.455,254.92c-0.068-0.026-0.135-0.056-0.199-0.097c-13.646-9.026-27.607-13.539-43.943-14.225
				c-0.498-0.024-0.869-0.472-0.826-1.009c0.045-0.536,0.49-0.956,0.992-0.937c16.652,0.696,30.883,5.303,44.787,14.498
				c0.418,0.278,0.535,0.876,0.256,1.343C640.281,254.877,639.849,255.046,639.455,254.92z"/>
		</g>
		<g>
			<path fill="#F29111" d="M593.275,246.169c-0.391-0.117-0.646-0.515-0.605-0.971c0.045-0.536,0.486-0.955,0.988-0.938
				c16.65,0.691,30.883,5.301,44.787,14.497c0.424,0.28,0.537,0.882,0.258,1.344c-0.279,0.461-0.848,0.612-1.264,0.333
				c-13.639-9.021-27.609-13.541-43.939-14.219C593.425,246.205,593.349,246.197,593.275,246.169z"/>
		</g>
		<g>
			<path fill="#F29111" d="M591.462,251.781c-0.371-0.119-0.631-0.494-0.604-0.94c0.021-0.536,0.453-0.973,0.955-0.973
				c5.924,0.02,11.836,0.717,17.549,2.062c0.492,0.112,0.775,0.629,0.646,1.157c-0.135,0.533-0.629,0.864-1.115,0.744
				c-5.598-1.32-11.371-1.992-17.168-2.012C591.626,251.818,591.546,251.807,591.462,251.781z"/>
		</g>
		<g>
			<path fill="#F29111" d="M589.642,257.391c-0.383-0.127-0.641-0.527-0.604-0.979c0.037-0.538,0.488-0.958,0.982-0.932
				c16.654,0.694,30.896,5.298,44.793,14.495c0.43,0.277,0.537,0.877,0.254,1.337c-0.277,0.464-0.84,0.613-1.258,0.333
				c-13.645-9.016-27.602-13.536-43.939-14.221C589.794,257.427,589.716,257.414,589.642,257.391z"/>
		</g>
		<g>
			<path fill="#F29111" d="M632.195,277.357c-0.07-0.023-0.139-0.055-0.207-0.1c-13.637-9.015-27.596-13.539-43.932-14.215
				c-0.506-0.024-0.877-0.483-0.836-1.012c0.047-0.541,0.49-0.959,0.988-0.937c16.656,0.696,30.895,5.298,44.795,14.495
				c0.418,0.278,0.533,0.879,0.246,1.34C633.019,277.314,632.58,277.483,632.195,277.357z"/>
		</g>
		<g>
			<path fill="#F29111" d="M630.382,282.966c-0.072-0.023-0.139-0.056-0.211-0.1c-13.639-9.016-27.602-13.535-43.939-14.215
				c-0.504-0.024-0.873-0.476-0.828-1.012c0.037-0.536,0.492-0.956,0.984-0.941c16.658,0.7,30.895,5.307,44.797,14.497
				c0.422,0.273,0.531,0.872,0.248,1.336C631.207,282.921,630.767,283.093,630.382,282.966z"/>
		</g>
		<g>
			<path fill="#F29111" d="M584.199,274.217c-0.371-0.116-0.629-0.495-0.605-0.936c0.023-0.539,0.455-0.976,0.961-0.976
				c5.449,0.017,10.9,0.606,16.193,1.754c0.492,0.101,0.775,0.615,0.658,1.144c-0.117,0.532-0.613,0.872-1.102,0.768
				c-5.182-1.12-10.512-1.703-15.846-1.712C584.363,274.256,584.279,274.244,584.199,274.217z"/>
		</g>
		<g>
			<path fill="#F29111" d="M626.753,294.189c-0.07-0.024-0.141-0.055-0.211-0.096c-13.641-9.023-27.604-13.539-43.941-14.222
				c-0.5-0.02-0.875-0.475-0.828-1.015c0.043-0.536,0.49-0.955,0.996-0.937c16.648,0.698,30.883,5.303,44.791,14.498
				c0.422,0.28,0.527,0.875,0.252,1.338C627.572,294.142,627.132,294.309,626.753,294.189z"/>
		</g>
		<g>
			<path fill="#F29111" d="M580.568,285.435c-0.381-0.116-0.643-0.514-0.607-0.964c0.045-0.54,0.492-0.959,0.998-0.945
				c9.08,0.368,17.316,1.811,25.904,4.552c0.482,0.171,0.725,0.697,0.564,1.211c-0.17,0.514-0.686,0.815-1.16,0.661
				c-8.447-2.69-16.541-4.111-25.467-4.47C580.714,285.474,580.642,285.46,580.568,285.435z"/>
		</g>
	</g>
</g>
<g>
	<g>
		<g>
			<path fill="#F29111" d="M586.287,225.302c-0.074-0.025-0.145-0.056-0.215-0.109c-13.535-9.31-27.482-13.824-43.908-14.211
				c-0.502-0.014-0.883-0.458-0.848-0.999c0.035-0.539,0.479-0.968,0.979-0.957c16.766,0.397,31.008,5.011,44.824,14.505
				c0.418,0.287,0.521,0.892,0.23,1.349C587.101,225.264,586.666,225.423,586.287,225.302z"/>
		</g>
		<g>
			<path fill="#F29111" d="M540.099,216.547c-0.377-0.12-0.639-0.506-0.604-0.955c0.035-0.54,0.471-0.966,0.975-0.954
				c16.76,0.396,31.008,5.006,44.824,14.506c0.412,0.287,0.514,0.89,0.229,1.342c-0.285,0.458-0.855,0.6-1.268,0.317
				c-13.535-9.307-27.49-13.829-43.914-14.216C540.255,216.589,540.183,216.574,540.099,216.547z"/>
		</g>
		<g>
			<path fill="#F29111" d="M582.656,236.521c-0.068-0.03-0.145-0.068-0.213-0.117c-13.531-9.305-27.484-13.826-43.914-14.212
				c-0.5-0.009-0.883-0.458-0.844-0.998c0.031-0.539,0.473-0.962,0.977-0.954c16.764,0.396,31.006,5.009,44.828,14.511
				c0.41,0.283,0.516,0.885,0.23,1.336C583.47,236.482,583.033,236.642,582.656,236.521z"/>
		</g>
		<g>
			<path fill="#F29111" d="M580.839,242.13c-0.068-0.024-0.148-0.064-0.211-0.113c-13.527-9.304-27.484-13.826-43.912-14.214
				c-0.502-0.011-0.885-0.457-0.846-0.996c0.035-0.538,0.475-0.969,0.977-0.958c16.77,0.397,31.008,5.007,44.822,14.509
				c0.414,0.284,0.514,0.891,0.23,1.345C581.652,242.088,581.218,242.25,580.839,242.13z"/>
		</g>
		<g>
			<path fill="#F29111" d="M534.656,233.378c-0.377-0.117-0.637-0.509-0.607-0.953c0.033-0.542,0.477-0.969,0.975-0.958
				c7.025,0.167,13.463,0.977,20.252,2.554c0.486,0.115,0.77,0.634,0.637,1.161c-0.121,0.525-0.627,0.863-1.107,0.747
				c-6.672-1.544-13.002-2.345-19.912-2.51C534.806,233.418,534.728,233.4,534.656,233.378z"/>
		</g>
		<g>
			<path fill="#F29111" d="M577.208,253.348c-0.078-0.028-0.156-0.062-0.219-0.108c-13.537-9.313-27.484-13.825-43.91-14.214
				c-0.494-0.016-0.883-0.461-0.846-1.002c0.035-0.54,0.477-0.968,0.973-0.956c16.768,0.397,31.014,5.01,44.83,14.508
				c0.412,0.286,0.514,0.887,0.23,1.345C578.019,253.312,577.587,253.471,577.208,253.348z"/>
		</g>
		<g>
			<path fill="#F29111" d="M531.027,244.598c-0.385-0.122-0.639-0.506-0.609-0.958c0.037-0.545,0.471-0.968,0.977-0.954
				c16.766,0.393,31.01,5.007,44.824,14.508c0.412,0.283,0.52,0.88,0.23,1.341c-0.285,0.46-0.855,0.6-1.27,0.314
				c-13.535-9.314-27.484-13.829-43.914-14.217C531.177,244.635,531.099,244.624,531.027,244.598z"/>
		</g>
		<g>
			<path fill="#F29111" d="M573.574,264.566c-0.072-0.023-0.146-0.062-0.213-0.108c-13.537-9.307-27.486-13.824-43.908-14.214
				c-0.5-0.016-0.881-0.456-0.852-1.004c0.033-0.536,0.48-0.965,0.977-0.949c16.764,0.395,31.01,5.006,44.826,14.502
				c0.41,0.29,0.518,0.882,0.232,1.342C574.39,264.531,573.957,264.687,573.574,264.566z"/>
		</g>
		<g>
			<path fill="#F29111" d="M527.386,255.815c-0.371-0.121-0.631-0.51-0.604-0.958c0.041-0.536,0.48-0.96,0.979-0.956
				c14.703,0.403,27.477,3.991,40.172,11.316c0.436,0.257,0.576,0.841,0.318,1.314c-0.256,0.484-0.818,0.666-1.248,0.41
				c-12.449-7.179-24.957-10.702-39.381-11.087C527.544,255.853,527.464,255.839,527.386,255.815z"/>
		</g>
		<g>
			<path fill="#F29111" d="M569.796,276.255c-0.08-0.028-0.148-0.066-0.219-0.117c-13.537-9.304-27.49-13.825-43.914-14.209
				c-0.492-0.014-0.875-0.458-0.846-1.004c0.035-0.536,0.473-0.96,0.977-0.951c16.764,0.397,31.016,5.005,44.824,14.506
				c0.41,0.286,0.525,0.889,0.23,1.349C570.613,276.219,570.173,276.376,569.796,276.255z"/>
		</g>
		<g>
			<path fill="#F29111" d="M523.609,267.502c-0.375-0.117-0.635-0.508-0.609-0.956c0.037-0.538,0.482-0.963,0.98-0.956
				c12.543,0.323,23.643,2.965,34.906,8.287c0.449,0.21,0.635,0.785,0.414,1.283c-0.219,0.493-0.77,0.724-1.221,0.506
				c-11.049-5.224-21.926-7.809-34.229-8.129C523.763,267.542,523.683,267.527,523.609,267.502z"/>
		</g>
	</g>
</g>
<g>
	<path fill="#FCFAFA" d="M174.089,221.932c-1.294-0.088-2.472-0.128-3.561-0.128c-7.468,0-10.54,1.857-15.079,2.641
		c0.524-1.358,1.104-3.634,0.863-6.727c37.016,1.958,32.831-34.578,32.831-34.578c-27.294-3.104-32.974,18.199-34.122,28.78
		c-1.599-4.473-4.867-9.907-11.111-16.15c0,0-1.405,5.958-6.558,5.958c0,0,14.115,9.711,14.121,23.06
		c-0.024,0.001-0.045,0.002-0.07,0.002c-7.418,0-12.499-2.518-20.108-2.518c-1.192,0-2.447,0.061-3.781,0.204
		c-19.503,2.087-35.556,21.05-30.028,45.264c6.093,26.757,26.228,41.428,40.722,41.428c6.822,0,8.646-2.485,13.194-2.485
		c4.549,0,6.08,2.488,13.18,2.488c15.82,0,34.784-15.515,40.735-41.43C211.349,241.514,194.147,223.296,174.089,221.932z"/>
	<g>
		<path fill="#FCFAFA" d="M154.749,217.641c0,0-1.704-38.606,34.395-34.5C189.144,183.141,193.481,220.747,154.749,217.641z"/>
		<g>
			<path fill="#FCFAFA" d="M170.529,221.804c-9.458,0-11.854,2.986-19.125,2.986c-7.418,0-12.499-2.518-20.108-2.518
				c-1.192,0-2.447,0.061-3.781,0.204c-19.503,2.087-35.556,21.049-30.028,45.264c6.093,26.757,26.228,41.428,40.722,41.428
				c6.822,0,8.646-2.486,13.195-2.486c4.548,0,6.079,2.488,13.179,2.488c15.82,0,34.784-15.515,40.736-41.431
				c6.03-26.227-11.17-44.445-31.229-45.809C172.795,221.844,171.617,221.804,170.529,221.804L170.529,221.804z"/>
		</g>
	</g>
</g>
<g>
	<path fill="#FFFFFF" d="M443.205,118.243c0,4.351-0.713,8.643-2.096,12.769c-6.497,29.406-62.698,64.979-65.089,66.493
		c-0.747,0.464-1.585,0.708-2.438,0.708s-1.704-0.216-2.451-0.708c-0.643-0.418-16.476-10.409-32.529-24.144
		c-1.922-1.658-2.124-4.516-0.511-6.429c1.652-1.898,4.507-2.13,6.433-0.515c11.966,10.224,24.06,18.487,29.082,21.817
		c16.877-11.004,54.138-39,58.706-59.648c1.192-3.647,1.732-6.964,1.732-10.332c0-11.722-6.383-22.528-16.657-28.189
		c-13.126-7.282-30.692-3.924-40.294,7.65c-1.725,2.09-5.274,2.09-7.032,0c-9.63-11.583-27.183-14.914-40.289-7.663
		c-10.31,5.673-16.691,16.473-16.691,28.184c0,3.345,0.566,6.677,1.621,9.895c0.676,3.011,1.973,5.956,3.621,9.011h26.622
		l9.143-21.011c0.783-1.799,2.653-2.93,4.577-2.728c1.96,0.171,3.594,1.58,4.03,3.494l6.729,28.454l8.706-14.276
		c0.82-1.356,2.298-2.185,3.893-2.185h16.522c2.516,0,4.56,2.036,4.56,4.562c0,2.513-2.044,4.56-4.56,4.56h-13.962l-13.116,21.545
		c-0.836,1.373-2.312,2.193-3.879,2.193c-0.248,0-0.489-0.019-0.713-0.054c-1.837-0.295-3.284-1.65-3.726-3.448l-6.15-25.918
		l-4.859,11.187c-0.727,1.68-2.372,2.742-4.187,2.742h-53.191c-2.496,0-4.56-2.042-4.56-4.56c0-2.513,2.064-4.56,4.56-4.56h13.375
		c-0.949-2.265-1.716-4.462-2.191-6.588c-1.272-3.69-1.961-7.989-1.961-12.317c0-15.042,8.181-28.892,21.399-36.174
		c15.309-8.468,35.568-5.806,48.22,6.083c12.617-11.89,32.862-14.551,48.197-6.083C435,89.333,443.205,103.192,443.205,118.243z"/>
</g>
<g>
	<path fill="#00BF5A" d="M357.776,603.186c-0.331,0.433-0.648,0.877-0.973,1.319c4.939,1.306,11.734,3.126,15.467,4.961
		c0.355-1.197,0.712-2.308,1.088-3.375c-3.874-1.46-10.433-2.695-15.442-3.084C357.871,603.067,357.823,603.126,357.776,603.186z"/>
</g>
</svg>
