<?xml version="1.0" encoding="utf-8"?>
<!-- Generator: Adobe Illustrator 16.0.4, SVG Export Plug-In . SVG Version: 6.00 Build 0)  -->
<!DOCTYPE svg PUBLIC "-//W3C//DTD SVG 1.1//EN" "http://www.w3.org/Graphics/SVG/1.1/DTD/svg11.dtd">
<svg version="1.1" id="Layer_1" xmlns="http://www.w3.org/2000/svg" xmlns:xlink="http://www.w3.org/1999/xlink" x="0px" y="0px"
	 width="864px" height="864px" viewBox="0 0 864 864" enable-background="new 0 0 864 864" xml:space="preserve">
<polyline fill="none" stroke="#ED5D75" stroke-width="7" stroke-miterlimit="10" points="358.077,59.827 291.087,175.863 
	368.001,309.566 430.174,309.566 492.341,309.566 569.257,175.863 561.357,162.181 "/>
<polyline fill="none" stroke="#81E079" stroke-width="7" stroke-miterlimit="10" points="378.854,567.738 441.031,567.738 
	503.199,567.738 580.112,701.439 513.117,817.475 "/>
<polyline fill="none" stroke="#DBAF00" stroke-width="7" stroke-miterlimit="10" points="580.173,452.219 519.713,556.934 
	598.183,691.604 730.331,691.604 742.328,670.83 "/>
<polyline fill="none" stroke="#F29111" stroke-width="7" stroke-miterlimit="10" points="522.96,339.939 573.911,428.191 
	705.491,428.191 719.797,403.412 "/>
<polyline fill="none" stroke="#7791E5" stroke-width="7" stroke-miterlimit="10" points="301.884,453.219 362.343,557.934 
	283.877,692.604 163.586,692.604 "/>
<polyline fill="none" stroke="#B482E0" stroke-width="7" stroke-miterlimit="10" points="143.725,194.131 275.877,194.131 
	354.343,328.804 293.884,433.521 137.749,433.521 130.094,420.26 "/>
<path fill="#DBAF00" d="M345.051,405.787c1.335,0,2.479,0.471,3.419,1.418c0.941,0.95,1.424,2.097,1.424,3.435
	c0,1.312-0.48,2.438-1.424,3.389c-0.938,0.939-2.084,1.418-3.419,1.418c-1.298,0-2.427-0.476-3.373-1.418
	c-0.938-0.95-1.416-2.076-1.416-3.389c0-1.342,0.476-2.482,1.416-3.435C342.624,406.26,343.75,405.787,345.051,405.787z
	 M342.149,424.528h5.854v45.503h-5.854V424.528z"/>
<path fill="#DBAF00" d="M355.664,424.528h5.855v8.146c2.341-3.122,4.939-5.455,7.782-7.009c2.844-1.538,5.938-2.312,9.282-2.312
	c3.402,0,6.422,0.862,9.061,2.595c2.631,1.729,4.577,4.057,5.828,6.981c1.261,2.934,1.883,7.492,1.883,13.685v23.42h-5.854v-21.705
	c0-5.247-0.216-8.741-0.651-10.5c-0.678-3.021-1.984-5.276-3.905-6.797c-1.923-1.521-4.438-2.282-7.528-2.282
	c-3.544,0-6.711,1.17-9.513,3.52c-2.809,2.341-4.655,5.236-5.549,8.692c-0.557,2.26-0.837,6.389-0.837,12.383v16.689h-5.853
	L355.664,424.528L355.664,424.528z"/>
<path fill="#F4F3F2" d="M426.274,429.501l-3.762,3.893c-3.139-3.042-6.193-4.562-9.184-4.562c-1.906,0-3.53,0.625-4.886,1.884
	c-1.354,1.252-2.035,2.719-2.035,4.388c0,1.479,0.562,2.889,1.678,4.227c1.109,1.37,3.467,2.974,7.044,4.812
	c4.36,2.268,7.322,4.438,8.883,6.526c1.538,2.116,2.312,4.504,2.312,7.152c0,3.734-1.313,6.896-3.938,9.487
	c-2.625,2.595-5.907,3.894-9.841,3.894c-2.63,0-5.135-0.573-7.519-1.717c-2.391-1.146-4.369-2.725-5.934-4.729l3.687-4.184
	c2.992,3.377,6.16,5.062,9.515,5.062c2.349,0,4.343-0.756,5.991-2.256c1.646-1.507,2.473-3.278,2.473-5.318
	c0-1.674-0.546-3.158-1.63-4.472c-1.089-1.281-3.556-2.896-7.378-4.854c-4.112-2.12-6.902-4.207-8.379-6.271
	c-1.481-2.063-2.225-4.418-2.225-7.067c0-3.463,1.183-6.327,3.543-8.617c2.354-2.278,5.341-3.432,8.942-3.432
	C417.812,423.354,422.028,425.404,426.274,429.501z"/>
<path fill="#F4F3F2" d="M432.23,424.528h5.854v8.359c2.308-3.179,4.973-5.565,7.977-7.151c3.016-1.59,6.371-2.383,10.079-2.383
	c6.457,0,11.988,2.322,16.579,6.982c4.603,4.661,6.897,10.262,6.897,16.816c0,6.688-2.274,12.376-6.836,17.043
	c-4.55,4.667-10.047,7.001-16.479,7.001c-3.623,0-6.957-0.752-9.983-2.262c-3.028-1.509-5.781-3.74-8.229-6.729v24.459h-5.854
	L432.23,424.528L432.23,424.528z M455.65,428.999c-5.067,0-9.33,1.767-12.795,5.306c-3.465,3.534-5.194,7.938-5.194,13.201
	c0,3.453,0.771,6.562,2.312,9.316c1.549,2.76,3.766,4.939,6.646,6.562c2.876,1.613,5.916,2.424,9.114,2.424
	c3.145,0,6.102-0.811,8.861-2.442c2.773-1.636,4.979-3.901,6.618-6.832c1.646-2.921,2.457-5.989,2.457-9.191
	c0-3.229-0.812-6.298-2.438-9.188c-1.633-2.896-3.826-5.142-6.574-6.743C461.906,429.8,458.899,428.999,455.65,428.999z"/>
<path fill="#F4F3F2" d="M488.097,405.787c1.333,0,2.464,0.471,3.412,1.418c0.944,0.95,1.415,2.097,1.415,3.435
	c0,1.312-0.471,2.438-1.415,3.389c-0.944,0.939-2.077,1.418-3.412,1.418c-1.311,0-2.435-0.476-3.378-1.418
	c-0.938-0.95-1.415-2.076-1.415-3.389c0-1.342,0.477-2.482,1.415-3.435C485.662,406.26,486.783,405.787,488.097,405.787z
	 M485.182,424.528h5.856v45.503h-5.856V424.528z"/>
<path fill="#F4F3F2" d="M485.217,423.933h5.984v6.657c1.777-2.623,3.66-4.587,5.646-5.879c1.979-1.294,4.038-1.949,6.189-1.949
	c1.617,0,3.347,0.521,5.188,1.555l-3.053,4.934c-1.228-0.527-2.259-0.794-3.098-0.794c-1.955,0-3.832,0.798-5.646,2.402
	c-1.811,1.604-3.188,4.102-4.142,7.464c-0.729,2.596-1.083,7.837-1.083,15.728v15.396h-5.984L485.217,423.933L485.217,423.933z"/>
<path fill="#F4F3F2" d="M546.668,454.346l4.933,2.597c-1.609,3.176-3.481,5.739-5.607,7.69c-2.122,1.956-4.507,3.438-7.154,4.455
	c-2.647,1.021-5.653,1.525-8.995,1.525c-7.429,0-13.23-2.438-17.419-7.308c-4.188-4.856-6.276-10.361-6.276-16.49
	c0-5.773,1.769-10.915,5.312-15.438c4.497-5.751,10.512-8.619,18.043-8.619c7.764,0,13.953,2.939,18.586,8.821
	c3.294,4.163,4.963,9.346,5.022,15.562h-40.942c0.103,5.282,1.795,9.618,5.057,13.007c3.27,3.368,7.303,5.062,12.106,5.062
	c2.316,0,4.574-0.403,6.767-1.208c2.188-0.803,4.058-1.878,5.582-3.206C543.219,459.469,544.881,457.318,546.668,454.346z
	 M546.668,442.09c-0.781-3.123-1.922-5.615-3.411-7.489c-1.496-1.861-3.47-3.382-5.931-4.517c-2.458-1.145-5.041-1.709-7.747-1.709
	c-4.465,0-8.308,1.433-11.521,4.303c-2.341,2.093-4.111,5.229-5.312,9.413L546.668,442.09L546.668,442.09z"/>
<g id="_x39__1_">
	<path fill="#ED5D75" d="M458.346,189.724c0.064-0.256,3.198-12.828,3.262-13.083c-0.256-0.064-47.295-11.793-47.548-11.856
		c-0.063,0.253-3.198,12.824-3.263,13.083C411.05,177.93,458.09,189.659,458.346,189.724z"/>
	<path fill="#ED5D75" d="M377.034,173.939c0.063-0.253,5.308-21.286,5.372-21.541c-0.237-0.06-4.064-1.013-4.297-1.072
		c-0.063,0.253-5.309,21.288-5.372,21.542C372.972,172.926,376.794,173.879,377.034,173.939z"/>
	<path fill="#ED5D75" d="M495.374,180.565c-0.063,0.258-5.312,21.287-5.375,21.542c0.239,0.06,4.061,1.012,4.299,1.072
		c0.159-0.635,5.312-21.313,5.369-21.543C499.427,181.575,495.61,180.624,495.374,180.565z"/>
	<path fill="#ED5D75" d="M367.302,164.354c0.013-0.307,0.351-8.6,0.361-8.806c-0.196-0.049-3.275-0.817-3.562-0.888
		c-0.01,0.312-0.34,8.595-0.354,8.808C363.939,163.516,367.021,164.284,367.302,164.354z"/>
	<path fill="#ED5D75" d="M374.213,157.182c-0.238-0.059-3.923-0.978-4.216-1.051c-0.008,0.312-0.345,8.599-0.355,8.808
		c0.186,0.046,2.26,0.564,2.484,0.62C372.186,165.311,374.15,157.432,374.213,157.182z"/>
	<path fill="#ED5D75" d="M355.513,161.415c0.018-0.313,0.348-8.601,0.358-8.807c-0.182-0.045-2.191-0.546-2.415-0.602
		c-0.062,0.25-2.027,8.129-2.088,8.375C351.603,160.44,355.231,161.344,355.513,161.415z"/>
	<path fill="#ED5D75" d="M361.41,162.885c0.015-0.307,0.345-8.601,0.361-8.806c-0.195-0.049-3.274-0.816-3.558-0.887
		c-0.01,0.312-0.343,8.595-0.353,8.808C358.046,162.046,361.128,162.815,361.41,162.885z"/>
	<path fill="#ED5D75" d="M500.355,188.636c-0.063,0.254-2.027,8.129-2.089,8.377c0.235,0.059,3.86,0.963,4.15,1.035
		c0.009-0.307,0.344-8.592,0.357-8.809C502.584,189.191,500.58,188.691,500.355,188.636z"/>
	<path fill="#ED5D75" d="M511.006,191.292c-0.015,0.318-0.35,8.598-0.359,8.808c0.188,0.047,3.27,0.816,3.555,0.887
		c0.013-0.307,0.342-8.593,0.357-8.809C514.365,192.129,511.291,191.362,511.006,191.292z"/>
	<path fill="#ED5D75" d="M516.899,192.761c-0.011,0.318-0.342,8.6-0.359,8.808c0.193,0.048,2.26,0.563,2.485,0.619
		c0.061-0.243,2.024-8.119,2.089-8.376C520.881,193.754,517.187,192.833,516.899,192.761z"/>
	<path fill="#ED5D75" d="M505.108,189.821c-0.009,0.32-0.344,8.6-0.354,8.81c0.188,0.047,3.273,0.816,3.561,0.888
		c0.01-0.307,0.34-8.593,0.359-8.808C508.473,190.66,505.394,189.893,505.108,189.821z"/>
	<path fill="#ED5D75" d="M401.35,205.992c0.063-0.255,17.51-70.222,17.574-70.481c-0.25-0.062-14.079-3.511-14.328-3.572
		c-0.032,0.128-17.514,70.236-17.575,70.481C387.27,202.482,401.098,205.93,401.35,205.992z"/>
	<path fill="#ED5D75" d="M387.426,191.028c0.064-0.255,12.115-48.583,12.179-48.84c-0.248-0.062-11.259-2.808-11.508-2.87
		c-0.064,0.257-12.115,48.586-12.179,48.84C376.17,188.222,387.195,190.971,387.426,191.028z"/>
	<path fill="#ED5D75" d="M471.057,148.512c-0.064,0.261-17.51,70.224-17.574,70.482c0.252,0.062,14.074,3.509,14.322,3.571
		c0.061-0.247,17.532-70.313,17.573-70.482C485.131,152.021,471.303,148.574,471.057,148.512z"/>
	<path fill="#ED5D75" d="M484.975,163.473c-0.064,0.259-12.113,48.588-12.178,48.841c0.246,0.062,11.255,2.807,11.504,2.869
		c0.063-0.255,12.114-48.583,12.179-48.841C496.241,166.282,485.223,163.535,484.975,163.473z"/>
</g>
<g id="_x32_1_1_">
	<path fill="#7791E5" d="M267.605,524.256c7.372,0,13.366-5.994,13.366-13.354c0-7.372-5.996-13.364-13.366-13.364
		c-7.361,0-13.364,5.992-13.364,13.364C254.243,518.26,260.246,524.256,267.605,524.256z"/>
	<path fill="#7791E5" d="M295.508,534.064c-1.659-1.941-3.974-3.139-6.528-3.342c-2.557-0.195-5.032,0.604-6.982,2.268
		c0,0-11.939,10.178-14.882,12.682c-1.062-1.852-3.818-6.629-6.028-10.488c0.375-3.954-0.771-7.797-3.558-10.536
		c-0.704-0.688-1.483-1.271-2.308-1.757l0.041-0.038l-0.319-0.087c-1.662-0.918-3.513-1.407-5.438-1.529l-23.436-6.604l0.182,0.058
		l-2.245-0.478c0.249,0.041-4.022-0.021-4.022-0.021l-28.839,5.946c-2.559,0.531-4.805,2.061-6.162,4.188
		c-1.289,2.01-1.69,4.387-1.141,6.682c1.152,4.857,6.259,7.939,11.385,6.883c0,0,25.632-5.293,26.521-5.475
		c0.338,0.088,3.451,0.883,7.058,1.812l-6.967,7.076l19.143,19.854l8.142-8.289l6.898,11.979c2.633,4.584,8.495,6.159,13.068,3.536
		c0.013-0.036,2.867-1.646,2.867-1.646l22.476-19.162c1.948-1.658,3.136-3.979,3.34-6.529c0.016-0.258,0.026-0.514,0.026-0.773
		C297.8,537.992,297,535.82,295.508,534.064z"/>
	<path fill="#7791E5" d="M255.76,584.891l-19.424-18.965l1.111-1.131l-6.407-6.639l-1.904-1.979l-5.988-6.211l-2.021-2.1
		l-2.818-2.922l-3.053,3.104c-1.103,1.129-1.975,2.363-2.735,3.635l-69.097,48.748c-5.186,3.65-6.879,10.211-3.779,14.625
		c3.111,4.404,9.863,5.025,15.042,1.375l61.263-43.227c5.533,5.254,18.244,17.354,20.183,19.188
		c-2.254,2.645-23.788,27.938-23.788,27.938c-2.431,2.91-3.482,5.475-3.482,8.365c0,1.521,0.522,3.729,1.542,5.004
		c0,0,6.115,9.98,16.815-0.689l27.239-31.648c5.354-6.271,5.724-10.697,1.38-16.354L255.76,584.891z"/>
</g>
<g>
	<path fill="#F29111" d="M700.663,315.562c-8.658-5.278-17.604-9.436-27.097-12.508c-9.229-2.982-18.482-4.781-27.702-5.417
		c-8.461-5.089-17.363-9.167-26.604-12.157c-9.492-3.071-18.951-4.87-28.436-5.451l-2.548-0.104l-24.871,76.841l3.448,0.812
		c9.188,2.201,18.084,4.684,27.026,7.58c7.938,2.562,15.188,5.222,22.213,8.105l-0.166,0.498c0,0,1.074,1.562,4.781,2.768
		c3.715,1.204,5.521,0.569,5.521,0.569l0.165-0.504c7.392,1.78,14.575,3.809,22.507,6.363c8.94,2.897,17.299,5.996,26.041,9.601
		l2.788,1.21l24.883-76.896L700.663,315.562z"/>
</g>
<g>
	<path fill="#515051" d="M676.55,389.142c-17.728-7.312-35.834-13.172-54.479-17.632c7.562-23.391,15.139-46.782,22.71-70.174
		c19.176,1.17,38.128,7.657,54.479,17.633C691.691,342.362,684.121,365.753,676.55,389.142z"/>
</g>
<g>
	<path fill="#515051" d="M622.071,371.509c-17.729-7.311-35.833-13.171-54.479-17.632c7.566-23.393,15.143-46.784,22.707-70.171
		c19.184,1.168,38.13,7.655,54.479,17.632C637.212,324.73,629.638,348.12,622.071,371.509z"/>
</g>
<g>
	<g>
		<path fill="#F29111" d="M622.071,371.509c-15.604-10.917-32.148-16.269-51.188-16.562c7.547-23.317,15.09-46.641,22.645-69.95
			c20.007-2.646,36.418,2.917,51.185,16.563C637.164,324.875,629.621,348.194,622.071,371.509z"/>
	</g>
</g>
<g>
	<g>
		<path fill="#F29111" d="M621.661,371.376c19.039,0.293,35.584,5.648,51.188,16.565c7.545-23.318,15.097-46.639,22.64-69.95
			c-14.661-13.863-31.219-18.975-51.188-16.566C636.752,324.744,629.206,348.061,621.661,371.376z"/>
	</g>
</g>
<g>
	<g>
		<g>
			<path fill="#515051" d="M687.238,322.311c-0.066-0.021-0.123-0.05-0.182-0.091c-12.18-8.05-24.638-12.083-39.222-12.688
				c-0.447-0.021-0.775-0.424-0.741-0.905c0.041-0.479,0.438-0.851,0.891-0.833c14.861,0.62,27.562,4.729,39.974,12.938
				c0.374,0.247,0.473,0.779,0.225,1.193C687.974,322.269,687.584,322.42,687.238,322.311z"/>
		</g>
		<g>
			<path fill="#515051" d="M685.619,327.314c-0.065-0.021-0.124-0.055-0.182-0.091c-12.18-8.051-24.643-12.087-39.221-12.688
				c-0.442-0.021-0.773-0.425-0.734-0.905c0.039-0.479,0.435-0.854,0.882-0.834c14.857,0.621,27.566,4.731,39.976,12.939
				c0.38,0.245,0.479,0.774,0.229,1.188C686.355,327.277,685.96,327.424,685.619,327.314z"/>
		</g>
		<g>
			<path fill="#515051" d="M683.995,332.321c-0.062-0.023-0.12-0.05-0.179-0.087c-12.18-8.056-24.641-12.083-39.219-12.695
				c-0.445-0.021-0.777-0.421-0.738-0.9c0.039-0.479,0.438-0.854,0.886-0.836c14.862,0.621,27.562,4.732,39.973,12.939
				c0.372,0.248,0.477,0.782,0.229,1.198C684.731,332.283,684.347,332.434,683.995,332.321z"/>
		</g>
		<g>
			<path fill="#515051" d="M642.779,324.511c-0.348-0.104-0.576-0.459-0.54-0.866c0.04-0.479,0.435-0.853,0.883-0.837
				c14.86,0.617,27.562,4.731,39.973,12.938c0.377,0.25,0.479,0.787,0.229,1.199s-0.756,0.546-1.127,0.297
				c-12.172-8.052-24.643-12.085-39.217-12.69C642.913,324.543,642.845,324.536,642.779,324.511z"/>
		</g>
		<g>
			<path fill="#515051" d="M641.162,329.52c-0.331-0.106-0.563-0.441-0.541-0.839c0.021-0.479,0.405-0.868,0.854-0.868
				c5.287,0.018,10.562,0.64,15.662,1.841c0.439,0.1,0.692,0.562,0.577,1.032c-0.12,0.476-0.562,0.771-0.995,0.664
				c-4.995-1.179-10.149-1.778-15.322-1.796C641.308,329.553,641.236,329.543,641.162,329.52z"/>
		</g>
		<g>
			<path fill="#515051" d="M639.537,334.526c-0.343-0.113-0.573-0.471-0.538-0.874c0.032-0.479,0.436-0.854,0.876-0.832
				c14.864,0.619,27.575,4.729,39.978,12.937c0.384,0.248,0.479,0.783,0.228,1.193c-0.248,0.414-0.749,0.547-1.123,0.298
				c-12.177-8.047-24.635-12.081-39.216-12.692C639.673,334.559,639.604,334.547,639.537,334.526z"/>
		</g>
		<g>
			<path fill="#515051" d="M677.515,352.347c-0.062-0.021-0.122-0.049-0.184-0.089c-12.171-8.046-24.63-12.083-39.209-12.688
				c-0.451-0.021-0.783-0.431-0.746-0.903c0.042-0.482,0.438-0.855,0.883-0.835c14.864,0.621,27.572,4.729,39.979,12.937
				c0.372,0.248,0.476,0.784,0.22,1.196C678.25,352.309,677.859,352.459,677.515,352.347z"/>
		</g>
		<g>
			<path fill="#515051" d="M675.896,357.353c-0.063-0.021-0.123-0.05-0.187-0.089c-12.174-8.047-24.635-12.08-39.217-12.688
				c-0.449-0.021-0.78-0.425-0.739-0.903c0.032-0.479,0.438-0.853,0.88-0.84c14.866,0.625,27.572,4.736,39.979,12.938
				c0.376,0.244,0.476,0.778,0.223,1.192C676.633,357.312,676.24,357.466,675.896,357.353z"/>
		</g>
		<g>
			<path fill="#515051" d="M634.679,349.544c-0.332-0.104-0.562-0.441-0.541-0.835c0.021-0.48,0.406-0.871,0.857-0.871
				c4.864,0.016,9.729,0.541,14.454,1.565c0.438,0.09,0.691,0.549,0.587,1.021c-0.105,0.475-0.547,0.778-0.982,0.686
				c-4.625-1-9.382-1.52-14.143-1.528C634.825,349.579,634.751,349.567,634.679,349.544z"/>
		</g>
		<g>
			<path fill="#515051" d="M672.658,367.369c-0.063-0.021-0.125-0.049-0.188-0.086c-12.174-8.053-24.635-12.083-39.217-12.693
				c-0.447-0.018-0.781-0.424-0.74-0.905c0.039-0.479,0.438-0.853,0.89-0.836c14.858,0.623,27.562,4.733,39.976,12.939
				c0.376,0.25,0.472,0.78,0.226,1.194C673.39,367.327,672.996,367.476,672.658,367.369z"/>
		</g>
		<g>
			<path fill="#515051" d="M631.438,359.556c-0.339-0.104-0.571-0.458-0.541-0.86c0.039-0.482,0.438-0.856,0.891-0.844
				c8.104,0.328,15.455,1.616,23.119,4.062c0.431,0.152,0.647,0.622,0.504,1.081c-0.15,0.459-0.611,0.728-1.035,0.59
				c-7.539-2.401-14.762-3.669-22.729-3.989C631.568,359.591,631.504,359.578,631.438,359.556z"/>
		</g>
	</g>
</g>
<g>
	<g>
		<g>
			<path fill="#515051" d="M636.541,305.887c-0.065-0.022-0.127-0.05-0.19-0.097c-12.081-8.309-24.528-12.338-39.188-12.683
				c-0.448-0.012-0.787-0.409-0.757-0.891c0.032-0.481,0.428-0.864,0.873-0.854c14.963,0.355,27.676,4.472,40.007,12.946
				c0.372,0.256,0.465,0.796,0.206,1.204C637.269,305.853,636.879,305.995,636.541,305.887z"/>
		</g>
		<g>
			<path fill="#515051" d="M595.32,298.073c-0.337-0.106-0.57-0.451-0.54-0.852c0.03-0.482,0.42-0.862,0.869-0.851
				c14.959,0.353,27.675,4.468,40.006,12.946c0.367,0.256,0.459,0.794,0.204,1.198c-0.256,0.409-0.764,0.535-1.131,0.283
				c-12.081-8.307-24.536-12.343-39.193-12.688C595.459,298.111,595.394,298.097,595.32,298.073z"/>
		</g>
		<g>
			<path fill="#515051" d="M633.302,315.9c-0.062-0.026-0.129-0.061-0.189-0.104c-12.078-8.305-24.53-12.34-39.193-12.684
				c-0.448-0.008-0.787-0.409-0.754-0.891c0.028-0.481,0.421-0.859,0.871-0.852c14.962,0.354,27.673,4.471,40.01,12.951
				c0.366,0.253,0.46,0.79,0.207,1.192C634.028,315.865,633.638,316.008,633.302,315.9z"/>
		</g>
		<g>
			<path fill="#515051" d="M631.681,320.906c-0.062-0.021-0.134-0.057-0.188-0.101c-12.074-8.304-24.531-12.34-39.192-12.687
				c-0.449-0.01-0.789-0.407-0.756-0.889c0.032-0.479,0.425-0.865,0.872-0.854c14.966,0.354,27.674,4.469,40.005,12.949
				c0.369,0.253,0.458,0.795,0.203,1.2C632.406,320.869,632.019,321.014,631.681,320.906z"/>
		</g>
		<g>
			<path fill="#515051" d="M590.461,313.095c-0.336-0.104-0.567-0.454-0.542-0.851c0.029-0.483,0.426-0.865,0.869-0.854
				c6.271,0.149,12.016,0.872,18.074,2.279c0.436,0.103,0.688,0.565,0.569,1.036c-0.107,0.469-0.561,0.771-0.988,0.666
				c-5.955-1.378-11.605-2.093-17.771-2.239C590.597,313.131,590.527,313.114,590.461,313.095z"/>
		</g>
		<g>
			<path fill="#515051" d="M628.44,330.918c-0.07-0.025-0.14-0.056-0.196-0.097c-12.081-8.312-24.528-12.339-39.188-12.687
				c-0.442-0.015-0.788-0.411-0.756-0.895c0.032-0.481,0.425-0.864,0.868-0.854c14.966,0.354,27.681,4.472,40.011,12.948
				c0.367,0.255,0.459,0.792,0.207,1.2C629.164,330.886,628.778,331.028,628.44,330.918z"/>
		</g>
		<g>
			<path fill="#515051" d="M587.222,323.108c-0.341-0.108-0.567-0.451-0.543-0.854c0.034-0.486,0.42-0.864,0.872-0.852
				c14.962,0.351,27.675,4.469,40.005,12.948c0.368,0.253,0.463,0.786,0.205,1.197c-0.254,0.411-0.763,0.535-1.131,0.28
				c-12.081-8.312-24.531-12.342-39.194-12.688C587.356,323.142,587.287,323.132,587.222,323.108z"/>
		</g>
		<g>
			<path fill="#515051" d="M625.196,340.931c-0.065-0.021-0.131-0.056-0.19-0.097c-12.081-8.306-24.532-12.338-39.188-12.686
				c-0.446-0.015-0.786-0.407-0.76-0.896c0.029-0.479,0.428-0.861,0.871-0.847c14.961,0.353,27.676,4.468,40.006,12.943
				c0.367,0.258,0.463,0.787,0.209,1.197C625.924,340.898,625.537,341.038,625.196,340.931z"/>
		</g>
		<g>
			<path fill="#515051" d="M583.974,333.12c-0.331-0.108-0.562-0.455-0.538-0.854c0.036-0.479,0.429-0.857,0.872-0.854
				c13.123,0.359,24.521,3.562,35.854,10.1c0.387,0.229,0.514,0.75,0.283,1.173c-0.229,0.432-0.729,0.595-1.114,0.366
				c-11.111-6.407-22.273-9.552-35.146-9.896C584.115,333.153,584.044,333.142,583.974,333.12z"/>
		</g>
		<g>
			<path fill="#515051" d="M621.825,351.363c-0.072-0.025-0.134-0.06-0.196-0.104c-12.081-8.304-24.534-12.339-39.193-12.682
				c-0.439-0.013-0.78-0.409-0.755-0.896c0.032-0.479,0.423-0.857,0.871-0.849c14.963,0.354,27.683,4.467,40.007,12.946
				c0.366,0.255,0.469,0.793,0.206,1.204C622.554,351.331,622.161,351.471,621.825,351.363z"/>
		</g>
		<g>
			<path fill="#515051" d="M580.602,343.551c-0.335-0.104-0.565-0.454-0.544-0.854c0.033-0.479,0.432-0.859,0.877-0.854
				c11.193,0.289,21.1,2.646,31.154,7.396c0.4,0.188,0.565,0.7,0.369,1.146c-0.195,0.439-0.687,0.646-1.089,0.451
				c-9.863-4.662-19.57-6.97-30.55-7.255C580.739,343.586,580.669,343.573,580.602,343.551z"/>
		</g>
	</g>
</g>
<path fill="#B482E0" d="M219.048,282.771c2.24-5.158,17.16-40.478,17.16-40.478l-0.131-0.133l-0.182-0.025l-17.62,30.78
	c0,0-0.274,0.488-0.768,0.239c-0.485-0.247-0.24-0.744-0.24-0.744l14.208-32.496l-0.133-0.15l-0.201-0.018l-17.718,30.704
	c0,0-0.268,0.499-0.715,0.273c-0.45-0.229-0.215-0.744-0.215-0.744l14.276-32.444l-0.141-0.149l-0.199-0.027l-17.788,30.682
	c0,0-0.276,0.487-0.746,0.245c-0.476-0.242-0.257-0.756-0.257-0.756l14.389-32.417l-0.134-0.134l-0.182-0.024
	c0,0-19.645,32.927-22.482,37.783c-0.271,0.458-0.173,0.877,0.19,1.242c1.24,1.229,3.807,4.901,3.236,11.414
	c-0.426,6.794-38.627,70.312-47.156,83.941c-2.121,3.382-3.288,9.111-0.18,14.671l0,0c6.323-0.782,10.244-5.105,11.716-8.825
	c5.945-14.938,34.55-83.312,39.775-87.68c4.916-4.312,9.392-4.411,11.12-4.142C218.447,283.431,218.836,283.257,219.048,282.771z
	 M156.855,369.396c1.663-2.656,2.42-3.368,2.42-3.368s-2.73,4.38-3.424,7.059c-0.665,2.274-0.97,4.901,0.014,9.665
	C153.559,377.599,154.89,372.537,156.855,369.396z"/>
<path fill="#B482E0" d="M264.103,314.683c6.938-2.348,13.919-8.674,18.423-17.562c7.256-14.319,5.347-29.873-4.259-34.738
	c-9.608-4.869-23.276,2.795-30.53,17.111c-4.486,8.849-5.463,18.173-3.284,25.152c-0.253,0.423-0.457,0.771-0.613,1.035
	c-0.262,0.458-0.172,0.875,0.189,1.24c1.243,1.23,3.91,4.691,3.348,11.203c-0.426,6.795-34.091,61.344-42.615,74.966
	c-2.125,3.396-3.291,9.113-0.179,14.674l0,0c6.32-0.777,10.241-5.111,11.719-8.819c5.939-14.938,30.006-74.352,35.232-78.71
	c4.916-4.312,9.282-4.205,11.011-3.938c0.504,0.078,0.905-0.093,1.118-0.582C263.771,315.451,263.922,315.103,264.103,314.683z
	 M213.237,400.738c1.754-2.145,3.666-6.938,3.666-6.938s-0.124,1.026-1.28,3.938c-1.371,3.438-4.668,7.509-10.185,8.708
	C209.858,404.414,211.799,402.613,213.237,400.738z"/>
<path fill="#81E079" d="M479.654,682.209c6.963,3.541,15.604,3.195,22.399-1.666c6.854-4.9,9.968-13.059,8.777-20.857
	c-5.104,3.662-6.407,4.598-8.241,5.896c-4.386,3.141-10.486,2.127-13.63-2.264c-3.138-4.395-2.122-10.494,2.263-13.641
	c1.98-1.418,3.357-2.395,8.242-5.889c-6.993-3.643-15.725-3.334-22.568,1.564c-6.793,4.857-9.916,12.928-8.812,20.654l-73.645,52.98
	c-6.96-3.545-15.605-3.199-22.403,1.66c-6.849,4.896-9.965,13.062-8.777,20.854c5.112-3.658,6.41-4.586,8.238-5.896
	c4.396-3.144,10.498-2.125,13.636,2.264c3.14,4.392,2.125,10.5-2.262,13.635c-1.984,1.42-3.353,2.4-8.24,5.896
	c6.99,3.641,15.72,3.334,22.567-1.562c6.796-4.854,9.919-12.93,8.813-20.662L479.654,682.209z"/>
<path fill="#DBAF00" d="M669.901,514.577c19.808,4.621,32.12,24.429,27.499,44.236c-4.551,19.504-16.835,19.034-24.004,39.782
	c-0.465,1.986-2.438,3.216-4.426,2.751l-36.637-8.548c-1.985-0.464-3.214-2.438-2.75-4.424l-0.008-0.002
	c2.76-21.779-8.463-26.794-3.912-46.297C630.287,522.269,650.095,509.955,669.901,514.577 M667.751,604.844
	c1.985,0.464,3.213,2.438,2.749,4.425c-0.463,1.984-2.438,3.214-4.423,2.749l-35.868-8.367c-1.984-0.465-3.213-2.438-2.75-4.424
	c0.464-1.985,2.439-3.215,4.423-2.75L667.751,604.844 M665.241,615.605c1.983,0.462,3.213,2.438,2.749,4.423
	c-0.464,1.984-2.438,3.213-4.423,2.751l-35.869-8.369c-1.984-0.463-3.213-2.438-2.749-4.424c0.463-1.986,2.438-3.214,4.422-2.75
	L665.241,615.605 M659.143,625.527c-0.925,3.964-4.884,6.426-8.847,5.5l-14.348-3.348c-3.963-0.925-6.425-4.885-5.499-8.848
	L659.143,625.527 M671.812,506.379c-24.297-5.67-48.678,9.484-54.347,33.784c-2.848,12.202-0.495,20.138,1.568,27.144
	c1.757,5.933,3.273,11.073,2.227,19.728c-0.349,1.894-0.224,3.78,0.29,5.528c-1.076,1.354-1.873,2.957-2.291,4.75
	c-0.452,1.938-0.414,3.871,0.042,5.685c-1.211,1.422-2.101,3.14-2.553,5.077c-1.179,5.052,1.009,10.111,5.094,12.829
	c0.171,7.014,5.051,13.311,12.191,14.977l14.347,3.349c7.143,1.666,14.304-1.821,17.561-8.034c4.865-0.63,9.067-4.199,10.246-9.251
	c0.452-1.938,0.406-3.874-0.051-5.686c1.211-1.424,2.109-3.138,2.562-5.075c0.419-1.794,0.414-3.585,0.046-5.267
	c1.235-1.35,2.178-2.995,2.702-4.848c2.896-8.215,6.522-12.146,10.726-16.696c4.957-5.359,10.58-11.442,13.426-23.646
	C711.27,536.427,696.112,512.048,671.812,506.379L671.812,506.379z"/>
</svg>
