<?xml version="1.0" encoding="utf-8"?>
<!-- Generator: Adobe Illustrator 16.0.4, SVG Export Plug-In . SVG Version: 6.00 Build 0)  -->
<!DOCTYPE svg PUBLIC "-//W3C//DTD SVG 1.1//EN" "http://www.w3.org/Graphics/SVG/1.1/DTD/svg11.dtd">
<svg version="1.1" id="Layer_1" xmlns="http://www.w3.org/2000/svg" xmlns:xlink="http://www.w3.org/1999/xlink" x="0px" y="0px"
	 width="864px" height="864px" viewBox="0 0 864 864" enable-background="new 0 0 864 864" xml:space="preserve">
<polyline fill="none" stroke="#ED5D75" stroke-width="7" stroke-miterlimit="10" points="366.552,32.838 297.263,152.856 
	376.816,291.147 441.122,291.147 505.424,291.147 584.979,152.856 576.808,138.704 "/>
<polyline fill="none" stroke="#00BF5A" stroke-width="7" stroke-miterlimit="10" points="388.042,558.179 452.352,558.179 
	516.653,558.179 596.207,696.47 526.912,816.486 "/>
<polyline fill="none" stroke="#DBAF00" stroke-width="7" stroke-miterlimit="10" points="596.27,438.695 533.733,547.004 
	614.897,686.296 751.581,686.296 763.988,664.81 "/>
<polyline fill="none" stroke="#F29111" stroke-width="7" stroke-miterlimit="10" points="537.094,322.562 589.793,413.843 
	725.889,413.843 740.684,388.213 "/>
<polyline fill="none" stroke="#7791E5" stroke-width="7" stroke-miterlimit="10" points="308.43,439.729 370.964,548.038 
	289.805,687.33 165.386,687.33 "/>
<polyline fill="none" stroke="#B482E0" stroke-width="7" stroke-miterlimit="10" points="144.844,171.75 281.531,171.75 
	362.689,311.045 300.155,419.356 138.663,419.356 130.745,405.64 "/>
<path fill="#00BF5A" d="M353.078,390.67c1.381,0,2.565,0.487,3.537,1.467c0.974,0.983,1.473,2.168,1.473,3.552
	c0,1.358-0.497,2.522-1.473,3.505c-0.97,0.972-2.156,1.466-3.537,1.466c-1.342,0-2.51-0.492-3.489-1.466
	c-0.97-0.983-1.464-2.147-1.464-3.505c0-1.388,0.492-2.567,1.464-3.552C350.568,391.159,351.733,390.67,353.078,390.67z
	 M350.077,410.055h6.055v47.064h-6.055V410.055z"/>
<path fill="#00BF5A" d="M364.056,410.055h6.056v8.425c2.421-3.229,5.108-5.643,8.049-7.25c2.942-1.591,6.142-2.392,9.601-2.392
	c3.519,0,6.642,0.892,9.372,2.684c2.721,1.788,4.734,4.196,6.028,7.221c1.304,3.034,1.948,7.749,1.948,14.154v24.224h-6.055v-22.45
	c0-5.427-0.223-9.041-0.673-10.86c-0.702-3.125-2.052-5.458-4.039-7.03c-1.989-1.573-4.591-2.36-7.787-2.36
	c-3.666,0-6.941,1.21-9.839,3.641c-2.905,2.421-4.815,5.416-5.739,8.99c-0.577,2.337-0.866,6.607-0.866,12.808v17.263h-6.054
	L364.056,410.055L364.056,410.055z"/>
<path fill="#F4F3F2" d="M437.089,415.198l-3.891,4.026c-3.246-3.146-6.406-4.718-9.499-4.718c-1.972,0-3.651,0.646-5.053,1.948
	c-1.401,1.295-2.105,2.812-2.105,4.539c0,1.53,0.581,2.988,1.735,4.372c1.147,1.417,3.586,3.076,7.286,4.977
	c4.51,2.345,7.573,4.59,9.188,6.751c1.591,2.188,2.391,4.658,2.391,7.397c0,3.862-1.358,7.133-4.073,9.812
	c-2.715,2.684-6.11,4.027-10.179,4.027c-2.72,0-5.311-0.593-7.776-1.776c-2.473-1.186-4.52-2.817-6.138-4.892l3.813-4.327
	c3.095,3.493,6.371,5.235,9.841,5.235c2.429,0,4.492-0.781,6.197-2.333c1.702-1.559,2.558-3.391,2.558-5.501
	c0-1.731-0.565-3.267-1.686-4.625c-1.126-1.325-3.678-2.995-7.631-5.021c-4.253-2.192-7.139-4.351-8.667-6.486
	c-1.532-2.134-2.301-4.57-2.301-7.31c0-3.582,1.223-6.544,3.665-8.913c2.434-2.356,5.524-3.55,9.249-3.55
	C428.337,408.839,432.697,410.96,437.089,415.198z"/>
<path fill="#F4F3F2" d="M443.249,410.055h6.055v8.646c2.388-3.288,5.144-5.756,8.25-7.397c3.119-1.645,6.59-2.464,10.426-2.464
	c6.679,0,12.4,2.402,17.147,7.222c4.762,4.821,7.135,10.614,7.135,17.394c0,6.917-2.354,12.801-7.07,17.628
	c-4.707,4.827-10.392,7.241-17.046,7.241c-3.747,0-7.195-0.778-10.325-2.34c-3.133-1.561-5.979-3.868-8.511-6.959v25.298h-6.055
	L443.249,410.055L443.249,410.055z M467.473,414.679c-5.24,0-9.65,1.827-13.233,5.487c-3.584,3.656-5.372,8.21-5.372,13.654
	c0,3.572,0.796,6.787,2.39,9.637c1.603,2.854,3.896,5.108,6.875,6.786c2.974,1.669,6.119,2.507,9.426,2.507
	c3.253,0,6.312-0.838,9.165-2.526c2.869-1.691,5.151-4.035,6.847-7.066c1.701-3.021,2.541-6.194,2.541-9.507
	c0-3.339-0.84-6.514-2.521-9.503c-1.689-2.996-3.958-5.318-6.8-6.975C473.943,415.507,470.834,414.679,467.473,414.679z"/>
<path fill="#F4F3F2" d="M501.033,390.67c1.378,0,2.548,0.487,3.529,1.467c0.976,0.983,1.463,2.168,1.463,3.552
	c0,1.358-0.487,2.522-1.463,3.505c-0.978,0.972-2.149,1.466-3.529,1.466c-1.355,0-2.519-0.492-3.494-1.466
	c-0.97-0.983-1.463-2.147-1.463-3.505c0-1.388,0.493-2.567,1.463-3.552C498.515,391.159,499.674,390.67,501.033,390.67z
	 M498.018,410.055h6.059v47.064h-6.059V410.055z"/>
<path fill="#F4F3F2" d="M498.054,409.438h6.189v6.886c1.839-2.713,3.786-4.745,5.841-6.081c2.046-1.338,4.176-2.016,6.401-2.016
	c1.673,0,3.461,0.539,5.366,1.608l-3.158,5.103c-1.271-0.545-2.337-0.821-3.203-0.821c-2.022,0-3.964,0.825-5.841,2.484
	c-1.872,1.659-3.297,4.242-4.284,7.72c-0.754,2.685-1.119,8.106-1.119,16.267v15.925h-6.19L498.054,409.438L498.054,409.438z"/>
<path fill="#F4F3F2" d="M561.614,440.895l5.103,2.687c-1.665,3.284-3.602,5.936-5.8,7.954c-2.196,2.023-4.663,3.556-7.399,4.608
	c-2.74,1.056-5.849,1.577-9.306,1.577c-7.683,0-13.685-2.521-18.016-7.559c-4.331-5.022-6.492-10.717-6.492-17.056
	c0-5.972,1.83-11.29,5.494-15.967c4.65-5.948,10.873-8.915,18.662-8.915c8.03,0,14.433,3.041,19.225,9.124
	c3.405,4.306,5.133,9.667,5.193,16.095h-42.347c0.105,5.464,1.856,9.948,5.23,13.453c3.382,3.484,7.554,5.235,12.521,5.235
	c2.396,0,4.731-0.417,7-1.249c2.263-0.83,4.196-1.942,5.773-3.316C558.046,446.194,559.766,443.97,561.614,440.895z
	 M561.614,428.219c-0.809-3.23-1.988-5.808-3.527-7.747c-1.548-1.925-3.59-3.498-6.136-4.671c-2.541-1.184-5.214-1.768-8.012-1.768
	c-4.618,0-8.594,1.481-11.917,4.45c-2.422,2.165-4.252,5.409-5.494,9.736L561.614,428.219L561.614,428.219z"/>
<g>
	<path fill="#F29111" d="M713.972,277.234c-10.187-2.499-20.308-3.801-30.626-3.864c-10.031-0.056-19.719,1.062-29.007,3.317
		c-9.932-2.374-19.984-3.612-30.03-3.672c-10.319-0.061-20.207,1.121-29.741,3.513l-2.543,0.692l-0.507,83.536l3.652-0.276
		c9.748-0.702,19.294-1.034,29.018-0.973c8.627,0.044,16.605,0.402,24.434,1.049l-0.008,0.543c0,0,1.547,1.205,5.579,1.234
		c4.039,0.026,5.622-1.165,5.622-1.165l0.004-0.548c7.846-0.555,15.562-0.801,24.181-0.761c9.72,0.063,18.931,0.506,28.676,1.327
		l3.127,0.322l0.502-83.594L713.972,277.234z"/>
</g>
<g>
	<path fill="#515051" d="M713.192,357.317c-19.765-1.668-39.447-1.788-59.225-0.358c0.145-25.425,0.306-50.857,0.459-76.286
		c19.272-4.84,39.987-4.367,59.226,0.359C713.501,306.462,713.348,331.891,713.192,357.317z"/>
</g>
<g>
	<path fill="#515051" d="M653.967,356.958c-19.766-1.666-39.447-1.787-59.226-0.358c0.149-25.429,0.309-50.86,0.458-76.283
		c19.279-4.844,39.988-4.37,59.227,0.358C654.275,306.104,654.118,331.533,653.967,356.958z"/>
</g>
<g>
	<g>
		<path fill="#F29111" d="M653.967,356.958c-18.798-5.887-36.78-5.993-55.646-0.331c0.154-25.349,0.302-50.702,0.465-76.046
			c18.9-8.862,36.819-8.505,55.645,0.333C654.273,306.262,654.124,331.611,653.967,356.958z"/>
	</g>
</g>
<g>
	<g>
		<path fill="#F29111" d="M653.521,356.955c18.863-5.661,36.85-5.551,55.646,0.335c0.151-25.349,0.308-50.702,0.46-76.044
			c-18.787-9.087-36.712-8.952-55.647-0.336C653.826,306.262,653.674,331.609,653.521,356.955z"/>
	</g>
</g>
<g>
	<g>
		<g>
			<path fill="#515051" d="M702.843,288.084c-0.071,0-0.136-0.011-0.207-0.033c-14.524-4.13-28.067-4.213-42.635-0.251
				c-0.448,0.119-0.898-0.175-1.015-0.661c-0.11-0.485,0.167-0.976,0.617-1.1c14.847-4.033,28.653-3.95,43.457,0.263
				c0.445,0.127,0.709,0.621,0.595,1.106C703.556,287.812,703.218,288.083,702.843,288.084z"/>
		</g>
		<g>
			<path fill="#515051" d="M702.811,293.523c-0.07-0.001-0.139-0.016-0.207-0.033c-14.525-4.131-28.074-4.216-42.636-0.252
				c-0.442,0.117-0.896-0.177-1.007-0.663c-0.111-0.484,0.162-0.978,0.609-1.099c14.843-4.031,28.659-3.95,43.458,0.265
				c0.452,0.123,0.716,0.613,0.599,1.1C703.525,293.257,703.182,293.524,702.811,293.523z"/>
		</g>
		<g>
			<path fill="#515051" d="M702.775,298.967c-0.069-0.003-0.135-0.011-0.204-0.029c-14.526-4.136-28.071-4.212-42.637-0.26
				c-0.446,0.118-0.897-0.172-1.009-0.657s0.164-0.978,0.612-1.102c14.847-4.033,28.653-3.948,43.456,0.265
				c0.443,0.129,0.714,0.623,0.601,1.11C703.489,298.7,703.157,298.968,702.775,298.967z"/>
		</g>
		<g>
			<path fill="#515051" d="M659.695,304.148c-0.375,0.005-0.711-0.272-0.802-0.686c-0.111-0.483,0.161-0.976,0.608-1.101
				c14.844-4.035,28.652-3.948,43.456,0.265c0.45,0.128,0.718,0.626,0.601,1.111c-0.118,0.484-0.575,0.774-1.02,0.645
				c-14.518-4.134-28.073-4.213-42.632-0.256C659.839,304.137,659.769,304.152,659.695,304.148z"/>
		</g>
		<g>
			<path fill="#515051" d="M659.666,309.592c-0.357-0.002-0.692-0.259-0.795-0.658c-0.128-0.478,0.129-0.983,0.57-1.123
				c5.219-1.635,10.614-2.67,16.018-3.08c0.465-0.04,0.859,0.336,0.893,0.837c0.029,0.507-0.313,0.936-0.774,0.966
				c-5.293,0.399-10.562,1.418-15.669,3.018C659.821,309.579,659.747,309.592,659.666,309.592z"/>
		</g>
		<g>
			<path fill="#515051" d="M659.629,315.036c-0.372-0.005-0.711-0.285-0.803-0.694c-0.119-0.482,0.162-0.979,0.604-1.094
				c14.85-4.035,28.667-3.957,43.46,0.26c0.455,0.125,0.717,0.623,0.597,1.106c-0.115,0.486-0.567,0.773-1.015,0.645
				c-14.52-4.129-28.064-4.213-42.631-0.259C659.774,315.025,659.701,315.036,659.629,315.036z"/>
		</g>
		<g>
			<path fill="#515051" d="M702.645,320.737c-0.068,0-0.137-0.009-0.209-0.03c-14.516-4.129-28.062-4.216-42.625-0.256
				c-0.451,0.12-0.906-0.18-1.018-0.657c-0.109-0.489,0.165-0.98,0.609-1.1c14.849-4.032,28.664-3.955,43.461,0.261
				c0.445,0.128,0.716,0.624,0.592,1.11C703.356,320.47,703.019,320.74,702.645,320.737z"/>
		</g>
		<g>
			<path fill="#515051" d="M702.612,326.179c-0.067-0.001-0.137-0.01-0.211-0.029c-14.519-4.13-28.063-4.212-42.632-0.253
				c-0.449,0.12-0.902-0.175-1.012-0.659c-0.117-0.482,0.166-0.978,0.605-1.104c14.852-4.029,28.666-3.947,43.462,0.262
				c0.447,0.123,0.713,0.619,0.592,1.106C703.326,325.909,702.987,326.183,702.612,326.179z"/>
		</g>
		<g>
			<path fill="#515051" d="M659.533,331.361c-0.359,0.001-0.692-0.26-0.795-0.654c-0.128-0.48,0.13-0.986,0.573-1.126
				c4.8-1.504,9.762-2.507,14.74-2.974c0.46-0.048,0.854,0.325,0.898,0.822c0.044,0.501-0.296,0.938-0.755,0.984
				c-4.872,0.459-9.726,1.434-14.421,2.913C659.688,331.35,659.612,331.362,659.533,331.361z"/>
		</g>
		<g>
			<path fill="#515051" d="M702.55,337.067c-0.067-0.001-0.138-0.009-0.212-0.026c-14.519-4.136-28.064-4.215-42.634-0.259
				c-0.445,0.123-0.902-0.174-1.013-0.661c-0.11-0.484,0.166-0.978,0.615-1.102c14.846-4.03,28.655-3.948,43.46,0.264
				c0.447,0.129,0.708,0.622,0.595,1.107C703.26,336.796,702.917,337.066,702.55,337.067z"/>
		</g>
		<g>
			<path fill="#515051" d="M659.465,342.246c-0.364,0.003-0.705-0.273-0.802-0.679c-0.111-0.488,0.166-0.982,0.615-1.111
				c8.091-2.209,15.743-3.236,24.063-3.22c0.474,0.016,0.834,0.41,0.835,0.908c-0.005,0.5-0.376,0.909-0.837,0.905
				c-8.184-0.011-15.7,0.996-23.655,3.17C659.605,342.24,659.538,342.247,659.465,342.246z"/>
		</g>
	</g>
</g>
<g>
	<g>
		<g>
			<path fill="#515051" d="M647.725,287.735c-0.07-0.001-0.141-0.01-0.218-0.037c-14.508-4.416-28.041-4.499-42.603-0.257
				c-0.445,0.128-0.904-0.157-1.024-0.643c-0.118-0.484,0.151-0.985,0.595-1.114c14.863-4.327,28.686-4.24,43.49,0.261
				c0.447,0.135,0.707,0.639,0.58,1.123C648.432,287.474,648.092,287.736,647.725,287.735z"/>
		</g>
		<g>
			<path fill="#515051" d="M604.64,292.914c-0.364,0-0.703-0.267-0.798-0.671c-0.121-0.484,0.145-0.982,0.592-1.111
				c14.859-4.327,28.682-4.244,43.49,0.262c0.442,0.138,0.701,0.64,0.575,1.118c-0.124,0.483-0.586,0.766-1.027,0.633
				c-14.506-4.415-28.048-4.502-42.608-0.261C604.788,292.907,604.721,292.914,604.64,292.914z"/>
		</g>
		<g>
			<path fill="#515051" d="M647.661,298.62c-0.069-0.007-0.146-0.02-0.22-0.044c-14.504-4.414-28.044-4.5-42.607-0.257
				c-0.445,0.133-0.904-0.157-1.022-0.643c-0.122-0.483,0.146-0.979,0.594-1.112c14.861-4.327,28.681-4.241,43.496,0.265
				c0.438,0.135,0.699,0.636,0.576,1.111C648.366,298.358,648.026,298.621,647.661,298.62z"/>
		</g>
		<g>
			<path fill="#515051" d="M647.627,304.062c-0.067-0.002-0.15-0.014-0.217-0.041c-14.499-4.414-28.043-4.5-42.607-0.26
				c-0.446,0.131-0.905-0.155-1.022-0.64c-0.117-0.483,0.148-0.986,0.593-1.115c14.866-4.328,28.683-4.243,43.49,0.265
				c0.443,0.134,0.701,0.64,0.575,1.12C648.33,303.799,647.994,304.062,647.627,304.062z"/>
		</g>
		<g>
			<path fill="#515051" d="M604.544,309.243c-0.364,0.001-0.7-0.271-0.8-0.669c-0.121-0.486,0.149-0.986,0.59-1.114
				c6.229-1.812,12.119-2.896,18.533-3.401c0.461-0.035,0.854,0.343,0.884,0.844c0.041,0.496-0.312,0.935-0.767,0.966
				c-6.302,0.502-12.096,1.563-18.221,3.346C604.689,309.236,604.615,309.241,604.544,309.243z"/>
		</g>
		<g>
			<path fill="#515051" d="M647.562,314.946c-0.077-0.002-0.156-0.011-0.225-0.033c-14.508-4.42-28.04-4.5-42.603-0.261
				c-0.441,0.124-0.907-0.159-1.024-0.646c-0.12-0.485,0.146-0.984,0.588-1.112c14.867-4.328,28.69-4.242,43.497,0.261
				c0.441,0.137,0.699,0.638,0.579,1.119C648.265,314.688,647.929,314.949,647.562,314.946z"/>
		</g>
		<g>
			<path fill="#515051" d="M604.48,320.128c-0.371,0-0.701-0.267-0.802-0.673c-0.12-0.49,0.143-0.983,0.592-1.112
				c14.862-4.331,28.685-4.244,43.491,0.264c0.441,0.135,0.702,0.63,0.576,1.116c-0.122,0.485-0.586,0.767-1.027,0.63
				c-14.51-4.42-28.044-4.502-42.61-0.261C604.623,320.119,604.551,320.131,604.48,320.128z"/>
		</g>
		<g>
			<path fill="#515051" d="M647.492,325.832c-0.071,0.001-0.146-0.014-0.22-0.035c-14.506-4.414-28.043-4.498-42.602-0.26
				c-0.443,0.125-0.901-0.156-1.029-0.646c-0.12-0.481,0.152-0.983,0.594-1.107c14.861-4.328,28.685-4.244,43.49,0.259
				c0.442,0.139,0.702,0.631,0.58,1.115C648.199,325.573,647.86,325.832,647.492,325.832z"/>
		</g>
		<g>
			<path fill="#515051" d="M604.407,331.015c-0.361-0.003-0.697-0.273-0.799-0.674c-0.113-0.483,0.156-0.979,0.594-1.114
				c13.051-3.747,25.291-4.152,38.507-1.247c0.453,0.105,0.741,0.579,0.646,1.068c-0.09,0.497-0.531,0.813-0.982,0.709
				c-12.958-2.845-24.946-2.457-37.746,1.228C604.556,331.004,604.482,331.014,604.407,331.015z"/>
		</g>
		<g>
			<path fill="#515051" d="M647.429,337.172c-0.079-0.002-0.151-0.017-0.227-0.041c-14.507-4.412-28.045-4.499-42.607-0.254
				c-0.438,0.125-0.896-0.16-1.023-0.647c-0.118-0.482,0.148-0.977,0.595-1.109c14.862-4.327,28.688-4.247,43.489,0.262
				c0.442,0.136,0.711,0.635,0.581,1.122C648.137,336.913,647.793,337.173,647.429,337.172z"/>
		</g>
		<g>
			<path fill="#515051" d="M604.341,342.353c-0.362,0.001-0.698-0.271-0.802-0.672c-0.117-0.483,0.156-0.982,0.598-1.116
				c11.127-3.213,21.631-3.985,33.029-2.444c0.453,0.06,0.774,0.514,0.721,1.015c-0.054,0.494-0.476,0.851-0.933,0.785
				c-11.182-1.514-21.475-0.755-32.388,2.395C604.489,342.345,604.415,342.354,604.341,342.353z"/>
		</g>
	</g>
</g>
<g>
	<path fill="#ED5D75" d="M520.724,145.027c0,4.199-0.687,8.342-2.021,12.324c-6.272,28.381-60.515,62.714-62.821,64.176
		c-0.721,0.448-1.531,0.683-2.353,0.683c-0.824,0-1.646-0.209-2.367-0.683c-0.621-0.404-15.9-10.047-31.396-23.303
		c-1.854-1.6-2.049-4.358-0.493-6.205c1.594-1.832,4.35-2.055,6.208-0.497c11.549,9.868,23.221,17.844,28.066,21.057
		c16.291-10.621,52.252-37.642,56.66-57.57c1.151-3.521,1.673-6.722,1.673-9.972c0-11.314-6.16-21.743-16.077-27.207
		c-12.668-7.027-29.623-3.787-38.889,7.383c-1.666,2.017-5.091,2.017-6.787,0c-9.296-11.178-26.235-14.394-38.884-7.395
		c-9.951,5.476-16.11,15.899-16.11,27.201c0,3.229,0.546,6.444,1.565,9.55c0.653,2.907,1.903,5.748,3.494,8.697h25.694l8.824-20.279
		c0.756-1.736,2.561-2.828,4.418-2.632c1.892,0.165,3.469,1.525,3.889,3.373l6.496,27.462l8.401-13.778
		c0.793-1.308,2.219-2.108,3.758-2.108h15.946c2.428,0,4.4,1.965,4.4,4.403c0,2.425-1.973,4.401-4.4,4.401h-13.477l-12.658,20.794
		c-0.807,1.326-2.23,2.117-3.743,2.117c-0.239,0-0.474-0.018-0.688-0.052c-1.772-0.285-3.169-1.592-3.596-3.328l-5.937-25.014
		l-4.688,10.797c-0.701,1.622-2.29,2.646-4.042,2.646h-51.337c-2.409,0-4.401-1.971-4.401-4.401c0-2.425,1.992-4.401,4.401-4.401
		h12.909c-0.916-2.186-1.656-4.307-2.115-6.359c-1.229-3.562-1.893-7.71-1.893-11.888c0-14.518,7.896-27.885,20.652-34.913
		c14.776-8.173,34.329-5.603,46.539,5.871c12.179-11.477,31.719-14.043,46.519-5.871C512.807,117.124,520.724,130.5,520.724,145.027
		z"/>
</g>
<g id="ic_x5F_games_x5F_room">
	<g id="Shape_82">
		<g>
			<path fill="#7791E5" d="M229.38,548.666c3.039-2.374,6.606-4.028,10.432-4.773l13.25-35.145c1.323-3.507,4.52-5.691,7.97-5.792
				l0.214-2.588c0.172-2.055-1.319-3.883-3.315-4.062l-29.329-2.592c-1.996-0.176-3.769,1.361-3.939,3.416l-1.836,21.978
				c1.204,2.297,2.354,4.729,3.433,7.333C229.193,533.513,230.239,540.976,229.38,548.666z M236.695,500.232l4.753,11.259
				l-6.546,10.252l-4.755-11.254L236.695,500.232z M257.898,510.679l-12.368,32.798c0.745,0.036,1.491,0.097,2.247,0.203
				c3.52,0.493,6.914,1.762,9.91,3.699l21.912,3.07c0.971-0.299,1.962-0.528,2.961-0.702l9.568-25.373
				c0.725-1.922-0.207-4.109-2.077-4.854l-27.441-10.978C260.745,507.794,258.623,508.756,257.898,510.679z M263.143,517.157
				c4.212-1.484,5.975,4.126,5.309,5.89c0.666-1.764,5.641-4.679,7.774-0.651c2.667,5.032-12.891,14.223-12.891,14.223
				S257.875,519.021,263.143,517.157z M220.687,528.891c-8.144-19.646-22.549-36.914-50.943-24.428
				c-28.389,12.484-26.256,35.148-18.115,54.79c3.007,7.264,7.802,12.789,13.766,16.819l57.555-25.308
				C224.249,543.545,223.7,536.155,220.687,528.891z M176.997,543.973c-1.771,5.786-7.763,9-13.383,7.176
				c-5.617-1.824-8.744-7.995-6.968-13.783c1.768-5.79,7.766-9.002,13.383-7.18C175.651,532.01,178.767,538.184,176.997,543.973z
				 M220.428,558.429l-47.904,21.065c4.16,1.637,8.413,2.75,13.326,3.24c1.08,0.206,7.458,0.41,8.992,4.105
				c3.348,8.076,6.312,18.638,7.932,22.549c1.624,3.913,3.601,6.63,11.719,3.059c2.974-1.308,4.784-2.569,5.813-3.843
				c-2.757-3.359-3.818-8.038-2.827-13.163c-2.275-4.49-5.206-10.176-7.338-15.327c-1.458-3.522,1.952-7.694,2.889-9.21
				C215.774,566.733,218.67,562.731,220.428,558.429z M289.256,556.069c-3.168-0.44-6.256-0.036-9.05,1.052l-24.834-3.479
				c-2.413-1.814-5.284-3.055-8.45-3.499c-10.17-1.424-19.539,5.913-20.92,16.395c-0.567,4.289,0.292,8.437,2.202,11.939
				c-1.439,5.783-3.604,14.468-4.349,17.456c-1.155,4.62,0.062,8.719,3.971,10.482c3.906,1.77,7.703-0.184,10.178-4.085
				c1.517-2.39,5.878-9.274,9.042-14.264c0.124-0.017,0.248-0.035,0.373-0.051l31.542,4.416c0.093,0.046,0.191,0.085,0.288,0.127
				c1.757,5.679,4.186,13.529,5.027,16.248c1.375,4.442,4.527,7.37,8.752,6.743c4.225-0.63,6.456-4.242,6.544-9.018
				c0.052-3.068,0.217-11.989,0.326-17.955c2.775-2.86,4.701-6.643,5.268-10.957C306.548,567.142,299.427,557.495,289.256,556.069z
				 M241.856,564.269l0.616-4.646c0.181-1.376,1.408-2.339,2.744-2.153l1.292,0.18c1.335,0.188,2.272,1.457,2.091,2.834
				l-0.616,4.645c-0.088,0.688-1.967,3.077-3.497,2.864C242.954,567.775,241.769,564.953,241.856,564.269z M239.352,571.893
				l-4.51-0.632c-1.336-0.187-2.27-1.459-2.089-2.831l0.176-1.329c0.182-1.376,1.411-2.339,2.747-2.153l4.509,0.63
				c0.668,0.098,2.987,2.028,2.78,3.604C242.757,570.76,240.019,571.987,239.352,571.893z M246.752,574.475l-0.614,4.645
				c-0.181,1.377-1.411,2.337-2.744,2.153l-1.294-0.185c-1.335-0.186-2.273-1.45-2.086-2.826l0.61-4.646
				c0.094-0.691,1.968-3.081,3.498-2.867C245.654,570.961,246.843,573.781,246.752,574.475z M255.858,570.312l-0.176,1.327
				c-0.181,1.376-1.414,2.344-2.75,2.154l-4.509-0.633c-0.668-0.093-2.987-2.022-2.78-3.602c0.207-1.578,2.946-2.807,3.614-2.711
				l4.509,0.632C255.103,567.666,256.04,568.938,255.858,570.312z M282.127,574.668c-0.226,1.709-1.755,2.907-3.414,2.677
				c-1.66-0.236-2.822-1.81-2.597-3.515c0.225-1.713,1.755-2.911,3.415-2.677C281.188,571.388,282.353,572.959,282.127,574.668z
				 M288.933,583.88c-0.229,1.711-1.755,2.907-3.417,2.675c-1.657-0.232-2.821-1.806-2.593-3.517
				c0.225-1.711,1.752-2.907,3.412-2.675C287.996,580.598,289.156,582.171,288.933,583.88z M291.071,567.658
				c-0.222,1.711-1.755,2.905-3.412,2.675c-1.662-0.23-2.822-1.804-2.599-3.515c0.228-1.712,1.755-2.905,3.414-2.673
				C290.134,564.376,291.299,565.949,291.071,567.658z M297.876,576.874c-0.226,1.707-1.755,2.905-3.415,2.673
				c-1.659-0.234-2.821-1.806-2.596-3.515s1.752-2.907,3.415-2.675C296.939,573.588,298.102,575.165,297.876,576.874z"/>
		</g>
	</g>
</g>
<g id="calendar_1_">
	<path fill="#B482E0" d="M269.276,256.267h-14.578v-6.728c0-1.859-1.505-3.364-3.364-3.364c-1.859,0-3.364,1.505-3.364,3.364v6.728
		h-20.183v-6.728c0-1.859-1.508-3.364-3.364-3.364c-1.855,0-3.363,1.505-3.363,3.364v6.728h-20.184v-6.728
		c0-1.859-1.507-3.364-3.363-3.364s-3.364,1.505-3.364,3.364v6.728h-14.575c-4.956,0-8.972,4.013-8.972,8.969v79.611
		c0,4.957,4.016,8.971,8.972,8.971h89.702c4.954,0,8.969-4.015,8.969-8.971v-79.611C278.245,260.28,274.23,256.267,269.276,256.267z
		 M271.517,344.846c0,1.238-1.005,2.243-2.241,2.243h-89.702c-1.239,0-2.244-1.005-2.244-2.243v-79.611
		c0-1.235,1.005-2.241,2.244-2.241h14.575v6.727c0,1.86,1.508,3.364,3.364,3.364s3.363-1.504,3.363-3.364v-6.727h20.184v6.727
		c0,1.86,1.508,3.364,3.363,3.364c1.856,0,3.364-1.504,3.364-3.364v-6.727h20.183v6.727c0,1.86,1.504,3.364,3.364,3.364
		c1.859,0,3.364-1.504,3.364-3.364v-6.727h14.578c1.236,0,2.241,1.005,2.241,2.241V344.846z"/>
	<rect x="194.149" y="286.542" fill="#B482E0" width="13.456" height="10.091"/>
	<rect x="194.149" y="303.36" fill="#B482E0" width="13.456" height="10.092"/>
	<rect x="194.149" y="320.179" fill="#B482E0" width="13.456" height="10.091"/>
	<rect x="217.696" y="320.179" fill="#B482E0" width="13.456" height="10.091"/>
	<rect x="217.696" y="303.36" fill="#B482E0" width="13.456" height="10.092"/>
	<rect x="217.696" y="286.542" fill="#B482E0" width="13.456" height="10.091"/>
	<rect x="241.243" y="320.179" fill="#B482E0" width="13.456" height="10.091"/>
	<rect x="241.243" y="303.36" fill="#B482E0" width="13.456" height="10.092"/>
	<rect x="241.243" y="286.542" fill="#B482E0" width="13.456" height="10.091"/>
</g>
<g>
	<path fill="#00BF5A" d="M456.562,628.011c15.074,0,27.338,12.266,27.338,27.338c0,9.136-4.541,17.628-12.148,22.728l-11.667,7.828
		l13.477,3.978c20.414,6.023,35.812,22.532,35.812,38.398c0,9.58-4.865,13.854-33.687,13.854c-2.898,0-5.895-0.032-8.974-0.064
		c-3.297-0.032-6.692-0.064-10.145-0.064c-3.459,0-6.849,0.032-10.146,0.064c-3.08,0.032-6.082,0.064-8.979,0.064
		c-28.82,0-33.681-4.274-33.681-13.854c0-15.862,15.392-32.364,35.806-38.396l13.478-3.976l-11.674-7.828
		c-7.605-5.1-12.149-13.596-12.149-22.731C429.23,640.276,441.49,628.011,456.562,628.011 M456.562,621.415
		c-18.741,0-33.928,15.189-33.928,33.934c0,11.758,5.981,22.117,15.066,28.212c-23.555,6.947-40.532,26.094-40.532,44.72
		c0,18.558,16.85,20.45,40.276,20.45c6.001,0,12.433-0.125,19.124-0.125c6.687,0,13.123,0.125,19.118,0.125
		c23.43,0,40.282-1.893,40.282-20.45c0-18.626-16.979-37.772-40.538-44.726c9.082-6.089,15.06-16.444,15.06-28.206
		C490.496,636.608,475.301,621.415,456.562,621.415L456.562,621.415z"/>
</g>
<g id="miu">
	<g id="house_home_outline_stroke">
		<g>
			<path id="path-1" fill="#DBAF00" d="M674.973,498.168l-60.911,47.122v8.305l60.911-47.122l60.908,47.122v-8.305L674.973,498.168
				L674.973,498.168z M625.138,620.043h27.577v-5.54h-22.04v-65.905l-5.537,4.489V620.043z M719.314,614.503h-22.031v5.54h27.568
				v-67.162l-5.537-4.434V614.503z M658.36,564.616v55.372h33.223v-55.372H658.36z M663.897,570.153v44.297h22.148v-44.297H663.897z
				 M719.27,525.909l5.539,4.736V500.99h-16.613v16.612l5.537,4.823v-15.898h5.537V525.909z"/>
		</g>
		<g>
			<path id="path-1_1_" fill="#DBAF00" d="M674.973,498.168l-60.911,47.122v8.305l60.911-47.122l60.908,47.122v-8.305
				L674.973,498.168L674.973,498.168z M625.138,620.043h27.577v-5.54h-22.04v-65.905l-5.537,4.489V620.043z M719.314,614.503
				h-22.031v5.54h27.568v-67.162l-5.537-4.434V614.503z M658.36,564.616v55.372h33.223v-55.372H658.36z M663.897,570.153v44.297
				h22.148v-44.297H663.897z M719.27,525.909l5.539,4.736V500.99h-16.613v16.612l5.537,4.823v-15.898h5.537V525.909z"/>
		</g>
	</g>
</g>
</svg>
