<?xml version="1.0" encoding="utf-8"?>
<!-- Generator: Adobe Illustrator 16.0.4, SVG Export Plug-In . SVG Version: 6.00 Build 0)  -->
<!DOCTYPE svg PUBLIC "-//W3C//DTD SVG 1.1//EN" "http://www.w3.org/Graphics/SVG/1.1/DTD/svg11.dtd">
<svg version="1.1" id="Layer_1" xmlns="http://www.w3.org/2000/svg" xmlns:xlink="http://www.w3.org/1999/xlink" x="0px" y="0px"
	 width="864px" height="864px" viewBox="0 0 864 864" enable-background="new 0 0 864 864" xml:space="preserve">
<g>
	
		<polyline fill="none" stroke="#FF1D25" stroke-width="6" stroke-linecap="round" stroke-linejoin="bevel" stroke-miterlimit="10" points="
		348.83,66.461 281.84,182.497 358.754,316.2 420.927,316.2 483.094,316.2 560.01,182.497 552.11,168.815 	"/>
	
		<polyline fill="none" stroke="#29AAE1" stroke-width="6" stroke-linecap="round" stroke-linejoin="bevel" stroke-miterlimit="10" points="
		369.607,574.372 431.784,574.372 493.952,574.372 570.865,708.073 503.87,824.108 	"/>
	
		<polyline fill="none" stroke="#8BC53F" stroke-width="6" stroke-linecap="round" stroke-linejoin="bevel" stroke-miterlimit="10" points="
		570.926,459.853 510.466,564.567 588.936,699.237 721.084,699.237 733.081,678.464 	"/>
	
		<polyline fill="none" stroke="#FF921E" stroke-width="6" stroke-linecap="round" stroke-linejoin="bevel" stroke-miterlimit="10" points="
		513.713,346.573 564.664,434.825 696.244,434.825 710.55,410.046 	"/>
	
		<polyline fill="none" stroke="#662D90" stroke-width="6" stroke-linecap="round" stroke-linejoin="bevel" stroke-miterlimit="10" points="
		292.637,459.853 353.096,564.567 274.63,699.237 154.339,699.237 	"/>
	
		<polyline fill="none" stroke="#FF7BAB" stroke-width="6" stroke-linecap="round" stroke-linejoin="bevel" stroke-miterlimit="10" points="
		142.478,199.765 274.63,199.765 353.096,334.438 292.637,439.155 136.502,439.155 128.847,425.894 	"/>
	<g>
		<path fill="#F29111" d="M343.467,418.421c1.241,0,2.304,0.438,3.178,1.318c0.875,0.883,1.324,1.95,1.324,3.194
			c0,1.217-0.447,2.265-1.324,3.146c-0.873,0.877-1.937,1.319-3.178,1.319c-1.207,0-2.256-0.439-3.135-1.319
			c-0.872-0.882-1.316-1.929-1.316-3.146c0-1.248,0.442-2.312,1.316-3.194C341.21,418.86,342.258,418.421,343.467,418.421z
			 M340.769,435.841h5.441v42.297h-5.441V435.841z"/>
		<path fill="#F29111" d="M353.331,435.841h5.443v7.574c2.176-2.902,4.591-5.07,7.234-6.515c2.644-1.43,5.52-2.15,8.628-2.15
			c3.162,0,5.969,0.802,8.422,2.409c2.446,1.61,4.255,3.771,5.418,6.493c1.172,2.723,1.75,6.964,1.75,12.716v21.77h-5.442v-20.176
			c0-4.877-0.201-8.125-0.605-9.76c-0.63-2.806-1.845-4.904-3.63-6.318c-1.788-1.412-4.123-2.121-6.998-2.121
			c-3.294,0-6.238,1.088-8.843,3.271c-2.611,2.173-4.327,4.868-5.158,8.08c-0.518,2.101-0.778,5.939-0.778,11.51v15.514h-5.441
			L353.331,435.841L353.331,435.841z"/>
		<path fill="#F4F3F2" d="M418.966,440.464l-3.493,3.618c-2.918-2.827-5.76-4.24-8.536-4.24c-1.772,0-3.282,0.581-4.542,1.751
			c-1.256,1.164-1.892,2.527-1.892,4.079c0,1.372,0.522,2.681,1.56,3.925c1.031,1.273,3.222,2.764,6.547,4.473
			c4.053,2.103,6.806,4.121,8.257,6.066c1.43,1.967,2.146,4.186,2.146,6.648c0,3.475-1.221,6.414-3.66,8.823
			c-2.441,2.408-5.492,3.615-9.148,3.615c-2.444,0-4.773-0.533-6.989-1.596c-2.219-1.063-4.061-2.529-5.512-4.394l3.424-3.889
			c2.781,3.139,5.726,4.707,8.844,4.707c2.183,0,4.037-0.703,5.569-2.098c1.532-1.4,2.299-3.047,2.299-4.943
			c0-1.556-0.508-2.939-1.516-4.156c-1.012-1.192-3.305-2.694-6.858-4.514c-3.822-1.971-6.416-3.91-7.789-5.828
			c-1.377-1.92-2.069-4.107-2.069-6.57c0-3.219,1.1-5.883,3.294-8.013c2.189-2.117,4.965-3.187,8.316-3.187
			C411.102,434.75,415.02,436.655,418.966,440.464z"/>
		<path fill="#F4F3F2" d="M424.503,435.841h5.44v7.773c2.146-2.955,4.622-5.176,7.415-6.65c2.799-1.478,5.922-2.214,9.369-2.214
			c6.002,0,11.143,2.161,15.411,6.493c4.274,4.332,6.411,9.539,6.411,15.631c0,6.22-2.114,11.504-6.354,15.842
			c-4.229,4.338-9.339,6.508-15.318,6.508c-3.368,0-6.467-0.699-9.284-2.102c-2.815-1.399-5.373-3.477-7.645-6.254v22.737h-5.442
			L424.503,435.841L424.503,435.841z M446.271,439.997c-4.71,0-8.672,1.643-11.893,4.932c-3.217,3.285-4.828,7.375-4.828,12.271
			c0,3.209,0.72,6.095,2.15,8.66c1.438,2.565,3.496,4.595,6.174,6.1c2.673,1.499,5.499,2.253,8.473,2.253
			c2.922,0,5.671-0.754,8.239-2.274c2.578-1.519,4.625-3.626,6.152-6.351c1.526-2.715,2.283-5.566,2.283-8.543
			c0-3.002-0.755-5.854-2.268-8.545c-1.514-2.691-3.556-4.775-6.11-6.267C452.087,440.741,449.292,439.997,446.271,439.997z"/>
		<path fill="#F4F3F2" d="M476.432,418.421c1.239,0,2.291,0.438,3.172,1.318c0.877,0.883,1.315,1.95,1.315,3.194
			c0,1.217-0.438,2.265-1.315,3.146c-0.878,0.877-1.931,1.319-3.172,1.319c-1.218,0-2.263-0.439-3.14-1.319
			c-0.876-0.882-1.315-1.929-1.315-3.146c0-1.248,0.439-2.312,1.315-3.194C474.169,418.86,475.211,418.421,476.432,418.421z
			 M473.723,435.841h5.443v42.297h-5.443V435.841z"/>
		<path fill="#F4F3F2" d="M473.755,435.288h5.562v6.188c1.654-2.438,3.403-4.264,5.249-5.465c1.839-1.203,3.753-1.812,5.752-1.812
			c1.504,0,3.112,0.481,4.823,1.442l-2.838,4.586c-1.141-0.49-2.1-0.738-2.879-0.738c-1.818,0-3.563,0.742-5.247,2.232
			c-1.683,1.494-2.967,3.812-3.85,6.938c-0.675,2.413-1.007,7.285-1.007,14.62v14.308h-5.562L473.755,435.288L473.755,435.288z"/>
		<path fill="#F4F3F2" d="M530.876,463.558l4.585,2.41c-1.5,2.952-3.24,5.339-5.216,7.152c-1.972,1.819-4.189,3.192-6.65,4.141
			c-2.464,0.949-5.255,1.418-8.362,1.418c-6.905,0-12.301-2.262-16.191-6.789c-3.893-4.518-5.836-9.635-5.836-15.332
			c0-5.366,1.643-10.146,4.939-14.346c4.179-5.346,9.77-8.012,16.771-8.012c7.217,0,12.97,2.733,17.276,8.2
			c3.062,3.869,4.614,8.687,4.668,14.466h-38.056c0.094,4.911,1.668,8.941,4.7,12.087c3.035,3.134,6.784,4.708,11.253,4.708
			c2.155,0,4.252-0.375,6.29-1.123c2.029-0.746,3.768-1.746,5.188-2.98C527.67,468.319,529.215,466.321,530.876,463.558z
			 M530.876,452.165c-0.726-2.902-1.786-5.219-3.171-6.961c-1.39-1.734-3.225-3.143-5.513-4.198
			c-2.285-1.064-4.685-1.589-7.201-1.589c-4.15,0-7.721,1.332-10.709,4c-2.175,1.945-3.825,4.86-4.941,8.749L530.876,452.165
			L530.876,452.165z"/>
	</g>
	<g id="_x36__1_">
		<path fill="#F4F3F2" d="M691.647,583.585c-0.203,0-0.414,0.02-0.618,0.02v-58.69l33.272-23.488l-33.272-14.77v-2.261h-4.926
			v99.355c-18.812,0.979-36.972,6.889-36.972,17.084c0,11.207,21.902,17.254,42.515,17.254c20.613,0,42.514-6.047,42.514-17.254
			C734.161,589.638,712.261,583.585,691.647,583.585z M691.647,613.159c-21.512,0-37.584-6.509-37.584-12.326
			c0-5.299,13.38-11.158,32.04-12.158v12.158h4.926v-12.306c0.209,0,0.404-0.018,0.618-0.018c21.51,0,37.591,6.506,37.591,12.318
			C729.235,606.657,713.157,613.159,691.647,613.159z"/>
		<path fill="#F4F3F2" d="M609.088,600.835c-13.954,0-25.26,11.317-25.26,25.262c0,13.957,11.304,25.264,25.26,25.264
			c13.959,0,25.258-11.309,25.258-25.264C634.35,612.146,623.046,600.835,609.088,600.835z"/>
	</g>
	<g id="_x39__1_">
		<path fill="#F4F3F2" d="M451.458,190.629c0-0.264,0-13.22,0-13.483c-0.264,0-48.744,0-49.005,0c0,0.261,0,13.217,0,13.483
			C402.714,190.629,451.194,190.629,451.458,190.629z"/>
		<path fill="#F4F3F2" d="M368.743,194.987c0-0.261,0-21.938,0-22.201c-0.245,0-4.188,0-4.429,0c0,0.261,0,21.94,0,22.201
			C364.557,194.987,368.496,194.987,368.743,194.987z"/>
		<path fill="#F4F3F2" d="M485.171,172.784c0,0.266-0.004,21.94-0.004,22.202c0.246,0,4.185,0,4.431,0
			c0-0.655-0.003-21.965-0.003-22.202C489.348,172.784,485.413,172.784,485.171,172.784z"/>
		<path fill="#F4F3F2" d="M356.981,188.041c-0.062-0.301-1.741-8.429-1.781-8.631c-0.202,0-3.376,0-3.671,0
			c0.066,0.305,1.749,8.422,1.787,8.631C353.516,188.041,356.691,188.041,356.981,188.041z"/>
		<path fill="#F4F3F2" d="M361.951,179.41c-0.245,0-4.043,0-4.345,0c0.068,0.305,1.746,8.427,1.786,8.633c0.192,0,2.33,0,2.56,0
			C361.951,187.788,361.951,179.668,361.951,179.41z"/>
		<path fill="#F4F3F2" d="M344.831,188.041c-0.058-0.308-1.743-8.429-1.783-8.631c-0.188,0-2.259,0-2.489,0c0,0.257,0,8.378,0,8.631
			C340.802,188.041,344.541,188.041,344.831,188.041z"/>
		<path fill="#F4F3F2" d="M350.909,188.041c-0.06-0.301-1.746-8.429-1.78-8.631c-0.201,0-3.374,0-3.667,0
			c0.066,0.305,1.747,8.422,1.789,8.631C347.442,188.041,350.618,188.041,350.909,188.041z"/>
		<path fill="#F4F3F2" d="M491.957,179.41c0,0.261,0,8.378,0,8.633c0.241,0,3.979,0,4.277,0c-0.066-0.3-1.746-8.42-1.785-8.633
			C494.253,179.41,492.188,179.41,491.957,179.41z"/>
		<path fill="#F4F3F2" d="M502.934,179.41c0.062,0.312,1.74,8.427,1.781,8.633c0.194,0,3.371,0,3.664,0
			c-0.062-0.3-1.747-8.42-1.784-8.633C506.396,179.41,503.227,179.41,502.934,179.41z"/>
		<path fill="#F4F3F2" d="M509.007,179.41c0.066,0.312,1.749,8.427,1.782,8.633c0.2,0,2.329,0,2.564,0c0-0.251,0-8.368,0-8.633
			C513.11,179.41,509.303,179.41,509.007,179.41z"/>
		<path fill="#F4F3F2" d="M496.854,179.41c0.069,0.312,1.747,8.427,1.788,8.633c0.194,0,3.373,0,3.67,0
			c-0.07-0.3-1.75-8.42-1.787-8.633C500.322,179.41,497.149,179.41,496.854,179.41z"/>
		<path fill="#F4F3F2" d="M400.092,220.205c0-0.264,0-72.373,0-72.64c-0.258,0-14.511,0-14.767,0c0,0.132,0,72.387,0,72.64
			C385.581,220.205,399.832,220.205,400.092,220.205z"/>
		<path fill="#F4F3F2" d="M382.961,209.054c0-0.264,0-50.072,0-50.336c-0.256,0-11.604,0-11.861,0c0,0.265,0,50.074,0,50.336
			C371.36,209.054,382.723,209.054,382.961,209.054z"/>
		<path fill="#F4F3F2" d="M453.821,147.567c0,0.269,0,72.374,0,72.64c0.259,0,14.505,0,14.76,0c0-0.254,0-72.466,0-72.64
			C468.326,147.567,454.074,147.567,453.821,147.567z"/>
		<path fill="#F4F3F2" d="M470.945,158.716c0,0.267,0.001,50.075,0.001,50.337c0.254,0,11.599,0,11.86,0c0-0.263,0-50.071,0-50.337
			C482.557,158.716,471.2,158.716,470.945,158.716z"/>
	</g>
	<g id="_x32_1_1_">
		<path fill="#F4F3F2" d="M258.358,530.89c7.372,0,13.366-5.994,13.366-13.359c0-7.372-5.996-13.364-13.366-13.364
			c-7.361,0-13.364,5.992-13.364,13.364C244.996,524.894,250.999,530.89,258.358,530.89z"/>
		<path fill="#F4F3F2" d="M286.261,540.698c-1.659-1.941-3.974-3.134-6.528-3.337c-2.557-0.2-5.032,0.603-6.982,2.263
			c0,0-11.939,10.178-14.882,12.682c-1.062-1.852-3.818-6.629-6.028-10.488c0.375-3.957-0.771-7.797-3.558-10.539
			c-0.704-0.688-1.483-1.268-2.308-1.754l0.041-0.039l-0.319-0.086c-1.662-0.918-3.513-1.412-5.438-1.534l-23.436-6.603l0.182,0.055
			l-2.245-0.475c0.249,0.041-4.022-0.023-4.022-0.023l-28.839,5.949c-2.559,0.531-4.805,2.056-6.162,4.187
			c-1.289,2.01-1.69,4.387-1.141,6.682c1.152,4.857,6.259,7.939,11.385,6.883c0,0,25.632-5.293,26.521-5.475
			c0.338,0.088,3.451,0.883,7.058,1.813l-6.967,7.078l19.143,19.854l8.142-8.289l6.898,11.983c2.633,4.584,8.495,6.16,13.068,3.537
			c0.013-0.037,2.867-1.651,2.867-1.651l22.476-19.162c1.948-1.658,3.136-3.976,3.34-6.529c0.016-0.258,0.026-0.514,0.026-0.776
			C288.553,544.626,287.753,542.454,286.261,540.698z"/>
		<path fill="#F4F3F2" d="M246.513,591.524l-19.424-18.965l1.111-1.131l-6.407-6.639l-1.904-1.979L213.9,556.6l-2.021-2.1
			l-2.818-2.922l-3.053,3.104c-1.103,1.129-1.975,2.363-2.735,3.635l-69.097,48.748c-5.186,3.65-6.879,10.211-3.779,14.625
			c3.111,4.404,9.863,5.025,15.042,1.375l61.263-43.227c5.533,5.254,18.244,17.354,20.183,19.188
			c-2.254,2.64-23.788,27.937-23.788,27.937c-2.431,2.91-3.482,5.475-3.482,8.365c0,1.522,0.522,3.729,1.542,5.004
			c0,0,6.115,9.985,16.815-0.689l27.239-31.653c5.354-6.269,5.724-10.697,1.38-16.349L246.513,591.524z"/>
	</g>
	<g>
		<path fill="#F4F3F2" d="M691.416,322.196c-8.658-5.278-17.604-9.432-27.097-12.508c-9.226-2.982-18.482-4.781-27.702-5.417
			c-8.461-5.089-17.363-9.167-26.604-12.157c-9.492-3.071-18.951-4.87-28.436-5.451l-2.548-0.104L554.159,363.4l3.448,0.809
			c9.193,2.201,18.084,4.684,27.031,7.58c7.934,2.564,15.184,5.222,22.213,8.11l-0.166,0.498c0,0,1.074,1.562,4.781,2.763
			c3.715,1.204,5.518,0.574,5.518,0.574l0.165-0.504c7.392,1.78,14.58,3.804,22.507,6.363c8.945,2.897,17.299,5.996,26.041,9.601
			l2.788,1.209l24.883-76.895L691.416,322.196z"/>
	</g>
	<g>
		<path fill="#7F7F7F" d="M667.303,395.775c-17.728-7.312-35.834-13.172-54.479-17.632c7.566-23.391,15.139-46.782,22.71-70.174
			c19.176,1.17,38.128,7.657,54.481,17.633C682.444,348.996,674.874,372.387,667.303,395.775z"/>
	</g>
	<g>
		<path fill="#7F7F7F" d="M612.824,378.143c-17.725-7.311-35.833-13.171-54.475-17.632c7.566-23.393,15.138-46.784,22.707-70.171
			c19.179,1.168,38.13,7.655,54.478,17.632C627.965,331.364,620.391,354.754,612.824,378.143z"/>
	</g>
	<g>
		<g>
			<path fill="#F4F3F2" d="M612.824,378.143c-15.604-10.917-32.148-16.269-51.188-16.566c7.547-23.317,15.09-46.637,22.64-69.95
				c20.007-2.646,36.418,2.917,51.185,16.563C627.917,331.509,620.374,354.828,612.824,378.143z"/>
		</g>
	</g>
	<g>
		<g>
			<path fill="#F4F3F2" d="M612.414,378.01c19.039,0.293,35.584,5.648,51.189,16.565c7.545-23.318,15.092-46.634,22.635-69.95
				c-14.661-13.863-31.215-18.975-51.186-16.566C627.505,331.378,619.959,354.694,612.414,378.01z"/>
		</g>
	</g>
	<g>
		<g>
			<g>
				<path fill="#7F7F7F" d="M677.991,328.944c-0.066-0.021-0.123-0.05-0.177-0.091c-12.18-8.05-24.638-12.083-39.222-12.69
					c-0.447-0.019-0.777-0.424-0.741-0.905c0.041-0.48,0.436-0.851,0.886-0.833c14.866,0.62,27.564,4.729,39.974,12.936
					c0.374,0.249,0.473,0.781,0.225,1.195C678.727,328.902,678.337,329.054,677.991,328.944z"/>
			</g>
			<g>
				<path fill="#7F7F7F" d="M676.372,333.948c-0.065-0.021-0.124-0.05-0.181-0.086c-12.176-8.051-24.639-12.088-39.217-12.691
					c-0.447-0.021-0.778-0.425-0.739-0.905c0.039-0.479,0.435-0.855,0.882-0.834c14.862,0.621,27.57,4.731,39.976,12.939
					c0.38,0.245,0.479,0.779,0.229,1.193C677.108,333.911,676.713,334.058,676.372,333.948z"/>
			</g>
			<g>
				<path fill="#7F7F7F" d="M674.748,338.955c-0.062-0.023-0.12-0.05-0.179-0.087c-12.175-8.052-24.636-12.083-39.214-12.695
					c-0.45-0.019-0.782-0.421-0.743-0.9c0.04-0.479,0.438-0.854,0.886-0.836c14.863,0.621,27.562,4.732,39.973,12.939
					c0.372,0.248,0.472,0.782,0.224,1.198C675.484,338.917,675.1,339.067,674.748,338.955z"/>
			</g>
			<g>
				<path fill="#7F7F7F" d="M633.532,331.145c-0.343-0.108-0.576-0.459-0.54-0.866c0.04-0.481,0.435-0.853,0.883-0.837
					c14.86,0.617,27.562,4.731,39.973,12.938c0.377,0.25,0.475,0.787,0.228,1.199c-0.248,0.412-0.756,0.546-1.127,0.297
					c-12.172-8.052-24.638-12.085-39.217-12.69C633.666,331.177,633.598,331.17,633.532,331.145z"/>
			</g>
			<g>
				<path fill="#7F7F7F" d="M631.915,336.153c-0.331-0.111-0.563-0.446-0.541-0.839c0.024-0.479,0.405-0.868,0.854-0.868
					c5.287,0.013,10.558,0.635,15.662,1.836c0.439,0.1,0.692,0.566,0.577,1.037c-0.12,0.471-0.566,0.769-0.995,0.664
					c-4.995-1.179-10.154-1.783-15.323-1.796C632.061,336.187,631.989,336.177,631.915,336.153z"/>
			</g>
			<g>
				<path fill="#7F7F7F" d="M630.29,341.16c-0.343-0.113-0.573-0.466-0.538-0.874c0.032-0.476,0.436-0.854,0.876-0.832
					c14.864,0.619,27.575,4.729,39.978,12.937c0.379,0.248,0.479,0.783,0.223,1.193c-0.248,0.414-0.749,0.547-1.123,0.298
					c-12.177-8.047-24.635-12.081-39.216-12.692C630.426,341.192,630.357,341.181,630.29,341.16z"/>
			</g>
			<g>
				<path fill="#7F7F7F" d="M668.268,358.98c-0.063-0.021-0.122-0.049-0.184-0.089c-12.171-8.046-24.63-12.083-39.209-12.689
					c-0.451-0.02-0.783-0.426-0.746-0.903c0.042-0.482,0.436-0.855,0.883-0.835c14.864,0.621,27.572,4.73,39.979,12.937
					c0.372,0.248,0.476,0.784,0.22,1.196C669.003,358.942,668.612,359.093,668.268,358.98z"/>
			</g>
			<g>
				<path fill="#7F7F7F" d="M666.648,363.986c-0.063-0.021-0.123-0.05-0.182-0.089c-12.174-8.047-24.635-12.08-39.217-12.689
					c-0.449-0.018-0.78-0.425-0.739-0.903c0.032-0.48,0.437-0.853,0.88-0.84c14.866,0.625,27.572,4.736,39.978,12.938
					c0.376,0.248,0.476,0.782,0.223,1.196C667.386,363.946,666.993,364.1,666.648,363.986z"/>
			</g>
			<g>
				<path fill="#7F7F7F" d="M625.432,356.178c-0.332-0.107-0.562-0.441-0.541-0.835c0.021-0.48,0.406-0.871,0.857-0.871
					c4.864,0.015,9.729,0.541,14.454,1.565c0.438,0.09,0.696,0.549,0.587,1.023c-0.105,0.47-0.547,0.778-0.982,0.681
					c-4.625-1-9.382-1.515-14.143-1.528C625.578,356.213,625.504,356.201,625.432,356.178z"/>
			</g>
			<g>
				<path fill="#7F7F7F" d="M663.411,374.003c-0.063-0.021-0.125-0.049-0.185-0.086c-12.174-8.053-24.635-12.083-39.217-12.693
					c-0.447-0.018-0.781-0.424-0.74-0.905c0.039-0.481,0.435-0.853,0.885-0.836c14.863,0.623,27.565,4.733,39.976,12.939
					c0.376,0.25,0.472,0.78,0.225,1.194C664.143,373.961,663.749,374.109,663.411,374.003z"/>
			</g>
			<g>
				<path fill="#7F7F7F" d="M622.19,366.189c-0.339-0.108-0.576-0.458-0.541-0.865c0.039-0.482,0.435-0.856,0.886-0.839
					c8.104,0.328,15.455,1.616,23.119,4.061c0.431,0.152,0.652,0.622,0.504,1.081c-0.15,0.459-0.611,0.728-1.035,0.59
					c-7.539-2.401-14.762-3.669-22.729-3.989C622.321,366.225,622.257,366.212,622.19,366.189z"/>
			</g>
		</g>
	</g>
	<g>
		<g>
			<g>
				<path fill="#7F7F7F" d="M627.294,312.521c-0.065-0.023-0.127-0.05-0.19-0.097c-12.082-8.309-24.533-12.338-39.193-12.683
					c-0.448-0.012-0.787-0.409-0.757-0.891c0.037-0.481,0.428-0.864,0.873-0.854c14.963,0.355,27.676,4.472,40.007,12.946
					c0.372,0.256,0.465,0.796,0.206,1.204C628.021,312.486,627.632,312.629,627.294,312.521z"/>
			</g>
			<g>
				<path fill="#7F7F7F" d="M586.073,304.707c-0.337-0.106-0.57-0.451-0.54-0.852c0.031-0.482,0.42-0.862,0.869-0.851
					c14.959,0.353,27.675,4.468,40.006,12.946c0.367,0.256,0.459,0.794,0.204,1.202c-0.256,0.409-0.759,0.535-1.131,0.283
					c-12.081-8.307-24.536-12.343-39.193-12.688C586.212,304.745,586.146,304.73,586.073,304.707z"/>
			</g>
			<g>
				<path fill="#7F7F7F" d="M624.055,322.534c-0.066-0.026-0.129-0.057-0.194-0.101c-12.078-8.305-24.53-12.34-39.193-12.684
					c-0.448-0.008-0.787-0.409-0.754-0.891c0.028-0.481,0.421-0.859,0.871-0.852c14.962,0.354,27.673,4.471,40.01,12.951
					c0.366,0.253,0.46,0.79,0.207,1.196C624.781,322.499,624.391,322.642,624.055,322.534z"/>
			</g>
			<g>
				<path fill="#7F7F7F" d="M622.434,327.54c-0.065-0.021-0.134-0.053-0.192-0.097c-12.074-8.304-24.531-12.34-39.192-12.687
					c-0.449-0.01-0.789-0.407-0.756-0.889c0.032-0.479,0.425-0.865,0.872-0.852c14.966,0.354,27.674,4.469,40.005,12.949
					c0.369,0.253,0.458,0.795,0.203,1.2C623.159,327.503,622.771,327.647,622.434,327.54z"/>
			</g>
			<g>
				<path fill="#7F7F7F" d="M581.214,319.729c-0.336-0.108-0.567-0.454-0.542-0.851c0.029-0.483,0.426-0.865,0.869-0.854
					c6.272,0.149,12.016,0.872,18.074,2.279c0.436,0.103,0.693,0.565,0.574,1.036c-0.112,0.469-0.561,0.771-0.993,0.666
					c-5.955-1.378-11.605-2.093-17.771-2.239C581.35,319.765,581.28,319.748,581.214,319.729z"/>
			</g>
			<g>
				<path fill="#7F7F7F" d="M619.193,337.552c-0.07-0.025-0.135-0.056-0.196-0.097c-12.081-8.311-24.528-12.339-39.188-12.683
					c-0.447-0.015-0.788-0.411-0.756-0.895c0.032-0.481,0.425-0.864,0.868-0.85c14.966,0.354,27.681,4.468,40.011,12.948
					c0.367,0.255,0.459,0.792,0.207,1.2C619.917,337.52,619.531,337.662,619.193,337.552z"/>
			</g>
			<g>
				<path fill="#7F7F7F" d="M577.975,329.742c-0.341-0.108-0.572-0.451-0.543-0.852c0.034-0.486,0.42-0.864,0.872-0.852
					c14.962,0.351,27.675,4.469,40.005,12.95c0.368,0.251,0.463,0.788,0.205,1.199c-0.254,0.411-0.763,0.535-1.131,0.28
					c-12.081-8.311-24.531-12.342-39.194-12.687C578.109,329.775,578.04,329.766,577.975,329.742z"/>
			</g>
			<g>
				<path fill="#7F7F7F" d="M615.949,347.564c-0.065-0.021-0.131-0.056-0.19-0.097c-12.081-8.306-24.532-12.338-39.191-12.686
					c-0.446-0.01-0.786-0.407-0.755-0.893c0.029-0.479,0.423-0.861,0.871-0.847c14.961,0.353,27.675,4.468,40.006,12.946
					c0.367,0.255,0.461,0.789,0.209,1.199C616.677,347.532,616.29,347.672,615.949,347.564z"/>
			</g>
			<g>
				<path fill="#7F7F7F" d="M574.727,339.754c-0.331-0.108-0.567-0.455-0.538-0.854c0.036-0.482,0.424-0.862,0.872-0.854
					c13.123,0.359,24.517,3.566,35.851,10.1c0.387,0.226,0.514,0.75,0.283,1.173c-0.224,0.427-0.726,0.59-1.114,0.366
					c-11.111-6.407-22.273-9.552-35.144-9.899C574.868,339.787,574.797,339.775,574.727,339.754z"/>
			</g>
			<g>
				<path fill="#7F7F7F" d="M612.578,357.997c-0.072-0.025-0.134-0.055-0.196-0.1c-12.081-8.304-24.534-12.339-39.194-12.682
					c-0.443-0.013-0.784-0.409-0.754-0.892c0.032-0.48,0.422-0.861,0.871-0.848c14.963,0.354,27.678,4.467,40.007,12.946
					c0.366,0.255,0.464,0.793,0.206,1.204C613.307,357.965,612.914,358.104,612.578,357.997z"/>
			</g>
			<g>
				<path fill="#7F7F7F" d="M571.354,350.185c-0.335-0.109-0.57-0.454-0.544-0.856c0.033-0.479,0.427-0.859,0.877-0.849
					c11.193,0.289,21.095,2.646,31.154,7.396c0.4,0.189,0.565,0.7,0.369,1.147c-0.195,0.439-0.687,0.641-1.089,0.451
					c-9.863-4.662-19.57-6.97-30.55-7.255C571.492,350.22,571.422,350.207,571.354,350.185z"/>
			</g>
		</g>
	</g>
	<path fill="#F4F3F2" d="M217.801,288.405c2.24-5.158,17.16-40.478,17.16-40.478l-0.131-0.133l-0.182-0.025l-17.62,30.78
		c0,0-0.274,0.488-0.768,0.239c-0.485-0.247-0.24-0.744-0.24-0.744l14.208-32.496l-0.133-0.15l-0.201-0.018l-17.718,30.704
		c0,0-0.268,0.499-0.715,0.273c-0.45-0.229-0.215-0.744-0.215-0.744l14.276-32.444l-0.141-0.149l-0.199-0.027l-17.788,30.682
		c0,0-0.276,0.487-0.746,0.245c-0.476-0.242-0.257-0.756-0.257-0.756l14.389-32.417l-0.134-0.134l-0.182-0.024
		c0,0-19.645,32.927-22.482,37.783c-0.271,0.458-0.173,0.877,0.19,1.242c1.24,1.229,3.807,4.901,3.236,11.414
		c-0.426,6.794-38.627,70.312-47.156,83.941c-2.121,3.382-3.288,9.111-0.18,14.671l0,0c6.323-0.782,10.244-5.11,11.716-8.825
		c5.945-14.939,34.55-83.316,39.775-87.68c4.916-4.312,9.392-4.411,11.12-4.142C217.2,289.064,217.589,288.891,217.801,288.405z
		 M155.608,375.03c1.663-2.656,2.42-3.368,2.42-3.368s-2.73,4.38-3.424,7.059c-0.665,2.274-0.97,4.901,0.014,9.665
		C152.312,383.232,153.643,378.171,155.608,375.03z"/>
	<path fill="#F4F3F2" d="M262.855,320.316c6.938-2.348,13.919-8.674,18.423-17.562c7.256-14.319,5.347-29.873-4.259-34.738
		c-9.608-4.869-23.276,2.795-30.53,17.111c-4.486,8.849-5.463,18.173-3.284,25.152c-0.253,0.423-0.457,0.771-0.613,1.035
		c-0.262,0.458-0.172,0.878,0.189,1.24c1.243,1.23,3.91,4.691,3.348,11.203c-0.426,6.795-34.091,61.344-42.615,74.966
		c-2.125,3.391-3.291,9.113-0.179,14.674l0,0c6.32-0.782,10.241-5.116,11.719-8.824c5.939-14.938,30.006-74.347,35.232-78.71
		c4.916-4.312,9.282-4.205,11.011-3.934c0.504,0.078,0.905-0.093,1.118-0.582C262.524,321.085,262.675,320.736,262.855,320.316z
		 M211.99,406.372c1.754-2.14,3.666-6.935,3.666-6.935s-0.124,1.026-1.28,3.936c-1.371,3.441-4.668,7.509-10.185,8.708
		C208.611,410.048,210.552,408.247,211.99,406.372z"/>
	<path fill="#F4F3F2" d="M470.407,688.843c6.963,3.541,15.605,3.195,22.404-1.666c6.851-4.9,9.964-13.059,8.777-20.857
		c-5.107,3.662-6.407,4.593-8.241,5.896c-4.386,3.141-10.491,2.127-13.63-2.264c-3.138-4.39-2.122-10.494,2.263-13.636
		c1.98-1.418,3.357-2.395,8.242-5.889c-6.993-3.643-15.725-3.334-22.572,1.564c-6.793,4.862-9.917,12.928-8.813,20.659
		l-73.645,52.98c-6.96-3.545-15.605-3.199-22.403,1.66c-6.849,4.897-9.965,13.063-8.777,20.856c5.112-3.659,6.41-4.586,8.238-5.896
		c4.396-3.139,10.498-2.125,13.636,2.264c3.14,4.391,2.125,10.5-2.262,13.635c-1.984,1.42-3.353,2.4-8.24,5.892
		c6.99,3.641,15.72,3.334,22.567-1.562c6.796-4.858,9.919-12.93,8.818-20.662L470.407,688.843z"/>
</g>
</svg>
