<?xml version="1.0" encoding="utf-8"?>
<!-- Generator: Adobe Illustrator 16.0.4, SVG Export Plug-In . SVG Version: 6.00 Build 0)  -->
<!DOCTYPE svg PUBLIC "-//W3C//DTD SVG 1.1//EN" "http://www.w3.org/Graphics/SVG/1.1/DTD/svg11.dtd">
<svg version="1.1" id="Layer_1" xmlns="http://www.w3.org/2000/svg" xmlns:xlink="http://www.w3.org/1999/xlink" x="0px" y="0px"
	 width="864px" height="864px" viewBox="216 72 864 864" enable-background="new 216 72 864 864" xml:space="preserve">
<g>
	
		<polyline fill="none" stroke="#FF1D25" stroke-width="6" stroke-linecap="round" stroke-linejoin="bevel" stroke-miterlimit="10" points="
		571.127,118.743 504.137,234.779 581.051,368.482 643.224,368.482 705.391,368.482 782.307,234.779 774.407,221.097 	"/>
	
		<polyline fill="none" stroke="#29AAE1" stroke-width="6" stroke-linecap="round" stroke-linejoin="bevel" stroke-miterlimit="10" points="
		591.904,626.654 654.081,626.654 716.249,626.654 793.162,760.355 726.167,876.391 	"/>
	
		<polyline fill="none" stroke="#8BC53F" stroke-width="6" stroke-linecap="round" stroke-linejoin="bevel" stroke-miterlimit="10" points="
		793.223,512.135 732.763,616.85 811.232,751.52 943.381,751.52 955.378,730.746 	"/>
	
		<polyline fill="none" stroke="#FF921E" stroke-width="6" stroke-linecap="round" stroke-linejoin="bevel" stroke-miterlimit="10" points="
		736.01,398.855 786.961,487.107 918.541,487.107 932.847,462.328 	"/>
	
		<polyline fill="none" stroke="#662D90" stroke-width="6" stroke-linecap="round" stroke-linejoin="bevel" stroke-miterlimit="10" points="
		514.934,512.135 575.393,616.85 496.927,751.52 376.636,751.52 	"/>
	
		<polyline fill="none" stroke="#FF7BAB" stroke-width="6" stroke-linecap="round" stroke-linejoin="bevel" stroke-miterlimit="10" points="
		364.775,252.047 496.927,252.047 575.393,386.72 514.934,491.438 358.799,491.438 351.144,478.176 	"/>
	<g>
		<path fill="#F29111" d="M565.764,470.703c1.241,0,2.303,0.439,3.177,1.318c0.875,0.883,1.325,1.951,1.325,3.195
			c0,1.217-0.448,2.264-1.325,3.146c-0.873,0.877-1.936,1.32-3.177,1.32c-1.207,0-2.256-0.44-3.135-1.32
			c-0.872-0.882-1.316-1.928-1.316-3.146c0-1.248,0.442-2.312,1.316-3.195C563.507,471.143,564.555,470.703,565.764,470.703z
			 M563.065,488.123h5.442v42.297h-5.442V488.123z"/>
		<path fill="#F29111" d="M575.628,488.123h5.443v7.574c2.176-2.902,4.591-5.07,7.235-6.514c2.643-1.43,5.519-2.151,8.628-2.151
			c3.162,0,5.968,0.802,8.422,2.409c2.446,1.611,4.254,3.772,5.417,6.494c1.172,2.722,1.751,6.963,1.751,12.715v21.77h-5.443
			v-20.176c0-4.877-0.201-8.125-0.605-9.76c-0.63-2.805-1.845-4.904-3.63-6.318c-1.788-1.412-4.123-2.121-6.998-2.121
			c-3.294,0-6.239,1.088-8.843,3.271c-2.611,2.173-4.327,4.869-5.158,8.081c-0.518,2.1-0.779,5.939-0.779,11.509v15.514h-5.441
			L575.628,488.123L575.628,488.123z"/>
		<path fill="#F4F3F2" d="M641.263,492.746l-3.493,3.618c-2.918-2.827-5.76-4.24-8.537-4.24c-1.772,0-3.282,0.581-4.542,1.751
			c-1.255,1.164-1.891,2.527-1.891,4.079c0,1.372,0.522,2.681,1.559,3.925c1.032,1.273,3.222,2.764,6.547,4.473
			c4.053,2.102,6.806,4.121,8.257,6.066c1.43,1.967,2.146,4.186,2.146,6.648c0,3.475-1.221,6.414-3.661,8.824
			c-2.441,2.408-5.492,3.615-9.148,3.615c-2.444,0-4.774-0.533-6.989-1.596c-2.219-1.063-4.061-2.529-5.512-4.393l3.424-3.889
			c2.781,3.139,5.725,4.707,8.844,4.707c2.182,0,4.037-0.703,5.569-2.098c1.532-1.4,2.299-3.047,2.299-4.943
			c0-1.556-0.508-2.939-1.516-4.156c-1.012-1.193-3.305-2.695-6.858-4.514c-3.823-1.971-6.416-3.91-7.789-5.828
			c-1.377-1.92-2.07-4.107-2.07-6.57c0-3.219,1.1-5.883,3.294-8.013c2.19-2.117,4.965-3.187,8.317-3.187
			C633.398,487.032,637.316,488.937,641.263,492.746z"/>
		<path fill="#F4F3F2" d="M646.8,488.123h5.44v7.773c2.146-2.955,4.622-5.175,7.415-6.65c2.799-1.477,5.922-2.214,9.369-2.214
			c6.002,0,11.143,2.161,15.412,6.493c4.274,4.332,6.411,9.539,6.411,15.631c0,6.22-2.115,11.504-6.354,15.842
			c-4.228,4.338-9.339,6.508-15.318,6.508c-3.368,0-6.467-0.699-9.284-2.102c-2.816-1.399-5.373-3.476-7.645-6.254v22.738h-5.442
			L646.8,488.123L646.8,488.123z M668.568,492.279c-4.71,0-8.671,1.643-11.892,4.932c-3.217,3.285-4.828,7.375-4.828,12.271
			c0,3.209,0.719,6.095,2.15,8.661c1.438,2.565,3.496,4.594,6.174,6.099c2.673,1.499,5.499,2.253,8.473,2.253
			c2.921,0,5.67-0.754,8.239-2.274c2.578-1.519,4.625-3.626,6.152-6.351c1.526-2.715,2.283-5.566,2.283-8.543
			c0-3.002-0.755-5.853-2.267-8.545c-1.514-2.691-3.556-4.775-6.111-6.266C674.384,493.023,671.589,492.279,668.568,492.279z"/>
		<path fill="#F4F3F2" d="M698.729,470.703c1.239,0,2.291,0.439,3.171,1.318c0.877,0.883,1.316,1.951,1.316,3.195
			c0,1.217-0.438,2.264-1.316,3.146c-0.878,0.877-1.93,1.32-3.171,1.32c-1.218,0-2.263-0.44-3.14-1.32
			c-0.876-0.882-1.316-1.928-1.316-3.146c0-1.248,0.44-2.312,1.316-3.195C696.466,471.143,697.508,470.703,698.729,470.703z
			 M696.02,488.123h5.443v42.297h-5.443V488.123z"/>
		<path fill="#F4F3F2" d="M696.052,487.57h5.561v6.188c1.655-2.438,3.404-4.264,5.249-5.465c1.839-1.203,3.753-1.812,5.752-1.812
			c1.504,0,3.113,0.482,4.823,1.443l-2.837,4.586c-1.141-0.49-2.1-0.738-2.879-0.738c-1.819,0-3.564,0.742-5.247,2.232
			c-1.683,1.494-2.967,3.811-3.85,6.938c-0.675,2.414-1.007,7.286-1.007,14.621v14.307h-5.561L696.052,487.57L696.052,487.57z"/>
		<path fill="#F4F3F2" d="M753.173,515.84l4.585,2.41c-1.5,2.952-3.24,5.339-5.216,7.152c-1.972,1.82-4.189,3.193-6.65,4.141
			c-2.464,0.949-5.255,1.418-8.363,1.418c-6.905,0-12.3-2.262-16.191-6.789c-3.893-4.518-5.836-9.635-5.836-15.332
			c0-5.366,1.643-10.146,4.939-14.346c4.179-5.346,9.77-8.012,16.772-8.012c7.217,0,12.97,2.734,17.276,8.201
			c3.062,3.869,4.614,8.686,4.668,14.465h-38.055c0.093,4.912,1.667,8.942,4.7,12.087c3.035,3.134,6.784,4.708,11.253,4.708
			c2.155,0,4.252-0.375,6.29-1.123c2.029-0.746,3.767-1.746,5.188-2.98C749.967,520.602,751.512,518.604,753.173,515.84z
			 M753.173,504.447c-0.726-2.902-1.786-5.218-3.171-6.961c-1.39-1.734-3.225-3.142-5.513-4.198
			c-2.285-1.064-4.684-1.589-7.201-1.589c-4.15,0-7.721,1.332-10.709,4c-2.175,1.946-3.825,4.861-4.941,8.749L753.173,504.447
			L753.173,504.447z"/>
	</g>
	<g id="_x36__1_">
		<path fill="#F4F3F2" d="M913.944,635.867c-0.203,0-0.414,0.02-0.618,0.02v-58.691l33.273-23.488l-33.273-14.77v-2.26H908.4v99.355
			c-18.811,0.979-36.971,6.889-36.971,17.084c0,11.207,21.902,17.254,42.514,17.254c20.614,0,42.514-6.047,42.514-17.254
			C956.458,641.92,934.558,635.867,913.944,635.867z M913.944,665.441c-21.511,0-37.584-6.508-37.584-12.326
			c0-5.299,13.38-11.158,32.04-12.158v12.158h4.926v-12.305c0.209,0,0.405-0.018,0.618-0.018c21.51,0,37.591,6.506,37.591,12.318
			C951.532,658.939,935.454,665.441,913.944,665.441z"/>
		<path fill="#F4F3F2" d="M831.385,653.117c-13.954,0-25.26,11.318-25.26,25.262c0,13.957,11.304,25.264,25.26,25.264
			c13.959,0,25.257-11.309,25.257-25.264C856.646,664.428,845.343,653.117,831.385,653.117z"/>
	</g>
	<g id="_x39__1_">
		<path fill="#F4F3F2" d="M673.755,242.911c0-0.264,0-13.22,0-13.483c-0.264,0-48.744,0-49.005,0c0,0.261,0,13.217,0,13.483
			C625.011,242.911,673.491,242.911,673.755,242.911z"/>
		<path fill="#F4F3F2" d="M591.04,247.269c0-0.261,0-21.938,0-22.201c-0.245,0-4.187,0-4.429,0c0,0.261,0,21.94,0,22.201
			C586.853,247.269,590.793,247.269,591.04,247.269z"/>
		<path fill="#F4F3F2" d="M707.468,225.066c0,0.266-0.004,21.94-0.004,22.202c0.246,0,4.184,0,4.431,0
			c0-0.655-0.003-21.965-0.003-22.202C711.645,225.066,707.71,225.066,707.468,225.066z"/>
		<path fill="#F4F3F2" d="M579.278,240.323c-0.062-0.301-1.741-8.429-1.781-8.631c-0.202,0-3.376,0-3.671,0
			c0.067,0.305,1.749,8.422,1.787,8.631C575.813,240.323,578.988,240.323,579.278,240.323z"/>
		<path fill="#F4F3F2" d="M584.248,231.692c-0.245,0-4.043,0-4.345,0c0.069,0.305,1.746,8.427,1.786,8.633c0.193,0,2.331,0,2.56,0
			C584.248,240.07,584.248,231.95,584.248,231.692z"/>
		<path fill="#F4F3F2" d="M567.128,240.323c-0.058-0.308-1.743-8.429-1.783-8.631c-0.189,0-2.259,0-2.49,0c0,0.257,0,8.378,0,8.631
			C563.099,240.323,566.838,240.323,567.128,240.323z"/>
		<path fill="#F4F3F2" d="M573.206,240.323c-0.059-0.301-1.746-8.429-1.78-8.631c-0.201,0-3.374,0-3.667,0
			c0.066,0.305,1.747,8.422,1.789,8.631C569.739,240.323,572.915,240.323,573.206,240.323z"/>
		<path fill="#F4F3F2" d="M714.254,231.692c0,0.261,0,8.378,0,8.633c0.241,0,3.979,0,4.277,0c-0.066-0.3-1.746-8.42-1.785-8.633
			C716.55,231.692,714.484,231.692,714.254,231.692z"/>
		<path fill="#F4F3F2" d="M725.23,231.692c0.062,0.312,1.741,8.427,1.782,8.633c0.194,0,3.371,0,3.664,0
			c-0.062-0.3-1.747-8.42-1.784-8.633C728.692,231.692,725.523,231.692,725.23,231.692z"/>
		<path fill="#F4F3F2" d="M731.304,231.692c0.066,0.312,1.749,8.427,1.782,8.633c0.2,0,2.329,0,2.564,0c0-0.251,0-8.368,0-8.633
			C735.407,231.692,731.6,231.692,731.304,231.692z"/>
		<path fill="#F4F3F2" d="M719.151,231.692c0.07,0.312,1.747,8.427,1.788,8.633c0.195,0,3.373,0,3.67,0
			c-0.07-0.3-1.75-8.42-1.787-8.633C722.619,231.692,719.446,231.692,719.151,231.692z"/>
		<path fill="#F4F3F2" d="M622.389,272.487c0-0.264,0-72.373,0-72.64c-0.258,0-14.511,0-14.767,0c0,0.132,0,72.387,0,72.64
			C607.878,272.487,622.129,272.487,622.389,272.487z"/>
		<path fill="#F4F3F2" d="M605.258,261.336c0-0.264,0-50.072,0-50.336c-0.256,0-11.604,0-11.861,0c0,0.265,0,50.074,0,50.336
			C593.657,261.336,605.02,261.336,605.258,261.336z"/>
		<path fill="#F4F3F2" d="M676.118,199.849c0,0.269,0,72.374,0,72.64c0.259,0,14.505,0,14.76,0c0-0.254,0-72.466,0-72.64
			C690.623,199.849,676.371,199.849,676.118,199.849z"/>
		<path fill="#F4F3F2" d="M693.242,210.998c0,0.267,0.001,50.075,0.001,50.337c0.254,0,11.599,0,11.861,0c0-0.263,0-50.071,0-50.337
			C704.854,210.998,693.497,210.998,693.242,210.998z"/>
	</g>
	<g id="_x32_1_1_">
		<path fill="#F4F3F2" d="M480.655,583.172c7.372,0,13.367-5.994,13.367-13.359c0-7.373-5.997-13.365-13.367-13.365
			c-7.361,0-13.364,5.992-13.364,13.365C467.293,577.176,473.296,583.172,480.655,583.172z"/>
		<path fill="#F4F3F2" d="M508.558,592.98c-1.66-1.941-3.974-3.133-6.529-3.336c-2.556-0.201-5.032,0.602-6.982,2.262
			c0,0-11.94,10.178-14.882,12.682c-1.062-1.852-3.818-6.629-6.028-10.488c0.375-3.957-0.772-7.797-3.558-10.539
			c-0.704-0.688-1.483-1.268-2.308-1.754l0.041-0.039l-0.319-0.086c-1.662-0.918-3.512-1.412-5.438-1.535l-23.436-6.602l0.182,0.055
			l-2.245-0.475c0.249,0.041-4.023-0.023-4.023-0.023l-28.839,5.949c-2.558,0.531-4.804,2.055-6.162,4.186
			c-1.289,2.01-1.69,4.387-1.14,6.682c1.152,4.857,6.258,7.939,11.384,6.883c0,0,25.632-5.293,26.522-5.475
			c0.338,0.088,3.451,0.883,7.057,1.814l-6.966,7.078l19.142,19.854l8.142-8.289l6.898,11.984c2.633,4.584,8.495,6.16,13.069,3.537
			c0.012-0.037,2.867-1.652,2.867-1.652l22.475-19.162c1.949-1.658,3.136-3.975,3.34-6.529c0.016-0.258,0.027-0.514,0.027-0.777
			C510.85,596.908,510.05,594.736,508.558,592.98z"/>
		<path fill="#F4F3F2" d="M468.81,643.807l-19.424-18.965l1.111-1.131l-6.407-6.639l-1.904-1.979l-5.989-6.211l-2.021-2.1
			l-2.819-2.922l-3.052,3.105c-1.103,1.129-1.975,2.363-2.736,3.635l-69.097,48.748c-5.186,3.65-6.879,10.211-3.779,14.625
			c3.111,4.404,9.863,5.025,15.042,1.375l61.263-43.227c5.533,5.254,18.244,17.355,20.183,19.188
			c-2.254,2.639-23.788,27.936-23.788,27.936c-2.431,2.91-3.483,5.475-3.483,8.365c0,1.523,0.523,3.73,1.542,5.004
			c0,0,6.115,9.986,16.816-0.689l27.239-31.654c5.353-6.268,5.723-10.697,1.38-16.348L468.81,643.807z"/>
	</g>
	<g>
		<path fill="#F4F3F2" d="M913.713,374.479c-8.658-5.279-17.605-9.432-27.097-12.508c-9.225-2.983-18.482-4.782-27.702-5.417
			c-8.461-5.089-17.363-9.167-26.604-12.158c-9.492-3.071-18.951-4.87-28.435-5.451l-2.548-0.103l-24.871,76.841l3.448,0.808
			c9.194,2.201,18.084,4.684,27.032,7.58c7.933,2.565,15.183,5.222,22.212,8.111l-0.166,0.498c0,0,1.075,1.562,4.782,2.762
			c3.714,1.204,5.517,0.575,5.517,0.575l0.165-0.504c7.392,1.78,14.58,3.803,22.507,6.363c8.945,2.897,17.299,5.996,26.041,9.601
			l2.788,1.208l24.883-76.894L913.713,374.479z"/>
	</g>
	<g>
		<path fill="#7F7F7F" d="M889.6,448.058c-17.728-7.313-35.834-13.172-54.479-17.632c7.567-23.391,15.139-46.782,22.71-70.174
			c19.176,1.17,38.128,7.657,54.481,17.633C904.741,401.278,897.171,424.669,889.6,448.058z"/>
	</g>
	<g>
		<path fill="#7F7F7F" d="M835.121,430.425c-17.724-7.311-35.833-13.171-54.475-17.632c7.567-23.393,15.138-46.784,22.707-70.171
			c19.179,1.168,38.13,7.655,54.478,17.632C850.262,383.646,842.688,407.036,835.121,430.425z"/>
	</g>
	<g>
		<g>
			<path fill="#F4F3F2" d="M835.121,430.425c-15.604-10.917-32.148-16.269-51.187-16.567c7.547-23.317,15.09-46.636,22.639-69.95
				c20.007-2.645,36.418,2.917,51.185,16.564C850.214,383.791,842.671,407.11,835.121,430.425z"/>
		</g>
	</g>
	<g>
		<g>
			<path fill="#F4F3F2" d="M834.711,430.292c19.039,0.293,35.584,5.648,51.189,16.565c7.545-23.318,15.092-46.633,22.635-69.95
				c-14.661-13.863-31.215-18.974-51.185-16.566C849.802,383.66,842.256,406.977,834.711,430.292z"/>
		</g>
	</g>
	<g>
		<g>
			<g>
				<path fill="#7F7F7F" d="M900.288,381.227c-0.066-0.022-0.123-0.05-0.177-0.091c-12.179-8.05-24.637-12.083-39.221-12.691
					c-0.448-0.018-0.778-0.423-0.741-0.905c0.04-0.48,0.435-0.851,0.885-0.833c14.866,0.62,27.565,4.73,39.974,12.936
					c0.374,0.249,0.473,0.781,0.225,1.195C901.023,381.185,900.634,381.336,900.288,381.227z"/>
			</g>
			<g>
				<path fill="#7F7F7F" d="M898.669,386.23c-0.065-0.02-0.124-0.049-0.181-0.085c-12.176-8.051-24.638-12.088-39.216-12.692
					c-0.448-0.021-0.779-0.425-0.74-0.905s0.435-0.856,0.882-0.834c14.862,0.621,27.57,4.731,39.976,12.939
					c0.379,0.245,0.478,0.78,0.229,1.194C899.405,386.193,899.01,386.34,898.669,386.23z"/>
			</g>
			<g>
				<path fill="#7F7F7F" d="M897.045,391.237c-0.062-0.023-0.12-0.049-0.179-0.087c-12.174-8.051-24.636-12.083-39.214-12.695
					c-0.45-0.018-0.782-0.421-0.743-0.9c0.04-0.48,0.438-0.854,0.886-0.836c14.863,0.621,27.562,4.732,39.973,12.939
					c0.372,0.248,0.471,0.782,0.223,1.198C897.781,391.199,897.396,391.35,897.045,391.237z"/>
			</g>
			<g>
				<path fill="#7F7F7F" d="M855.829,383.427c-0.343-0.109-0.576-0.459-0.54-0.866c0.04-0.482,0.435-0.853,0.883-0.837
					c14.86,0.617,27.562,4.731,39.972,12.937c0.377,0.25,0.475,0.787,0.228,1.199c-0.248,0.412-0.756,0.546-1.127,0.297
					c-12.172-8.052-24.637-12.085-39.217-12.69C855.963,383.459,855.895,383.452,855.829,383.427z"/>
			</g>
			<g>
				<path fill="#7F7F7F" d="M854.212,388.436c-0.331-0.112-0.563-0.447-0.541-0.839c0.024-0.479,0.405-0.869,0.854-0.869
					c5.288,0.013,10.558,0.635,15.663,1.836c0.439,0.1,0.692,0.567,0.577,1.038c-0.121,0.47-0.567,0.768-0.996,0.664
					c-4.995-1.179-10.154-1.784-15.323-1.796C854.358,388.469,854.286,388.459,854.212,388.436z"/>
			</g>
			<g>
				<path fill="#7F7F7F" d="M852.587,393.442c-0.343-0.113-0.573-0.465-0.538-0.874c0.032-0.475,0.435-0.853,0.876-0.832
					c14.864,0.619,27.575,4.73,39.977,12.937c0.379,0.248,0.479,0.783,0.223,1.193c-0.248,0.414-0.749,0.547-1.123,0.298
					c-12.177-8.047-24.635-12.081-39.216-12.692C852.723,393.475,852.654,393.463,852.587,393.442z"/>
			</g>
			<g>
				<path fill="#7F7F7F" d="M890.565,411.263c-0.064-0.022-0.123-0.049-0.184-0.089c-12.171-8.046-24.63-12.083-39.209-12.69
					c-0.451-0.019-0.783-0.425-0.746-0.903c0.042-0.482,0.435-0.855,0.883-0.835c14.864,0.621,27.572,4.731,39.979,12.937
					c0.372,0.248,0.476,0.784,0.22,1.196C891.3,411.225,890.909,411.375,890.565,411.263z"/>
			</g>
			<g>
				<path fill="#7F7F7F" d="M888.945,416.269c-0.063-0.022-0.123-0.05-0.181-0.089c-12.174-8.047-24.635-12.08-39.217-12.69
					c-0.449-0.017-0.78-0.425-0.739-0.903c0.032-0.481,0.436-0.853,0.88-0.84c14.866,0.625,27.572,4.736,39.977,12.939
					c0.376,0.248,0.476,0.782,0.223,1.196C889.683,416.229,889.29,416.382,888.945,416.269z"/>
			</g>
			<g>
				<path fill="#7F7F7F" d="M847.728,408.46c-0.331-0.107-0.562-0.441-0.541-0.835c0.021-0.48,0.407-0.871,0.858-0.871
					c4.864,0.015,9.728,0.541,14.454,1.565c0.438,0.09,0.696,0.549,0.587,1.024c-0.105,0.47-0.547,0.778-0.983,0.68
					c-4.624-1-9.381-1.514-14.142-1.528C847.875,408.495,847.801,408.483,847.728,408.46z"/>
			</g>
			<g>
				<path fill="#7F7F7F" d="M885.708,426.285c-0.064-0.02-0.125-0.049-0.184-0.086c-12.174-8.053-24.635-12.083-39.217-12.693
					c-0.448-0.018-0.782-0.424-0.741-0.905c0.04-0.482,0.435-0.853,0.885-0.836c14.863,0.623,27.566,4.733,39.976,12.939
					c0.376,0.25,0.471,0.78,0.224,1.194C886.44,426.243,886.046,426.392,885.708,426.285z"/>
			</g>
			<g>
				<path fill="#7F7F7F" d="M844.487,418.472c-0.339-0.109-0.576-0.458-0.541-0.866c0.039-0.482,0.435-0.856,0.886-0.838
					c8.104,0.328,15.455,1.616,23.119,4.06c0.431,0.152,0.652,0.622,0.504,1.081c-0.15,0.459-0.611,0.728-1.035,0.59
					c-7.539-2.401-14.762-3.669-22.729-3.989C844.618,418.507,844.554,418.494,844.487,418.472z"/>
			</g>
		</g>
	</g>
	<g>
		<g>
			<g>
				<path fill="#7F7F7F" d="M849.591,364.803c-0.066-0.024-0.127-0.05-0.191-0.097c-12.082-8.309-24.533-12.338-39.193-12.683
					c-0.448-0.011-0.787-0.409-0.757-0.89c0.037-0.482,0.428-0.864,0.873-0.854c14.963,0.356,27.676,4.472,40.007,12.947
					c0.372,0.255,0.465,0.795,0.206,1.204C850.318,364.769,849.929,364.911,849.591,364.803z"/>
			</g>
			<g>
				<path fill="#7F7F7F" d="M808.37,356.989c-0.337-0.106-0.57-0.451-0.54-0.851c0.031-0.483,0.42-0.863,0.869-0.851
					c14.959,0.353,27.675,4.468,40.006,12.946c0.367,0.256,0.459,0.794,0.204,1.203c-0.256,0.409-0.759,0.535-1.131,0.283
					c-12.081-8.307-24.536-12.343-39.193-12.689C808.509,357.027,808.443,357.013,808.37,356.989z"/>
			</g>
			<g>
				<path fill="#7F7F7F" d="M846.351,374.816c-0.066-0.026-0.128-0.056-0.194-0.1c-12.078-8.305-24.53-12.34-39.193-12.684
					c-0.448-0.008-0.787-0.409-0.754-0.89c0.028-0.482,0.421-0.86,0.871-0.852c14.962,0.354,27.673,4.471,40.01,12.951
					c0.366,0.253,0.46,0.79,0.207,1.197C847.078,374.781,846.688,374.924,846.351,374.816z"/>
			</g>
			<g>
				<path fill="#7F7F7F" d="M844.73,379.822c-0.065-0.02-0.133-0.052-0.192-0.096c-12.074-8.304-24.531-12.34-39.192-12.687
					c-0.45-0.01-0.789-0.407-0.756-0.889c0.032-0.479,0.425-0.865,0.872-0.851c14.966,0.354,27.674,4.469,40.005,12.949
					c0.369,0.253,0.458,0.795,0.203,1.2C845.456,379.785,845.068,379.93,844.73,379.822z"/>
			</g>
			<g>
				<path fill="#7F7F7F" d="M803.511,372.011c-0.336-0.109-0.568-0.454-0.542-0.851c0.029-0.483,0.425-0.865,0.869-0.854
					c6.272,0.149,12.016,0.872,18.074,2.279c0.436,0.103,0.693,0.565,0.574,1.036c-0.112,0.469-0.56,0.771-0.993,0.666
					c-5.955-1.378-11.605-2.093-17.77-2.239C803.646,372.047,803.577,372.03,803.511,372.011z"/>
			</g>
			<g>
				<path fill="#7F7F7F" d="M841.49,389.834c-0.07-0.025-0.135-0.056-0.196-0.097c-12.081-8.31-24.528-12.339-39.188-12.682
					c-0.448-0.015-0.789-0.411-0.756-0.895c0.032-0.481,0.424-0.864,0.868-0.849c14.966,0.354,27.68,4.467,40.01,12.948
					c0.368,0.255,0.46,0.792,0.208,1.2C842.214,389.802,841.828,389.944,841.49,389.834z"/>
			</g>
			<g>
				<path fill="#7F7F7F" d="M800.272,382.024c-0.341-0.108-0.573-0.451-0.544-0.851c0.035-0.486,0.421-0.864,0.873-0.852
					c14.961,0.351,27.674,4.469,40.004,12.95c0.369,0.251,0.463,0.789,0.206,1.2c-0.254,0.411-0.763,0.535-1.131,0.28
					c-12.081-8.311-24.532-12.342-39.195-12.687C800.406,382.058,800.337,382.048,800.272,382.024z"/>
			</g>
			<g>
				<path fill="#7F7F7F" d="M838.246,399.847c-0.065-0.022-0.131-0.056-0.19-0.097c-12.081-8.306-24.532-12.338-39.192-12.686
					c-0.446-0.009-0.786-0.407-0.755-0.892c0.03-0.479,0.423-0.861,0.871-0.847c14.961,0.353,27.675,4.468,40.006,12.946
					c0.368,0.255,0.461,0.79,0.209,1.2C838.974,399.814,838.587,399.954,838.246,399.847z"/>
			</g>
			<g>
				<path fill="#7F7F7F" d="M797.023,392.036c-0.331-0.108-0.567-0.455-0.538-0.854c0.036-0.483,0.424-0.863,0.872-0.854
					c13.123,0.359,24.517,3.567,35.851,10.1c0.387,0.225,0.514,0.75,0.283,1.173c-0.223,0.426-0.725,0.589-1.114,0.366
					c-11.111-6.407-22.274-9.552-35.144-9.9C797.165,392.069,797.094,392.058,797.023,392.036z"/>
			</g>
			<g>
				<path fill="#7F7F7F" d="M834.875,410.279c-0.072-0.025-0.134-0.054-0.196-0.099c-12.081-8.304-24.534-12.339-39.195-12.682
					c-0.443-0.013-0.784-0.409-0.753-0.892c0.032-0.48,0.421-0.861,0.87-0.847c14.963,0.353,27.678,4.467,40.007,12.946
					c0.367,0.255,0.464,0.793,0.207,1.204C835.604,410.247,835.211,410.387,834.875,410.279z"/>
			</g>
			<g>
				<path fill="#7F7F7F" d="M793.651,402.467c-0.335-0.11-0.57-0.454-0.543-0.857c0.033-0.479,0.426-0.859,0.876-0.848
					c11.194,0.289,21.095,2.645,31.155,7.396c0.4,0.19,0.565,0.7,0.369,1.148c-0.196,0.439-0.687,0.64-1.089,0.451
					c-9.863-4.662-19.57-6.97-30.55-7.255C793.789,402.502,793.719,402.489,793.651,402.467z"/>
			</g>
		</g>
	</g>
	<path fill="#F4F3F2" d="M440.098,340.687c2.24-5.158,17.16-40.477,17.16-40.477l-0.131-0.133l-0.182-0.025l-17.62,30.78
		c0,0-0.274,0.488-0.767,0.239c-0.486-0.247-0.241-0.744-0.241-0.744l14.208-32.496l-0.132-0.15l-0.202-0.018l-17.717,30.704
		c0,0-0.268,0.499-0.715,0.274c-0.45-0.229-0.215-0.745-0.215-0.745l14.276-32.444l-0.14-0.149l-0.2-0.027l-17.788,30.682
		c0,0-0.276,0.487-0.746,0.245c-0.475-0.242-0.256-0.756-0.256-0.756l14.388-32.417l-0.134-0.134l-0.181-0.024
		c0,0-19.645,32.927-22.483,37.783c-0.271,0.458-0.173,0.877,0.191,1.242c1.24,1.23,3.806,4.902,3.236,11.414
		c-0.426,6.794-38.627,70.313-47.156,83.942c-2.121,3.382-3.288,9.111-0.18,14.671l0,0c6.323-0.782,10.244-5.111,11.716-8.825
		c5.945-14.94,34.55-83.317,39.775-87.68c4.916-4.312,9.392-4.411,11.12-4.142C439.497,341.347,439.886,341.173,440.098,340.687z
		 M377.905,427.313c1.663-2.657,2.42-3.369,2.42-3.369s-2.73,4.38-3.424,7.059c-0.665,2.274-0.97,4.901,0.014,9.665
		C374.609,435.515,375.94,430.453,377.905,427.313z"/>
	<path fill="#F4F3F2" d="M485.152,372.599c6.938-2.348,13.919-8.674,18.423-17.562c7.256-14.319,5.347-29.873-4.259-34.738
		c-9.608-4.869-23.276,2.795-30.53,17.111c-4.486,8.849-5.463,18.173-3.284,25.153c-0.253,0.422-0.457,0.77-0.613,1.035
		c-0.262,0.458-0.172,0.878,0.189,1.24c1.243,1.23,3.91,4.691,3.348,11.203c-0.426,6.795-34.091,61.344-42.615,74.966
		c-2.125,3.39-3.292,9.113-0.179,14.674l0,0c6.32-0.783,10.241-5.117,11.719-8.825c5.939-14.937,30.005-74.346,35.232-78.71
		c4.916-4.311,9.282-4.205,11.011-3.933c0.504,0.078,0.905-0.093,1.118-0.582C484.821,373.367,484.972,373.019,485.152,372.599z
		 M434.287,458.654c1.754-2.139,3.666-6.934,3.666-6.934s-0.124,1.026-1.28,3.935c-1.371,3.442-4.668,7.509-10.185,8.708
		C430.908,462.33,432.849,460.529,434.287,458.654z"/>
	<path fill="#F4F3F2" d="M692.704,741.125c6.963,3.541,15.606,3.195,22.404-1.666c6.851-4.9,9.964-13.059,8.778-20.857
		c-5.108,3.662-6.407,4.592-8.241,5.896c-4.386,3.141-10.492,2.127-13.63-2.264c-3.138-4.389-2.122-10.494,2.262-13.635
		c1.981-1.418,3.358-2.395,8.243-5.889c-6.994-3.643-15.725-3.334-22.573,1.564c-6.793,4.863-9.917,12.928-8.813,20.66
		l-73.645,52.98c-6.96-3.545-15.605-3.199-22.403,1.66c-6.849,4.898-9.965,13.064-8.777,20.857c5.112-3.66,6.41-4.586,8.238-5.896
		c4.395-3.139,10.498-2.125,13.636,2.264c3.139,4.391,2.125,10.5-2.262,13.635c-1.984,1.42-3.353,2.4-8.24,5.891
		c6.99,3.641,15.72,3.334,22.567-1.562c6.796-4.859,9.919-12.93,8.818-20.662L692.704,741.125z"/>
</g>
</svg>
